<svg xmlns="http://www.w3.org/2000/svg" width="170" height="108" version="1.0"><path fill="red" d="M43.3 40.3s-12.2 0-15.2.9a5 5 0 00-3.5 3.4c-.8 3-.8 9.4-.8 9.4s0 6.3.9 9.4a5 5 0 003.4 3.5c3 .8 15.3.8 15.3.8s12.2 0 15.2-.8a5 5 0 003.4-3.5c.9-3 .9-9.4.9-9.4s0-6.3-.9-9.4a5 5 0 00-3.4-3.5c-3-.8-15.3-.8-15.3-.8zm-3.9 7.8L49.6 54l-10.2 5.9V48.1z"/><path fill="#f7f7f7" d="M123.5 41.4v24.3h3.2l.4-1.7c.4.6.8 1 1.4 1.4a4 4 0 002 .5 3 3 0 002.8-1.8c.6-1.2 1-3 1-5.6v-2.7a23 23 0 00-.4-4.5c-.2-1-.6-1.8-1.1-2.3a3 3 0 00-2.2-.8c-.7 0-1.3.2-2 .6-.6.4-1 1-1.4 1.6v-9h-3.7zm-56.8.9L71.1 58v7.6H75V58l4.4-15.8h-3.8L74 49.4a75 75 0 00-.9 4.4l-1-4.5-1.5-7.1h-3.8zm33.8 0v3h3.8v20.4h3.8V45.4h3.8v-3.1h-11.4zm-16.8 6c-1.2 0-2.3.2-3 .7-.9.5-1.4 1.3-1.8 2.5a13 13 0 00-.6 4.4v2.5c0 1.8.2 3.3.5 4.4.3 1 .9 1.9 1.7 2.4.7.5 1.8.8 3.1.8s2.4-.3 3.2-.8a5 5 0 001.7-2.5c.3-1 .5-2.5.5-4.3v-2.5a15 15 0 00-.5-4.4c-.4-1.1-1-2-1.7-2.5-.8-.5-1.8-.7-3-.7zm57.5 0c-1.9 0-3.2.6-4 1.7-.8 1.2-1.2 3.1-1.2 5.7v3c0 2.5.4 4.3 1.1 5.5.8 1.2 2.1 1.8 4 1.8 1.6 0 2.8-.4 3.7-1.2.8-.8 1.3-2 1.3-3.5v-.6l-3.4-.2a6 6 0 01-.3 2.2c-.2.4-.6.7-1.2.7-.4 0-.8-.2-1-.4l-.4-1.2v-3.4h6.4v-3a16 16 0 00-.5-4.2 4 4 0 00-1.5-2.2c-.7-.5-1.7-.7-3-.7zm-50.2.3v12.8c0 1.5.3 2.7.8 3.5.5.7 1.4 1 2.5 1 1.7 0 2.9-.7 3.7-2.3l.4 2.1h3V48.6h-3.8v13.6a2 2 0 01-.7.7c-.3.2-.6.3-1 .3a.9.9 0 01-.8-.4c-.2-.4-.2-1-.2-1.7V48.6H91zm19.8 0v12.8c0 1.5.2 2.7.8 3.5.5.7 1.4 1 2.5 1 1.6 0 2.9-.7 3.7-2.3l.4 2.1h3V48.6h-3.8v13.6a2 2 0 01-.7.7 2 2 0 01-1 .3.9.9 0 01-.8-.4 4 4 0 01-.3-1.7V48.6h-3.8zm30.3 2.2c.4 0 .7.2 1 .4.1.2.3.6.3 1.2l.1 2.5v1.2h-2.8V55l.1-2.5c.1-.6.2-1 .4-1.2.2-.2.5-.3 1-.4zm-57.4.1c.5 0 .9.3 1.1.9.2.5.3 1.4.3 2.7v5.3a8 8 0 01-.3 2.7c-.2.6-.6.8-1.1.8-.6 0-1-.2-1.2-.8-.2-.5-.3-1.5-.3-2.7v-5.3c0-1.3.1-2.2.4-2.7.2-.6.5-.9 1-.9zm45.2 0c.4 0 .7.2 1 .5l.4 1.6v8.3a3 3 0 01-.6 1.4c-.2.3-.6.5-1 .5-.3 0-.6 0-.8-.2l-.7-.7v-9.7c.1-.5.4-.9.7-1.2.3-.3.6-.4 1-.4z"/></svg>