<svg xmlns="http://www.w3.org/2000/svg" width="170" height="108"><path d="M106.23 42.34L89.63 70.8c-1.2 1.59-2.38 2.77-4.36 3.17-2.37 0-3.95-.8-5.14-2.77-3.56-5.93-6.72-11.86-10.28-17.8-1.98-3.55-4.35-7.11-6.33-11.06-2.37-3.56 0-7.91 4.35-8.3 2.38 0 3.96.78 5.14 2.76 1.59 2.77 3.17 5.14 4.75 7.9 1.19 1.99 2.37 3.96 3.16 5.94 1.58 2.77 3.96 4.35 7.12 4.35 4.74.4 8.7-3.16 9.49-7.91v-.79c0-1.58-.4-2.77-.8-3.95-1.57-3.56 0-7.12 3.96-7.91 3.17-.8 6.33 1.58 6.72 4.74 0 .8-.4 1.98-1.18 3.17z" fill="#ef3939"/></svg>