<?xml version="1.0" encoding="iso-8859-1"?>
<!-- Generator: Adobe Illustrator 19.0.0, SVG Export Plug-In . SVG Version: 6.00 Build 0)  -->
<svg version="1.1" id="Capa_1" xmlns="http://www.w3.org/2000/svg" xmlns:xlink="http://www.w3.org/1999/xlink" x="0px" y="0px"
	 viewBox="0 0 512 512" style="enable-background:new 0 0 512 512;" xml:space="preserve">
<circle style="fill:#DF3333;" cx="256.006" cy="256.006" r="28.132"/>
<path style="fill:#4B7A2F;" d="M256.002,0v199.178c38.424,0,69.574-44.588,69.574-99.589S294.427,0,256.002,0z"/>
<path style="fill:#619243;" d="M291.817,99.589C291.817,44.588,275.783,0,256.002,0l-33.57,99.589l33.57,99.589
	C275.783,199.178,291.817,154.59,291.817,99.589z"/>
<path style="fill:#88AD72;" d="M186.428,99.589c0,55.001,31.149,99.589,69.574,99.589V0C217.578,0,186.428,44.588,186.428,99.589z"
	/>
<path style="fill:#4B7A2F;" d="M477.705,384.001l-172.493-99.589c-19.212,33.276,3.827,82.546,51.46,110.048
	C404.304,421.959,458.493,417.277,477.705,384.001z"/>
<path style="fill:#619243;" d="M373.551,365.223c47.633,27.501,94.264,35.908,104.154,18.778l-69.461-78.867l-103.031-20.722
	C295.321,301.541,325.918,337.721,373.551,365.223z"/>
<path style="fill:#88AD72;" d="M426.245,273.953c-47.633-27.501-101.822-22.819-121.034,10.459l172.493,99.589
	C496.918,350.723,473.878,301.454,426.245,273.953z"/>
<path style="fill:#4B7A2F;" d="M477.705,128.001L305.213,227.59c19.212,33.276,73.401,37.959,121.034,10.459
	C473.878,210.547,496.918,161.277,477.705,128.001z"/>
<path style="fill:#619243;" d="M409.366,208.812c47.633-27.501,78.23-63.681,68.339-80.811l-103.031,20.722l-69.461,78.867
	C315.102,244.719,361.733,236.312,409.366,208.812z"/>
<path style="fill:#88AD72;" d="M356.671,117.542c-47.633,27.501-70.672,76.77-51.46,110.048l172.493-99.589
	C458.493,94.723,404.304,90.041,356.671,117.542z"/>
<circle style="fill:#992A2A;" cx="256.006" cy="256.006" r="28.132"/>
<circle style="fill:#DF3333;" cx="256.006" cy="199.741" r="28.132"/>
<path style="fill:#619243;" d="M34.295,128.001l69.464,78.867l103.034,20.722c19.212-33.276-3.828-82.545-51.461-110.046
	S53.507,94.724,34.295,128.001z"/>
<path style="fill:#88AD72;" d="M85.757,238.046c47.634,27.501,101.823,22.819,121.035-10.457L34.295,127.999
	C15.082,161.276,38.123,210.546,85.757,238.046z"/>
<circle style="fill:#DF3333;" cx="207.269" cy="227.873" r="28.132"/>
<path style="fill:#619243;" d="M34.295,384.001l103.034-20.722l69.464-78.867c-19.212-33.276-73.402-37.957-121.035-10.457
	S15.082,350.724,34.295,384.001z"/>
<path style="fill:#88AD72;" d="M155.331,394.457c47.634-27.501,70.673-76.77,51.461-110.046L34.295,383.999
	C53.508,417.277,107.697,421.958,155.331,394.457z"/>
<circle style="fill:#DF3333;" cx="207.269" cy="284.138" r="28.132"/>
<path style="fill:#4B7A2F;" d="M256.002,312.822V512c38.424,0,69.574-44.588,69.574-99.589S294.427,312.822,256.002,312.822z"/>
<path style="fill:#619243;" d="M291.817,412.411c0-55.001-16.034-99.589-35.815-99.589l-33.57,99.589L256.002,512
	C275.783,512,291.817,467.412,291.817,412.411z"/>
<path style="fill:#88AD72;" d="M186.428,412.411c0,55.001,31.149,99.589,69.574,99.589V312.822
	C217.578,312.822,186.428,357.41,186.428,412.411z"/>
<g>
	<circle style="fill:#DF3333;" cx="256.006" cy="312.271" r="28.132"/>
	<circle style="fill:#DF3333;" cx="304.731" cy="284.138" r="28.132"/>
	<circle style="fill:#DF3333;" cx="304.731" cy="227.873" r="28.132"/>
</g>
<g>
</g>
<g>
</g>
<g>
</g>
<g>
</g>
<g>
</g>
<g>
</g>
<g>
</g>
<g>
</g>
<g>
</g>
<g>
</g>
<g>
</g>
<g>
</g>
<g>
</g>
<g>
</g>
<g>
</g>
</svg>
