<?xml version="1.0" encoding="iso-8859-1"?>
<!-- Generator: Adobe Illustrator 19.0.0, SVG Export Plug-In . SVG Version: 6.00 Build 0)  -->
<svg version="1.1" id="Capa_1" xmlns="http://www.w3.org/2000/svg" xmlns:xlink="http://www.w3.org/1999/xlink" x="0px" y="0px"
	 viewBox="0 0 512 512" style="enable-background:new 0 0 512 512;" xml:space="preserve">
<path style="fill:#619243;" d="M207.209,323.155c-12.413,20.575-19.57,44.674-19.57,70.46c0,50.597,27.506,94.74,68.36,118.385
	l22.505-188.845L207.209,323.155L207.209,323.155z"/>
<path style="fill:#35611A;" d="M304.791,323.155h-24.094L256,512c40.854-23.644,68.36-67.788,68.36-118.385
	C324.36,367.83,317.204,343.73,304.791,323.155z"/>
<path style="fill:#4B7A2F;" d="M280.696,323.155H256V512c20.679-23.644,34.602-67.788,34.602-118.385
	C290.602,367.83,286.98,343.73,280.696,323.155z"/>
<path style="fill:#619243;" d="M334.946,230.349c23.403-5.447,48.535-4.806,73.06,3.162c48.12,15.636,81.604,55.437,91.466,101.598
	l-186.557-36.953L334.946,230.349z"/>
<path style="fill:#35611A;" d="M304.791,323.155l7.446-22.915l187.234,34.869c-35.111,31.548-85.595,44.067-133.715,28.432
	C341.232,355.572,320.523,341.318,304.791,323.155z"/>
<path style="fill:#4B7A2F;" d="M312.237,300.24l7.632-23.488l179.603,58.357c-28.877,12.361-75.163,11.961-123.283-3.674
	C351.664,323.466,329.863,312.573,312.237,300.24z"/>
<path style="fill:#619243;" d="M256,172.992c2.051-23.941,10.427-47.645,25.584-68.507c29.74-40.934,77.94-60.479,124.89-55.594
	L313.68,214.898L256,172.992z"/>
<path style="fill:#35611A;" d="M334.946,230.349l-19.493-14.163l91.02-167.296c19.154,43.142,15.46,95.023-14.28,135.957
	C377.037,205.709,357.081,221.001,334.946,230.349z"/>
<path style="fill:#4B7A2F;" d="M315.453,216.187l-19.98-14.516l111-152.779c2.832,31.284-11.851,75.181-41.591,116.114
	C349.725,185.866,332.629,203.235,315.453,216.187z"/>
<circle style="fill:#FFCB61;" cx="256" cy="256" r="22.505"/>
<path style="fill:#4B7A2F;" d="M256,172.992c-2.051-23.941-10.427-47.645-25.584-68.507c-29.74-40.934-77.94-60.479-124.89-55.594
	l92.794,166.007L256,172.992z"/>
<path style="fill:#619243;" d="M177.054,230.349l39.472-28.679L105.527,48.892c-19.154,43.142-15.46,95.023,14.28,135.957
	C134.963,205.709,154.919,221.001,177.054,230.349z"/>
<path style="fill:#4B7A2F;" d="M177.054,230.349c-23.403-5.447-48.535-4.806-73.06,3.162
	c-48.12,15.636-81.604,55.437-91.466,101.598l186.557-36.953L177.054,230.349z"/>
<path style="fill:#619243;" d="M207.209,323.155l-15.078-46.403L12.529,335.109c35.111,31.548,85.595,44.067,133.715,28.432
	C170.768,355.572,191.477,341.318,207.209,323.155z"/>
<g>
	<path style="fill:#992A2A;" d="M256,0v236.77c40.854-23.644,68.36-67.788,68.36-118.386C324.36,67.788,296.854,23.644,256,0z"/>
	<path style="fill:#992A2A;" d="M267.303,271.557c-19.154,43.142-15.46,95.023,14.281,135.957
		c29.74,40.934,77.94,60.479,124.89,55.594L267.303,271.557z"/>
	<path style="fill:#992A2A;" d="M274.289,250.057c35.111,31.548,85.595,44.068,133.716,28.432
		c48.12-15.636,81.604-55.437,91.466-101.598L274.289,250.057z"/>
</g>
<path style="fill:#DF3333;" d="M397.573,246.383c48.12-15.636,85.801-42.517,101.897-69.491
	c-35.112-31.549-85.594-44.068-133.715-28.433c-24.523,7.969-45.232,22.222-60.963,40.385
	c-11.945,19.798-28.758,36.332-48.792,47.927c20.679-23.644,34.602-67.788,34.602-118.386C290.602,67.788,276.679,23.644,256,0
	c-40.854,23.644-68.36,67.788-68.36,118.385c0,25.785,7.156,49.886,19.569,70.459c-15.731-18.163-36.441-32.416-60.964-40.385
	c-48.121-15.636-98.604-3.117-133.715,28.433c9.862,46.16,43.346,85.962,91.467,101.597c24.523,7.968,49.655,8.609,73.057,3.162
	c-22.135,9.35-42.091,24.64-57.246,45.502c-29.74,40.934-33.434,92.815-14.281,135.957c46.95,4.885,95.15-14.66,124.89-55.594
	c15.156-20.86,23.532-44.565,25.583-68.506c-1.975-23.03,1.908-46.292,11.303-67.451c-2.832,31.284,11.851,75.181,41.591,116.115
	s66.952,68.464,97.578,75.437c19.154-43.142,15.46-95.023-14.28-135.957c-15.156-20.86-35.111-36.152-57.246-45.5
	c-22.503-5.234-43.432-16.116-60.658-31.594C303.166,262.419,349.452,262.019,397.573,246.383z"/>
<g>
	<circle style="fill:#FFCB61;" cx="256" cy="210.989" r="22.505"/>
	<circle style="fill:#FFCB61;" cx="298.805" cy="242.092" r="22.505"/>
	<circle style="fill:#FFCB61;" cx="282.455" cy="292.414" r="22.505"/>
	<circle style="fill:#FFCB61;" cx="229.545" cy="292.414" r="22.505"/>
	<circle style="fill:#FFCB61;" cx="213.195" cy="242.092" r="22.505"/>
	<circle style="fill:#FFCB61;" cx="256" cy="256" r="22.505"/>
</g>
<g>
</g>
<g>
</g>
<g>
</g>
<g>
</g>
<g>
</g>
<g>
</g>
<g>
</g>
<g>
</g>
<g>
</g>
<g>
</g>
<g>
</g>
<g>
</g>
<g>
</g>
<g>
</g>
<g>
</g>
</svg>
