<svg xmlns="http://www.w3.org/2000/svg" width="26" height="26"><path id="pancakes" d="M9.128 4.802c-.254 0-.403.09-.508.254-.18.329.045.523.299.673.284.15.448-.195 1.106-.09.658.09 1.54.493 2.362 1.898l.643-.388c-.927-1.54-2.018-2.123-2.885-2.243-.449-.074-.763-.12-1.017-.104zM13 7.822c-2.018 0-3.857.149-5.202.418-.673.15-1.226.299-1.645.478-.209.105-.373.21-.523.344a.759.759 0 00-.269.553c0 .225.12.419.27.553.149.15.313.255.522.344.12.06.284.105.434.15-.135.045-.284.09-.389.15-.224.089-.403.194-.553.328a.903.903 0 00-.284.568c0 .224.12.419.27.553.149.15.313.254.522.344.12.06.284.105.419.15-.12.044-.27.09-.374.15-.224.089-.403.193-.553.328a.903.903 0 00-.284.568v.015c-.822.314-1.495.688-1.943 1.091-.479.419-.763.912-.763 1.45 0 .613.36 1.151.927 1.585.553.448 1.316.807 2.243 1.121 1.868.613 4.395.987 7.175.987 2.78 0 5.307-.374 7.175-.987.927-.299 1.69-.688 2.243-1.121.568-.449.927-.972.927-1.585 0-.538-.3-1.031-.748-1.45a6.323 6.323 0 00-1.943-1.091h-.03a.792.792 0 00-.27-.583c-.149-.15-.328-.24-.552-.344l-.374-.134c.15-.045.299-.09.419-.15.209-.09.373-.21.523-.344a.817.817 0 00.269-.553.777.777 0 00-.284-.568 2.186 2.186 0 00-.553-.344l-.374-.134c.15-.045.299-.09.419-.15.209-.09.373-.209.523-.344a.759.759 0 00.269-.553.792.792 0 00-.27-.553c-.149-.15-.313-.239-.522-.344a7.415 7.415 0 00-1.645-.478A28.253 28.253 0 0013 7.821zm0 .747c1.988 0 3.782.15 5.053.404.643.134 1.166.284 1.48.433.15.075.269.15.314.194.06.045.044.045.044.015s0-.03-.044.015a1.286 1.286 0 01-.314.21c-.314.15-.837.299-1.48.418-.419.09-.987.15-1.51.194-.3.045-.523.09-.822.105a33.814 33.814 0 01-5.427 0c-.269-.015-.478-.06-.747-.09-.568-.06-1.151-.12-1.6-.209a6.951 6.951 0 01-1.48-.418 1.286 1.286 0 01-.314-.21c-.06-.045-.044-.045-.044 0l.044-.03c.045-.044.15-.12.314-.194.314-.15.837-.299 1.48-.433 1.27-.255 3.065-.404 5.053-.404zm4.888 2.466c.718.135 1.271.3 1.615.449.164.075.299.15.344.21.06.044.044.044.044.014s0-.03-.044.015a1.3 1.3 0 01-.314.194c-.33.15-.837.3-1.48.434-.389.075-.927.135-1.405.194l-.927.105a34.113 34.113 0 01-5.472 0l-.538-.075a22.105 22.105 0 01-1.749-.224 6.921 6.921 0 01-1.48-.434 1.3 1.3 0 01-.314-.194c-.044-.045-.044-.03-.03 0l.03-.03a1.39 1.39 0 01.344-.209c.344-.15.897-.314 1.615-.449l.478.06A22.872 22.872 0 0013 11.41a33.874 33.874 0 004.634-.344zm0 2.093c.718.135 1.271.3 1.615.449.164.075.299.15.344.21.06.044.044.044.044 0a.374.374 0 000 .014c0-.03 0-.03-.044.015a1.3 1.3 0 01-.314.21c-.33.149-.837.298-1.48.418-.389.075-.927.134-1.405.194l-.927.105a34.113 34.113 0 01-5.472 0l-.538-.075c-.628-.06-1.255-.12-1.749-.224a6.921 6.921 0 01-1.48-.419 1.3 1.3 0 01-.314-.209c-.044-.045-.044-.03-.03 0l.03-.03a1.39 1.39 0 01.344-.21c.344-.149.897-.298 1.615-.448.209.045.493.06.747.09.464.075.912.15 1.465.18a33.71 33.71 0 005.352 0c.628-.045 1.136-.12 1.66-.195l.552-.075zm0 2.093c.718.135 1.271.3 1.615.449.164.074.299.15.344.209.06.045.044.045.044 0l-.044.03a1.3 1.3 0 01-.314.21c-.33.149-.837.298-1.48.418-1.27.254-3.065.403-5.053.403s-3.782-.15-5.053-.403a6.921 6.921 0 01-1.48-.419 1.3 1.3 0 01-.314-.21c-.044-.03-.03-.03-.03 0l.03-.03a1.39 1.39 0 01.344-.208c.344-.15.897-.3 1.615-.449.209.045.493.06.747.09.464.075.912.15 1.465.18a33.71 33.71 0 005.352 0c.628-.046 1.136-.12 1.66-.195z"/><path id="syrup" d="M6.334 8.539c-2.541.747 0 2.242 1.346 2.541.896 0 .597 4.933 1.793 4.933 1.346 0 .748-4.484 2.542-4.484 1.794 0 1.345 1.495 2.69 1.495 1.495-.3 1.047-1.196 1.944-1.495 1.046-.3 3.588-.897 3.887-1.196.299-.15 1.494-2.69-7.774-2.69-2.99 0-3.737.149-6.428.896z" fill="#c87137"/><path id="cherry" d="M14.121 7.941c0 .598-.598 1.345-1.196 1.345S11.88 8.54 11.88 7.941s.598-.897 1.196-.897 1.046.3 1.046.897z" fill="red"/></svg>