<svg xmlns="http://www.w3.org/2000/svg" width="16" height="16" version="1.1" id="svg5">
  <path id="panel-pancakes"
    d="M5 2.11c-.19 0-.3.07-.38.2-.14.25.03.4.23.52.22.11.34-.15.85-.07.51.07 1.2.38 1.83 1.46l.5-.3C7.3 2.73 6.45 2.28 5.78 2.2c-.34-.06-.59-.1-.78-.08zm3 2.33c-1.56 0-2.98.12-4.02.33-.52.11-.95.23-1.27.37-.16.08-.29.16-.4.26a.59.59 0 00-.21.43c0 .17.1.32.2.43.12.11.25.2.41.26.1.05.22.08.34.12-.1.03-.22.07-.3.11a1.4 1.4 0 00-.43.26.7.7 0 00-.22.44c0 .17.1.32.2.42.12.12.25.2.41.27.1.05.22.08.32.12-.09.03-.2.06-.29.11-.17.07-.3.15-.42.25a.7.7 0 00-.22.44v.02a4.9 4.9 0 00-1.5.84c-.37.32-.6.7-.6 1.12 0 .47.29.89.72 1.22.43.35 1.02.63 1.74.87 1.44.47 3.4.76 5.54.76 2.15 0 4.1-.29 5.54-.76.72-.23 1.3-.53 1.74-.87.44-.34.71-.75.71-1.22 0-.42-.23-.8-.58-1.12a4.89 4.89 0 00-1.5-.84h-.02a.61.61 0 00-.2-.46 1.4 1.4 0 00-.43-.26l-.3-.1c.12-.04.24-.07.33-.12.16-.07.29-.16.4-.27a.63.63 0 00.21-.42.6.6 0 00-.22-.44 1.69 1.69 0 00-.42-.27l-.3-.1c.12-.04.24-.07.33-.12.16-.07.29-.16.4-.26a.59.59 0 00.21-.43.61.61 0 00-.2-.43 1.43 1.43 0 00-.41-.26 5.73 5.73 0 00-1.27-.37A21.83 21.83 0 008 4.44zm0 .58c1.54 0 2.92.12 3.9.31.5.1.9.22 1.15.34.11.06.2.11.24.15.05.03.03.03.03 0l-.03.02a1 1 0 01-.24.16c-.25.12-.65.23-1.15.33-.32.07-.76.11-1.16.15-.23.03-.4.07-.64.08a26.12 26.12 0 01-4.2 0c-.2-.01-.36-.05-.57-.07-.44-.05-.89-.1-1.23-.16A5.37 5.37 0 012.95 6a1 1 0 01-.24-.16c-.05-.03-.03-.03-.03 0l.03-.02a.9.9 0 01.24-.15c.25-.12.65-.23 1.15-.34.98-.2 2.36-.3 3.9-.3zm3.78 1.9c.55.11.98.24 1.24.35.13.06.24.12.27.17.05.03.03.03.03 0 0-.02 0-.02-.03.02a1 1 0 01-.24.15c-.26.11-.65.23-1.15.33-.3.06-.71.1-1.08.15l-.72.08a26.36 26.36 0 01-4.23 0l-.41-.05a17.08 17.08 0 01-1.35-.18 5.35 5.35 0 01-1.15-.33 1 1 0 01-.24-.15c-.03-.04-.03-.03-.02 0l.02-.03A1.07 1.07 0 013 7.27c.26-.11.69-.24 1.25-.34l.36.04a17.67 17.67 0 003.4.25 26.17 26.17 0 003.58-.27zm0 1.62c.55.1.98.24 1.24.35.13.06.24.12.27.16.05.04.03.04.03 0a.29.29 0 000 .01c0-.02 0-.02-.03.02a1 1 0 01-.24.16 5.3 5.3 0 01-1.15.32c-.3.06-.71.1-1.08.15l-.72.08a26.36 26.36 0 01-4.23 0l-.41-.06c-.49-.04-.97-.09-1.35-.17a5.35 5.35 0 01-1.15-.32 1 1 0 01-.24-.16c-.03-.04-.03-.03-.02 0l.02-.03A1.07 1.07 0 013 8.9c.26-.12.69-.23 1.25-.35.16.04.38.05.57.07.36.06.7.12 1.13.14a26.04 26.04 0 004.14 0c.48-.03.88-.1 1.28-.15l.43-.06zm0 1.62c.55.1.98.23 1.24.35.13.05.24.11.27.16.05.03.03.03.03 0l-.03.02a1 1 0 01-.24.16 5.3 5.3 0 01-1.15.33c-.98.2-2.36.3-3.9.3s-2.92-.1-3.9-.3a5.35 5.35 0 01-1.15-.33 1 1 0 01-.24-.16c-.03-.02-.02-.02-.02 0l.02-.02a1.07 1.07 0 01.27-.16c.26-.12.69-.23 1.24-.35.16.04.38.05.58.07.36.06.7.12 1.13.14a26.04 26.04 0 004.14 0c.48-.04.88-.1 1.28-.15z" />
  <path id="panel-syrup"
    d="M2.85 4.96c-1.96.58 0 1.73 1.04 1.96.7 0 .46 3.81 1.38 3.81 1.04 0 .58-3.46 1.97-3.46 1.38 0 1.04 1.15 2.08 1.15 1.15-.23.8-.92 1.5-1.15.8-.23 2.77-.7 3-.92.23-.12 1.16-2.08-6-2.08a14 14 0 00-4.97.69z"
    fill="#c87137" />
  <path id="panel-cherry" d="M8.87 4.43c0 .46-.47 1.04-.93 1.04-.46 0-.8-.58-.8-1.04 0-.47.46-.7.92-.7s.8.24.8.7z"
    fill="red" />
</svg>