<svg xmlns="http://www.w3.org/2000/svg" width="301.2" height="747" viewBox="0 0 79.6 197.7" version="1.1" id="svg4">
  <defs id="defs8">
    <filter id="filter1069" color-interpolation-filters="sRGB">
      <feFlood flood-opacity="1" flood-color="red" result="flood" id="feFlood1059" />
      <feComposite in="flood" in2="SourceGraphic" operator="in" result="composite1" id="feComposite1061" />
      <feGaussianBlur in="composite1" stdDeviation="3" result="blur" id="feGaussianBlur1063" />
      <feOffset dx="0" dy="0" result="offset" id="feOffset1065" />
      <feComposite in="SourceGraphic" in2="offset" operator="over" result="composite2" id="feComposite1067" />
    </filter>
    <filter id="filter1081" color-interpolation-filters="sRGB">
      <feFlood flood-opacity="1" flood-color="red" result="flood" id="feFlood1071" />
      <feComposite in="flood" in2="SourceGraphic" operator="in" result="composite1" id="feComposite1073" />
      <feGaussianBlur in="composite1" stdDeviation="3" result="blur" id="feGaussianBlur1075" />
      <feOffset dx="0" dy="0" result="offset" id="feOffset1077" />
      <feComposite in="SourceGraphic" in2="offset" operator="over" result="composite2" id="feComposite1079" />
    </filter>
    <path id="rect865" d="M32.1 33.1h30.4v10H32.1z" />
  </defs>
  <path id="path12" d="M12.7 7A5.2 5.2 0 102.4 7v184.5a5.2 5.2 0 1010.3 0z" />
  <g id="g-syrup" stroke-linejoin="round">
    <path d="M2.4 6.3v184.9a5.2 5.2 0 1010.3 0V6.3z" fill="#e27f2a" stroke-width="1.1" id="path17" />
    <path d="M12.2 6.3a4.6 1.1 0 01-4.7 1.2A4.6 1.1 0 013 6.3a4.6 1.1 0 014.6-1 4.6 1.1 0 014.7 1z" fill="#d1701c"
      stroke-width=".1" id="path19" />
  </g>
  <g id="g-sign-back" stroke-linejoin="round">
    <path d="M15.9 5.3H74v22H15.9z" color="#000" overflow="visible" fill="#333" stroke-width="1.2"
      enable-background="accumulate" transform="translate(2.1)" id="path22" />
    <path
      d="M100.2 0v17.8h-40a2.2 2.2 0 00-2.3 2.2v83a2.2 2.2 0 002.3 2.3h220a2.2 2.2 0 002.2-2.2V20a2.2 2.2 0 00-2.2-2.3h-40V0h-6v17.8h-128V0zM62.4 22.3H278v78.5H62.4z"
      transform="translate(2) scale(.26461)" color="#000" overflow="visible" fill="#474747" stroke-width="4.4"
      enable-background="accumulate" id="path24" />
    <path
      d="M19.3 7.5A1.4 1.4 0 0017.9 9a1.4 1.4 0 001.4 1.5A1.4 1.4 0 0020.7 9a1.4 1.4 0 00-1.4-1.4zm3.6 0A1.4 1.4 0 0021.5 9a1.4 1.4 0 001.4 1.5A1.4 1.4 0 0024.4 9a1.4 1.4 0 00-1.5-1.4zm3.7 0A1.4 1.4 0 0025.2 9a1.4 1.4 0 001.4 1.5A1.4 1.4 0 0028 8.9a1.4 1.4 0 00-1.4-1.4zm3.7 0A1.4 1.4 0 0028.9 9a1.4 1.4 0 001.4 1.5A1.4 1.4 0 0031.7 9a1.4 1.4 0 00-1.4-1.4zm3.7 0A1.4 1.4 0 0032.6 9a1.4 1.4 0 001.4 1.5A1.4 1.4 0 0035.4 9 1.4 1.4 0 0034 7.5zm3.6 0A1.4 1.4 0 0036.2 9a1.4 1.4 0 001.4 1.5A1.4 1.4 0 0039.1 9a1.4 1.4 0 00-1.5-1.4zm3.7 0A1.4 1.4 0 0040 9a1.4 1.4 0 001.4 1.5A1.4 1.4 0 0042.8 9a1.4 1.4 0 00-1.4-1.4zm3.7 0A1.4 1.4 0 0043.6 9a1.4 1.4 0 001.4 1.5A1.4 1.4 0 0046.4 9 1.4 1.4 0 0045 7.5zm3.7 0A1.4 1.4 0 0047.3 9a1.4 1.4 0 001.4 1.5A1.4 1.4 0 0050 8.9a1.4 1.4 0 00-1.4-1.4zm3.6 0A1.4 1.4 0 0051 9a1.4 1.4 0 001.4 1.5A1.4 1.4 0 0053.9 9a1.4 1.4 0 00-1.5-1.4zm3.7 0A1.4 1.4 0 0054.6 9a1.4 1.4 0 001.4 1.5A1.4 1.4 0 0057.4 9 1.4 1.4 0 0056 7.5zm3.7 0A1.4 1.4 0 0058.3 9a1.4 1.4 0 001.4 1.5A1.4 1.4 0 0061 8.9a1.4 1.4 0 00-1.4-1.4zm3.7 0A1.4 1.4 0 0062 9a1.4 1.4 0 001.4 1.5A1.4 1.4 0 0064.8 9a1.4 1.4 0 00-1.4-1.4zm3.6 0A1.4 1.4 0 0065.6 9a1.4 1.4 0 001.4 1.5A1.4 1.4 0 0068.5 9 1.4 1.4 0 0067 7.5zm3.7 0A1.4 1.4 0 0069.3 9a1.4 1.4 0 001.4 1.5A1.4 1.4 0 0072.1 9a1.4 1.4 0 00-1.4-1.4zm-51.4 3.7a1.4 1.4 0 00-1.4 1.4 1.4 1.4 0 001.4 1.4 1.4 1.4 0 001.4-1.4 1.4 1.4 0 00-1.4-1.4zm3.6 0a1.4 1.4 0 00-1.4 1.4A1.4 1.4 0 0023 14a1.4 1.4 0 001.5-1.4 1.4 1.4 0 00-1.5-1.4zm3.7 0a1.4 1.4 0 00-1.4 1.4 1.4 1.4 0 001.4 1.4 1.4 1.4 0 001.4-1.4 1.4 1.4 0 00-1.4-1.4zm3.7 0a1.4 1.4 0 00-1.4 1.4 1.4 1.4 0 001.4 1.4 1.4 1.4 0 001.4-1.4 1.4 1.4 0 00-1.4-1.4zm3.7 0a1.4 1.4 0 00-1.4 1.4A1.4 1.4 0 0034 14a1.4 1.4 0 001.4-1.4 1.4 1.4 0 00-1.4-1.4zm3.6 0a1.4 1.4 0 00-1.4 1.4 1.4 1.4 0 001.4 1.4 1.4 1.4 0 001.5-1.4 1.4 1.4 0 00-1.5-1.4zm3.7 0a1.4 1.4 0 00-1.4 1.4 1.4 1.4 0 001.4 1.4 1.4 1.4 0 001.4-1.4 1.4 1.4 0 00-1.4-1.4zm3.7 0a1.4 1.4 0 00-1.4 1.4A1.4 1.4 0 0045 14a1.4 1.4 0 001.4-1.4 1.4 1.4 0 00-1.4-1.4zm3.7 0a1.4 1.4 0 00-1.4 1.4 1.4 1.4 0 001.4 1.4 1.4 1.4 0 001.4-1.4 1.4 1.4 0 00-1.4-1.4zm3.6 0a1.4 1.4 0 00-1.4 1.4 1.4 1.4 0 001.4 1.4 1.4 1.4 0 001.5-1.4 1.4 1.4 0 00-1.5-1.4zm3.7 0a1.4 1.4 0 00-1.4 1.4A1.4 1.4 0 0056 14a1.4 1.4 0 001.4-1.4 1.4 1.4 0 00-1.4-1.4zm3.7 0a1.4 1.4 0 00-1.4 1.4 1.4 1.4 0 001.4 1.4 1.4 1.4 0 001.4-1.4 1.4 1.4 0 00-1.4-1.4zm3.7 0a1.4 1.4 0 00-1.4 1.4 1.4 1.4 0 001.4 1.4 1.4 1.4 0 001.4-1.4 1.4 1.4 0 00-1.4-1.4zm3.6 0a1.4 1.4 0 00-1.4 1.4A1.4 1.4 0 0067 14a1.4 1.4 0 001.5-1.4 1.4 1.4 0 00-1.5-1.4zm3.7 0a1.4 1.4 0 00-1.4 1.4 1.4 1.4 0 001.4 1.4 1.4 1.4 0 001.4-1.4 1.4 1.4 0 00-1.4-1.4zm-51.4 3.7a1.4 1.4 0 00-1.4 1.4 1.4 1.4 0 001.4 1.4 1.4 1.4 0 001.4-1.4 1.4 1.4 0 00-1.4-1.4zm3.6 0a1.4 1.4 0 00-1.4 1.4 1.4 1.4 0 001.4 1.4 1.4 1.4 0 001.5-1.4 1.4 1.4 0 00-1.5-1.4zm3.7 0a1.4 1.4 0 00-1.4 1.4 1.4 1.4 0 001.4 1.4 1.4 1.4 0 001.4-1.4 1.4 1.4 0 00-1.4-1.4zm3.7 0a1.4 1.4 0 00-1.4 1.4 1.4 1.4 0 001.4 1.4 1.4 1.4 0 001.4-1.4 1.4 1.4 0 00-1.4-1.4zm3.7 0a1.4 1.4 0 00-1.4 1.4 1.4 1.4 0 001.4 1.4 1.4 1.4 0 001.4-1.4 1.4 1.4 0 00-1.4-1.4zm3.6 0a1.4 1.4 0 00-1.4 1.4 1.4 1.4 0 001.4 1.4 1.4 1.4 0 001.5-1.4 1.4 1.4 0 00-1.5-1.4zm3.7 0a1.4 1.4 0 00-1.4 1.4 1.4 1.4 0 001.4 1.4 1.4 1.4 0 001.4-1.4 1.4 1.4 0 00-1.4-1.4zm3.7 0a1.4 1.4 0 00-1.4 1.4 1.4 1.4 0 001.4 1.4 1.4 1.4 0 001.4-1.4 1.4 1.4 0 00-1.4-1.4zm3.7 0a1.4 1.4 0 00-1.4 1.4 1.4 1.4 0 001.4 1.4 1.4 1.4 0 001.4-1.4 1.4 1.4 0 00-1.4-1.4zm3.6 0a1.4 1.4 0 00-1.4 1.4 1.4 1.4 0 001.4 1.4 1.4 1.4 0 001.5-1.4 1.4 1.4 0 00-1.5-1.4zm3.7 0a1.4 1.4 0 00-1.4 1.4 1.4 1.4 0 001.4 1.4 1.4 1.4 0 001.4-1.4 1.4 1.4 0 00-1.4-1.4zm3.7 0a1.4 1.4 0 00-1.4 1.4 1.4 1.4 0 001.4 1.4 1.4 1.4 0 001.4-1.4 1.4 1.4 0 00-1.4-1.4zm3.7 0a1.4 1.4 0 00-1.4 1.4 1.4 1.4 0 001.4 1.4 1.4 1.4 0 001.4-1.4 1.4 1.4 0 00-1.4-1.4zm3.6 0a1.4 1.4 0 00-1.4 1.4 1.4 1.4 0 001.4 1.4 1.4 1.4 0 001.5-1.4 1.4 1.4 0 00-1.5-1.4zm3.7 0a1.4 1.4 0 00-1.4 1.4 1.4 1.4 0 001.4 1.4 1.4 1.4 0 001.4-1.4 1.4 1.4 0 00-1.4-1.4zm-51.4 3.6a1.4 1.4 0 00-1.4 1.5 1.4 1.4 0 001.4 1.4 1.4 1.4 0 001.4-1.4 1.4 1.4 0 00-1.4-1.5zm3.6 0a1.4 1.4 0 00-1.4 1.5 1.4 1.4 0 001.4 1.4 1.4 1.4 0 001.5-1.4 1.4 1.4 0 00-1.5-1.5zm3.7 0a1.4 1.4 0 00-1.4 1.5 1.4 1.4 0 001.4 1.4A1.4 1.4 0 0028 20a1.4 1.4 0 00-1.4-1.5zm3.7 0a1.4 1.4 0 00-1.4 1.5 1.4 1.4 0 001.4 1.4 1.4 1.4 0 001.4-1.4 1.4 1.4 0 00-1.4-1.5zm3.7 0a1.4 1.4 0 00-1.4 1.5 1.4 1.4 0 001.4 1.4 1.4 1.4 0 001.4-1.4 1.4 1.4 0 00-1.4-1.5zm3.6 0a1.4 1.4 0 00-1.4 1.5 1.4 1.4 0 001.4 1.4 1.4 1.4 0 001.5-1.4 1.4 1.4 0 00-1.5-1.5zm3.7 0A1.4 1.4 0 0040 20a1.4 1.4 0 001.4 1.4 1.4 1.4 0 001.4-1.4 1.4 1.4 0 00-1.4-1.5zm3.7 0a1.4 1.4 0 00-1.4 1.5 1.4 1.4 0 001.4 1.4 1.4 1.4 0 001.4-1.4 1.4 1.4 0 00-1.4-1.5zm3.7 0a1.4 1.4 0 00-1.4 1.5 1.4 1.4 0 001.4 1.4A1.4 1.4 0 0050 20a1.4 1.4 0 00-1.4-1.5zm3.6 0A1.4 1.4 0 0051 20a1.4 1.4 0 001.4 1.4 1.4 1.4 0 001.5-1.4 1.4 1.4 0 00-1.5-1.5zm3.7 0a1.4 1.4 0 00-1.4 1.5 1.4 1.4 0 001.4 1.4 1.4 1.4 0 001.4-1.4 1.4 1.4 0 00-1.4-1.5zm3.7 0a1.4 1.4 0 00-1.4 1.5 1.4 1.4 0 001.4 1.4A1.4 1.4 0 0061 20a1.4 1.4 0 00-1.4-1.5zm3.7 0A1.4 1.4 0 0062 20a1.4 1.4 0 001.4 1.4 1.4 1.4 0 001.4-1.4 1.4 1.4 0 00-1.4-1.5zm3.6 0a1.4 1.4 0 00-1.4 1.5 1.4 1.4 0 001.4 1.4 1.4 1.4 0 001.5-1.4 1.4 1.4 0 00-1.5-1.5zm3.7 0a1.4 1.4 0 00-1.4 1.5 1.4 1.4 0 001.4 1.4 1.4 1.4 0 001.4-1.4 1.4 1.4 0 00-1.4-1.5zm-51.4 3.7a1.4 1.4 0 00-1.4 1.4 1.4 1.4 0 001.4 1.5 1.4 1.4 0 001.4-1.5 1.4 1.4 0 00-1.4-1.4zm3.6 0a1.4 1.4 0 00-1.4 1.4 1.4 1.4 0 001.4 1.5 1.4 1.4 0 001.5-1.5 1.4 1.4 0 00-1.5-1.4zm3.7 0a1.4 1.4 0 00-1.4 1.4 1.4 1.4 0 001.4 1.5 1.4 1.4 0 001.4-1.5 1.4 1.4 0 00-1.4-1.4zm3.7 0a1.4 1.4 0 00-1.4 1.4 1.4 1.4 0 001.4 1.5 1.4 1.4 0 001.4-1.5 1.4 1.4 0 00-1.4-1.4zm3.7 0a1.4 1.4 0 00-1.4 1.4 1.4 1.4 0 001.4 1.5 1.4 1.4 0 001.4-1.5 1.4 1.4 0 00-1.4-1.4zm3.6 0a1.4 1.4 0 00-1.4 1.4 1.4 1.4 0 001.4 1.5 1.4 1.4 0 001.5-1.5 1.4 1.4 0 00-1.5-1.4zm3.7 0a1.4 1.4 0 00-1.4 1.4 1.4 1.4 0 001.4 1.5 1.4 1.4 0 001.4-1.5 1.4 1.4 0 00-1.4-1.4zm3.7 0a1.4 1.4 0 00-1.4 1.4 1.4 1.4 0 001.4 1.5 1.4 1.4 0 001.4-1.5 1.4 1.4 0 00-1.4-1.4zm3.7 0a1.4 1.4 0 00-1.4 1.4 1.4 1.4 0 001.4 1.5 1.4 1.4 0 001.4-1.5 1.4 1.4 0 00-1.4-1.4zm3.6 0a1.4 1.4 0 00-1.4 1.4 1.4 1.4 0 001.4 1.5 1.4 1.4 0 001.5-1.5 1.4 1.4 0 00-1.5-1.4zm3.7 0a1.4 1.4 0 00-1.4 1.4 1.4 1.4 0 001.4 1.5 1.4 1.4 0 001.4-1.5 1.4 1.4 0 00-1.4-1.4zm3.7 0a1.4 1.4 0 00-1.4 1.4 1.4 1.4 0 001.4 1.5 1.4 1.4 0 001.4-1.5 1.4 1.4 0 00-1.4-1.4zm3.7 0a1.4 1.4 0 00-1.4 1.4 1.4 1.4 0 001.4 1.5 1.4 1.4 0 001.4-1.5 1.4 1.4 0 00-1.4-1.4zm3.6 0a1.4 1.4 0 00-1.4 1.4 1.4 1.4 0 001.4 1.5 1.4 1.4 0 001.5-1.5 1.4 1.4 0 00-1.5-1.4zm3.7 0a1.4 1.4 0 00-1.4 1.4 1.4 1.4 0 001.4 1.5 1.4 1.4 0 001.4-1.5 1.4 1.4 0 00-1.4-1.4z"
      stroke-width="1.4" transform="translate(2.1)" id="path26" />
    <g color="#000" stroke-width=".8" id="g32">
      <path d="M24 30.9h39.7v15H24z" overflow="visible" fill="#333" enable-background="accumulate"
        transform="translate(3.2)" id="path28" />
      <path
        d="M31.2 27.3v3.2H24a.4.4 0 00-.4.4v15a.4.4 0 00.4.4h39.7a.4.4 0 00.4-.4v-15a.4.4 0 00-.4-.4h-7.2v-3.2h-1v3.2H32.2v-3.2zm-6.8 4h39v14.2h-39z"
        overflow="visible" fill="#474747" enable-background="accumulate" transform="translate(3.2)" id="path30" />
    </g>
  </g>
  <path id="mask"
    d="M0 0v197.7h15V0zm7.5 1.5c3 0 5 1.9 5.2 4.8v184.9c0 3.1-2 5.2-5.2 5.2-3.1 0-5.2-2-5.2-5.2V6.4c.4-3.1 2.3-4.9 5.3-4.9z"
    fill="#000" fill-opacity="1" stroke-width=".1" stroke-linejoin="round" />
  <g id="g-meter" stroke-linejoin="round">
    <path
      d="M28.5 3.9a21.6 21.6 0 00-21.4 20H7v698.7a21.5 21.5 0 0043 0V23.9a21.6 21.6 0 00-21.5-20zm0 4c9.3 0 16.8 7.1 17.4 16.3l-.6.6c-.7.5-2 1.1-3.6 1.6a46.6 46.6 0 01-30-1.6 3 3 0 01-.6-.6c.6-9.2 8.1-16.3 17.4-16.3zm17.5 21v139.6c0 .2-.2.4-.7.8-.7.5-2 1.1-3.6 1.6a46.6 46.6 0 01-30-1.6l-.7-.7V28.9c1 .5 2 1 3 1.3 3.9 1.2 9 2 14.5 2A48.8 48.8 0 0046 28.8zm0 144.5V313c0 .2-.2.4-.7.8-.7.5-2 1.1-3.6 1.6a46.6 46.6 0 01-30-1.6l-.7-.7V173.4c1 .5 2 1 3 1.3 3.9 1.2 9 2 14.5 2a48.8 48.8 0 0017.5-3.3zM46 318v139.6c0 .2-.2.4-.7.8-.7.5-2 1.1-3.6 1.6a46.6 46.6 0 01-30-1.6l-.7-.7V317.9c1 .5 2 1 3 1.3 3.9 1.2 9 2 14.5 2a48.8 48.8 0 0017.5-3.3zm0 144.5V602c0 .2-.2.4-.7.8-.7.5-2 1.1-3.6 1.6a46.6 46.6 0 01-30-1.6l-.7-.7V462.4c1 .5 2 1 3 1.3 3.9 1.2 9 2 14.5 2a48.8 48.8 0 0017.5-3.3zM46 607v115.7a17.5 17.5 0 11-35 0V606.9c1 .5 2 1 3 1.3 3.9 1.2 9 2 14.5 2a48.8 48.8 0 0017.5-3.3z"
      transform="scale(.26507 .26461)" color="#000" overflow="visible" fill="#7a3208" stroke-width="4"
      enable-background="accumulate" id="path35" />
    <path
      d="M12.2 160.6l-.9.3c-.8.3-2 .5-3.1.5l4 4zm-9.3 0v7.7l9.3 9.2v-8l-8.8-8.7a5 5 0 01-.5-.2zm0 11.9v7.9l9.3 9.3v-8zm0 12v6.7c0 .6.1 1.1.3 1.6l2.7 2.8a4.6 4.6 0 005.7-2.3z"
      fill="red" fill-opacity=".6" stroke-width=".1" transform="scale(1.00175 1)" id="path37" />
    <path
      d="M12.2 122.4l-.9.3a13 13 0 01-5 .5l5.9 5.8zm-9.3 1.5v8l9.3 9.2v-8zm0 12.2v7.9l9.3 9.3v-8zm0 12v8l4.3 4.3h.3a12 12 0 003.5-.5l1-.4.2-.2v-1.8z"
      fill="#ff0" fill-opacity=".6" stroke-width=".1" transform="scale(1.00175 1)" id="path39" />
    <path
      d="M12.2 7.7l-.9.3a13 13 0 01-5 .5l5.9 5.8zM2.9 9.2v8L9 23.3l2-.4.9-.4.2-.2v-4zm0 12.1v1c0 .1 0 .2.2.3l1 .4.6.2z"
      fill="#0f0" fill-opacity=".6" stroke-width=".1" transform="scale(1.00175 1)" id="path41" />
  </g>
  <path id="full"
    d="M77.4 227.8a5.3 5.3 0 00-5.3 5.4 5.3 5.3 0 005.4 5.3 5.3 5.3 0 005.3-5.3 5.3 5.3 0 00-5.3-5.4zm14 0a5.3 5.3 0 00-5.4 5.4 5.3 5.3 0 005.3 5.3 5.3 5.3 0 005.4-5.3 5.3 5.3 0 00-5.4-5.4zm13.8 0a5.3 5.3 0 00-5.3 5.4 5.3 5.3 0 005.3 5.3 5.3 5.3 0 005.4-5.3 5.3 5.3 0 00-5.4-5.4zm27.8 0a5.3 5.3 0 00-5.3 5.4 5.3 5.3 0 005.3 5.3 5.3 5.3 0 005.3-5.3 5.3 5.3 0 00-5.3-5.4zm27.7 0a5.3 5.3 0 00-5.3 5.4 5.3 5.3 0 005.4 5.3 5.3 5.3 0 005.3-5.3 5.3 5.3 0 00-5.3-5.4zm27.8 0a5.3 5.3 0 00-5.3 5.4 5.3 5.3 0 005.3 5.3 5.3 5.3 0 005.4-5.3 5.3 5.3 0 00-5.4-5.4zm55.5 0a5.3 5.3 0 00-5.3 5.4 5.3 5.3 0 005.4 5.3 5.3 5.3 0 005.3-5.3 5.3 5.3 0 00-5.3-5.4zM77.4 241.7a5.3 5.3 0 00-5.3 5.3 5.3 5.3 0 005.4 5.4 5.3 5.3 0 005.3-5.4 5.3 5.3 0 00-5.3-5.3zm55.6 0a5.3 5.3 0 00-5.3 5.3 5.3 5.3 0 005.3 5.4 5.3 5.3 0 005.3-5.4 5.3 5.3 0 00-5.3-5.3zm27.7 0a5.3 5.3 0 00-5.3 5.3 5.3 5.3 0 005.4 5.4 5.3 5.3 0 005.3-5.4 5.3 5.3 0 00-5.3-5.3zm27.8 0a5.3 5.3 0 00-5.3 5.3 5.3 5.3 0 005.3 5.4 5.3 5.3 0 005.4-5.4 5.3 5.3 0 00-5.4-5.3zm55.5 0a5.3 5.3 0 00-5.3 5.3 5.3 5.3 0 005.4 5.4 5.3 5.3 0 005.3-5.4 5.3 5.3 0 00-5.3-5.3zM77.4 255.6a5.3 5.3 0 00-5.3 5.3 5.3 5.3 0 005.4 5.4 5.3 5.3 0 005.3-5.4 5.3 5.3 0 00-5.3-5.3zm14 0a5.3 5.3 0 00-5.4 5.3 5.3 5.3 0 005.3 5.4 5.3 5.3 0 005.4-5.4 5.3 5.3 0 00-5.4-5.3zm13.8 0a5.3 5.3 0 00-5.3 5.3 5.3 5.3 0 005.3 5.4 5.3 5.3 0 005.4-5.4 5.3 5.3 0 00-5.4-5.3zm27.8 0a5.3 5.3 0 00-5.3 5.3 5.3 5.3 0 005.3 5.4 5.3 5.3 0 005.3-5.4 5.3 5.3 0 00-5.3-5.3zm27.7 0a5.3 5.3 0 00-5.3 5.3 5.3 5.3 0 005.4 5.4 5.3 5.3 0 005.3-5.4 5.3 5.3 0 00-5.3-5.3zm27.8 0a5.3 5.3 0 00-5.3 5.3 5.3 5.3 0 005.3 5.4 5.3 5.3 0 005.4-5.4 5.3 5.3 0 00-5.4-5.3zm55.5 0a5.3 5.3 0 00-5.3 5.3 5.3 5.3 0 005.4 5.4 5.3 5.3 0 005.3-5.4 5.3 5.3 0 00-5.3-5.3zM77.4 269.5a5.3 5.3 0 00-5.3 5.3 5.3 5.3 0 005.4 5.4 5.3 5.3 0 005.3-5.4 5.3 5.3 0 00-5.3-5.3zm55.6 0a5.3 5.3 0 00-5.3 5.3 5.3 5.3 0 005.3 5.4 5.3 5.3 0 005.3-5.4 5.3 5.3 0 00-5.3-5.3zm27.7 0a5.3 5.3 0 00-5.3 5.3 5.3 5.3 0 005.4 5.4 5.3 5.3 0 005.3-5.4 5.3 5.3 0 00-5.3-5.3zm27.8 0a5.3 5.3 0 00-5.3 5.3 5.3 5.3 0 005.3 5.4 5.3 5.3 0 005.4-5.4 5.3 5.3 0 00-5.4-5.3zm55.5 0a5.3 5.3 0 00-5.3 5.3 5.3 5.3 0 005.4 5.4 5.3 5.3 0 005.3-5.4 5.3 5.3 0 00-5.3-5.3zM77.4 283.3a5.3 5.3 0 00-5.3 5.4 5.3 5.3 0 005.4 5.3 5.3 5.3 0 005.3-5.3 5.3 5.3 0 00-5.3-5.4zm55.6 0a5.3 5.3 0 00-5.3 5.4 5.3 5.3 0 005.3 5.3 5.3 5.3 0 005.3-5.3 5.3 5.3 0 00-5.3-5.4zm13.8 0a5.3 5.3 0 00-5.3 5.4 5.3 5.3 0 005.4 5.3 5.3 5.3 0 005.3-5.3 5.3 5.3 0 00-5.3-5.4zm14 0a5.3 5.3 0 00-5.4 5.4 5.3 5.3 0 005.4 5.3 5.3 5.3 0 005.3-5.3 5.3 5.3 0 00-5.3-5.4zm27.7 0a5.3 5.3 0 00-5.3 5.4 5.3 5.3 0 005.3 5.3 5.3 5.3 0 005.4-5.3 5.3 5.3 0 00-5.4-5.4zm13.9 0a5.3 5.3 0 00-5.3 5.4 5.3 5.3 0 005.3 5.3 5.3 5.3 0 005.4-5.3 5.3 5.3 0 00-5.4-5.4zm13.9 0a5.3 5.3 0 00-5.3 5.4 5.3 5.3 0 005.3 5.3 5.3 5.3 0 005.4-5.3 5.3 5.3 0 00-5.4-5.4zm27.7 0a5.3 5.3 0 00-5.3 5.4 5.3 5.3 0 005.4 5.3 5.3 5.3 0 005.3-5.3 5.3 5.3 0 00-5.3-5.4zm14 0a5.3 5.3 0 00-5.4 5.4 5.3 5.3 0 005.4 5.3 5.3 5.3 0 005.3-5.3 5.3 5.3 0 00-5.3-5.4zm13.8 0a5.3 5.3 0 00-5.3 5.4 5.3 5.3 0 005.4 5.3 5.3 5.3 0 005.3-5.3 5.3 5.3 0 00-5.3-5.4z"
    transform="translate(.9 -52.8) scale(.26461)" fill="red" fill-opacity="1" stroke="none" stroke-width="5.3"
    stroke-linejoin="round" stroke-miterlimit="4" stroke-dasharray="none" stroke-opacity="1"
    filter="url(#filter1081)" />
  <path id="low"
    d="M79.5 332.5a5.3 5.3 0 00-5.3 5.3 5.3 5.3 0 005.4 5.3 5.3 5.3 0 00.4 0 5.3 5.3 0 005-5.3 5.3 5.3 0 00-5.4-5.3zm55.6 0a5.3 5.3 0 00-5.3 5.3 5.3 5.3 0 005.3 5.3 5.3 5.3 0 005.4-5.3 5.3 5.3 0 00-5.4-5.3zm13.9 0a5.3 5.3 0 00-5.3 5.3 5.3 5.3 0 005.3 5.3 5.3 5.3 0 005.4-5.3 5.3 5.3 0 00-5.4-5.3zm13.9 0a5.3 5.3 0 00-5.4 5.3 5.3 5.3 0 005.4 5.3 5.3 5.3 0 005.3-5.3 5.3 5.3 0 00-5.3-5.3zm27.7 0a5.3 5.3 0 00-5.3 5.3 5.3 5.3 0 005.4 5.3 5.3 5.3 0 005.3-5.3 5.3 5.3 0 00-5.3-5.3zm55.6 0a5.3 5.3 0 00-5.3 5.3 5.3 5.3 0 005.3 5.3 5.3 5.3 0 005.3-5.3 5.3 5.3 0 00-5.3-5.3zM79.5 346.3a5.3 5.3 0 00-5.3 5.4 5.3 5.3 0 005.4 5.3 5.3 5.3 0 005.3-5.3 5.3 5.3 0 00-5.3-5.4zm55.6 0a5.3 5.3 0 00-5.3 5.4 5.3 5.3 0 005.3 5.3 5.3 5.3 0 005.4-5.3 5.3 5.3 0 00-5.4-5.4zm27.8 0a5.3 5.3 0 00-5.4 5.4 5.3 5.3 0 005.4 5.3 5.3 5.3 0 005.3-5.3 5.3 5.3 0 00-5.3-5.4zm27.7 0a5.3 5.3 0 00-5.3 5.4 5.3 5.3 0 005.4 5.3 5.3 5.3 0 005.3-5.3 5.3 5.3 0 00-5.3-5.4zm55.6 0a5.3 5.3 0 00-5.3 5.4 5.3 5.3 0 005.3 5.3 5.3 5.3 0 005.3-5.3 5.3 5.3 0 00-5.3-5.4zm-166.7 14a5.3 5.3 0 00-5.3 5.3 5.3 5.3 0 005.4 5.3 5.3 5.3 0 005.3-5.3 5.3 5.3 0 00-5.3-5.4zm55.6 0a5.3 5.3 0 00-5.3 5.3 5.3 5.3 0 005.3 5.3 5.3 5.3 0 005.4-5.3 5.3 5.3 0 00-5.4-5.4zm27.8 0a5.3 5.3 0 00-5.4 5.3 5.3 5.3 0 005.4 5.3 5.3 5.3 0 005.3-5.3 5.3 5.3 0 00-5.3-5.4zm27.7 0a5.3 5.3 0 00-5.3 5.3 5.3 5.3 0 005.4 5.3 5.3 5.3 0 005.3-5.3 5.3 5.3 0 00-5.3-5.4zm27.8 0a5.3 5.3 0 00-5.3 5.3 5.3 5.3 0 005.3 5.3 5.3 5.3 0 005.4-5.3 5.3 5.3 0 00-5.4-5.4zm27.8 0a5.3 5.3 0 00-5.3 5.3 5.3 5.3 0 005.3 5.3 5.3 5.3 0 005.3-5.3 5.3 5.3 0 00-5.3-5.4zM79.5 374a5.3 5.3 0 00-5.3 5.4 5.3 5.3 0 005.4 5.3 5.3 5.3 0 005.3-5.3 5.3 5.3 0 00-5.3-5.4zm55.6 0a5.3 5.3 0 00-5.3 5.4 5.3 5.3 0 005.3 5.3 5.3 5.3 0 005.4-5.3 5.3 5.3 0 00-5.4-5.4zm27.8 0a5.3 5.3 0 00-5.4 5.4 5.3 5.3 0 005.4 5.3 5.3 5.3 0 005.3-5.3 5.3 5.3 0 00-5.3-5.4zm27.7 0a5.3 5.3 0 00-5.3 5.4 5.3 5.3 0 005.4 5.3 5.3 5.3 0 005.3-5.3 5.3 5.3 0 00-5.3-5.4zm14 0a5.3 5.3 0 00-5.4 5.4 5.3 5.3 0 005.3 5.3 5.3 5.3 0 005.4-5.3 5.3 5.3 0 00-5.4-5.4zm27.7 0a5.3 5.3 0 00-5.3 5.4 5.3 5.3 0 005.3 5.3 5.3 5.3 0 005.4-5.3 5.3 5.3 0 00-5.4-5.4zm13.9 0a5.3 5.3 0 00-5.3 5.4 5.3 5.3 0 005.3 5.3 5.3 5.3 0 005.3-5.3 5.3 5.3 0 00-5.3-5.4zM79.5 388a5.3 5.3 0 00-5.3 5.3 5.3 5.3 0 005.4 5.4 5.3 5.3 0 005.3-5.4 5.3 5.3 0 00-5.3-5.3zm14 0a5.3 5.3 0 00-5.4 5.3 5.3 5.3 0 005.4 5.4 5.3 5.3 0 005.3-5.4 5.3 5.3 0 00-5.3-5.3zm13.8 0a5.3 5.3 0 00-5.3 5.3 5.3 5.3 0 005.3 5.4 5.3 5.3 0 005.4-5.4 5.3 5.3 0 00-5.4-5.3zm27.8 0a5.3 5.3 0 00-5.3 5.3 5.3 5.3 0 005.3 5.4 5.3 5.3 0 005.4-5.4 5.3 5.3 0 00-5.4-5.3zm13.9 0a5.3 5.3 0 00-5.3 5.3 5.3 5.3 0 005.3 5.4 5.3 5.3 0 005.4-5.4 5.3 5.3 0 00-5.4-5.3zm13.9 0a5.3 5.3 0 00-5.4 5.3 5.3 5.3 0 005.4 5.4 5.3 5.3 0 005.3-5.4 5.3 5.3 0 00-5.3-5.3zm27.7 0a5.3 5.3 0 00-5.3 5.3 5.3 5.3 0 005.4 5.4 5.3 5.3 0 005.3-5.4 5.3 5.3 0 00-5.3-5.3zm55.6 0a5.3 5.3 0 00-5.3 5.3 5.3 5.3 0 005.3 5.4 5.3 5.3 0 005.3-5.4 5.3 5.3 0 00-5.3-5.3z"
    transform="translate(4 -80.4) scale(.26461)" fill="red" fill-opacity="1" stroke="none" stroke-width="5.3"
    stroke-linejoin="round" stroke-miterlimit="4" stroke-dasharray="none" stroke-opacity="1"
    filter="url(#filter1069)" />
  <g id="button">
    <path d="M32.1 33h30c1.5 0 2.8 1.4 2.8 3v4.7c0 1.6-1.3 3-2.8 3H32a2.9 2.9 0 01-2.8-3v-4.6c0-1.7 1.3-3 2.8-3z"
      fill="red" stroke-width=".5" stroke-linejoin="round" stroke="#fff" id="path47" />
    <g transform="translate(-1.7)" fill="#fff" id="g60">
      <g aria-label="ReFill" transform="translate(2.6 1)" id="text863" font-variant="normal" font-weight="400"
        font-stretch="normal" font-size="7.4" font-family="Cooper Black" letter-spacing="0" word-spacing="0">
        <path
          d="M34.6 37.7h-.1V39l.2.2q.2.1.2.3 0 .2-.3.3l-1 .1q-1.4 0-1.4-.5v-.1l.3-.1.2-.3v-3q0-.2-.2-.3l-.2-.1v-.4l.3-.2h2.7q.8 0 1.3.3.4.4.4 1l-.1.6q-.2.3-.5.4v.2q.5.1.6.4l.3.9v.3l.4.1v.1l.1.2v.2l-.3.2-.8.1q-.7 0-1-.4-.2-.1-.2-.4l-.3-.8q0-.3-.2-.5l-.4-.1zm-.2-1.8v1h.2l.5-.1.1-.5q0-.7-.5-.7h-.2v.3z"
          id="path898" />
        <path
          d="M41.3 38.2h-1.9q0 .3.3.5l.6.2h.3l.4-.2.2-.1.2.1v.2q0 .3-.3.5-.5.5-1.3.5t-1.3-.5l-.4-.5q-.2-.4-.2-.9 0-.6.4-1 .3-.5.8-.7l.8-.1q.7 0 1.2.4l.3.4.2.6v.4l-.3.2zm-1.6-.7h.3q.3 0 .3-.2l-.2-.4h-.6v.5h.2z"
          id="path900" />
        <path
          d="M44.5 35.6l-.3.1v.4l-.1.5v.2h.7l.1-.2q.1-.4.4-.4.4 0 .4 1 0 .7-.2 1 0 .2-.3.2-.2 0-.2-.3v-.3l-.2-.1-.3-.1H44v.6l.1.8h.4l.2.2v.2q0 .3-.3.3l-1.3.1h-1l-.2-.2v-.5h.2q.2-.1.3-.4v-3q0-.2-.2-.2l-.3-.2v-.1l.1-.3.4-.1h3.7l.2.1q.4.4.4 1l-.1.3-.3.1H46l-.3-.4-.4-.2-.9-.1z"
          id="path902" />
        <path
          d="M48.8 36.4V39l.3.2.1.1v.2q0 .4-1.1.4h-1q-.2 0-.2-.2l-.1-.2v-.1l.2-.2.2-.3v-1.4l-.2-.2q-.2-.1-.2-.3 0-.2.3-.3l.8-.3.7-.1q.2 0 .2.2zm-.7-1.6q.3 0 .5.2.2 0 .2.3 0 .2-.3.4-.4.3-1 .3l-.5-.1-.2-.4q0-.3.5-.5l.8-.2z"
          id="path904" />
        <path
          d="M51.5 36.9V39l.2.2h.2v.4l-.3.2h-1.8l-.2-.2-.1-.2v-.1l.2-.2q.2 0 .2-.3v-2.5q0-.2-.2-.3l-.2-.2-.1-.2q0-.2.2-.3l.5-.3.7-.1h.5q.3 0 .3.3v1.7z"
          id="path906" />
        <path
          d="M54.2 36.9V39l.2.2h.2v.4l-.2.2h-2l-.1-.2-.1-.2v-.1l.2-.2q.2 0 .2-.3v-2.5q0-.2-.2-.3l-.2-.2-.1-.2q0-.2.2-.3l.5-.3.7-.1h.5q.3 0 .3.3v1.7z"
          id="path908" />
      </g>
      <g id="g10" transform="translate(57.6 34.7) scale(.00682)">
        <g transform="matrix(.1 0 0 -.1 0 511)" id="g8" fill="#fff">
          <path d="M4132.9 4515.9v-494.1h1734.2V5010H4132.9z" id="path4" />
          <path
            d="M3675.1 3765.8c-60.5-22.2-12.1-98.8 217.8-350.9 310.5-342.8 314.6-350.9 163.3-296.4-375.1 133.1-845 20.2-1141.4-276.3-215.8-215.8-322.7-473.9-322.7-786.5 0-306.5 117-586.8 332.7-796.5l86.7-82.7-223.8-217.8c-258.1-252.1-354.9-413.4-389.2-657.4-26.2-193.6-26.2-4025.1 0-4311.4 28.2-290.4 78.7-419.4 211.7-552.5 125-121 266.2-175.4 552.5-207.7 235.9-26.2 3448.3-26.2 3672.2 0 292.4 36.3 431.6 86.7 552.5 207.7 139.1 135.1 187.5 262.2 213.8 564.6 26.2 306.5 26.2 4136 0 4309.4-42.3 264.2-119 379.1-550.5 810.7-816.7 818.7-1272.5 1415.6-1300.7 1706-12.1 143.2 52.4 250.1 352.9 580.8 240 264.2 282.3 332.7 217.8 358.9-32.3 12.1-300.5-16.1-475.9-48.4-538.4-102.9-1058.7-102.9-1691.9-2-276.1 46.4-443.5 62.5-477.8 48.4zm308.6-1127.3c159.3-74.6 165.4-88.7 88.7-213.8-90.7-147.2-262.1-369-488-631.2-260.1-302.5-235.9-288.4-336.8-187.5-135.1 137.1-173.4 235.9-173.4 449.7 0 151.3 8.1 197.6 48.4 280.3 159.3 322.7 542.4 457.8 861.1 302.5zM5191.6 127.9c123-231.9 197.6-352.9 227.9-367 40.3-18.2 72.6-8.1 217.8 62.5 92.8 46.4 169.4 74.6 169.4 62.5 0-12.1-44.4-262.1-100.8-556.6-106.9-564.6-106.9-611-12.1-611 34.3 0 108.9 70.6 286.3 272.2 131.1 149.2 244 272.2 252.1 272.2 6.1 0 28.2-56.5 46.4-125 40.3-147.2 62.5-177.5 121-177.5 22.2 0 165.3 26.2 314.6 58.5 149.2 32.3 274.2 56.5 276.3 54.4 2 0-38.3-153.3-88.7-338.8-50.4-183.5-86.7-348.9-80.7-367 6.1-16.1 68.6-58.5 135.1-92.8l123-62.5-459.8-373.1c-518.3-421.5-590.8-486-590.8-518.3 0-14.1 20.2-90.7 42.3-171.4 24.2-80.7 38.3-151.2 32.3-157.3-6-6.1-233.9 14.1-506.2 44.3-272.2 30.2-500.1 50.4-508.2 42.4-14.1-12.1 22.2-822.8 44.4-1006.3l12.1-96.8h-290.5l10.1 106.9c24.2 213.8 60.5 984.1 46.4 996.2-6.1 8.1-235.9-12.1-508.2-42.4-272.2-30.2-500.1-50.4-506.2-44.3-6 6 8.1 80.7 32.3 163.3 42.3 141.2 44.4 157.3 14.1 201.7-16.1 26.2-254.1 229.9-526.3 451.7l-496.1 403.3 123 62.5c66.5 34.3 129.1 76.6 135.1 92.8 6 18.2-30.3 183.5-80.7 367-50.4 185.5-90.7 336.8-88.7 338.8s127.1-22.2 276.3-54.4c149.2-32.3 292.4-58.5 314.6-58.5 58.5 0 80.7 30.2 121 177.5 18.1 68.6 40.3 125 46.4 125 6.1 0 121-123 252.1-272.2 177.5-199.6 254.1-272.2 288.4-272.2 92.8 0 92.8 46.4-14.1 611-56.5 294.4-100.8 544.5-100.8 556.6 0 12.1 76.6-16.2 169.4-62.5 145.2-70.6 177.5-80.7 217.8-62.5 30.2 14.1 104.9 135.1 227.9 367 100.8 189.6 185.5 344.8 191.6 344.8 5.8.1 92.5-155.1 191.4-344.7z"
            id="path6" />
        </g>
      </g>
    </g>
  </g>
</svg>