<?xml version="1.0" encoding="UTF-8" standalone="no"?>
<svg
   xmlns:dc="http://purl.org/dc/elements/1.1/"
   xmlns:cc="http://creativecommons.org/ns#"
   xmlns:rdf="http://www.w3.org/1999/02/22-rdf-syntax-ns#"
   xmlns:svg="http://www.w3.org/2000/svg"
   xmlns="http://www.w3.org/2000/svg"
   xmlns:sodipodi="http://sodipodi.sourceforge.net/DTD/sodipodi-0.dtd"
   xmlns:inkscape="http://www.inkscape.org/namespaces/inkscape"
   width="301.22913"
   height="747.00006"
   viewBox="0 0 79.635286 197.66398"
   version="1.1"
   id="svg4"
   sodipodi:docname="syrup.svg"
   inkscape:version="1.0.1 (3bc2e813f5, 2020-09-07)">
  <metadata
     id="metadata10">
    <rdf:RDF>
      <cc:Work
         rdf:about="">
        <dc:format>image/svg+xml</dc:format>
        <dc:type
           rdf:resource="http://purl.org/dc/dcmitype/StillImage" />
        <dc:title />
      </cc:Work>
    </rdf:RDF>
  </metadata>
  <defs
     id="defs8">
    <rect
       x="32.137037"
       y="33.09013"
       width="30.413986"
       height="10.038218"
       id="rect865" />
    <filter
       style="color-interpolation-filters:sRGB"
       inkscape:label="Drop Shadow"
       id="filter1069">
      <feFlood
         flood-opacity="1"
         flood-color="rgb(255,0,0)"
         result="flood"
         id="feFlood1059" />
      <feComposite
         in="flood"
         in2="SourceGraphic"
         operator="in"
         result="composite1"
         id="feComposite1061" />
      <feGaussianBlur
         in="composite1"
         stdDeviation="3.03951"
         result="blur"
         id="feGaussianBlur1063" />
      <feOffset
         dx="0"
         dy="-2.77556e-17"
         result="offset"
         id="feOffset1065" />
      <feComposite
         in="SourceGraphic"
         in2="offset"
         operator="over"
         result="composite2"
         id="feComposite1067" />
    </filter>
    <filter
       style="color-interpolation-filters:sRGB"
       inkscape:label="Drop Shadow"
       id="filter1081">
      <feFlood
         flood-opacity="1"
         flood-color="rgb(255,0,0)"
         result="flood"
         id="feFlood1071" />
      <feComposite
         in="flood"
         in2="SourceGraphic"
         operator="in"
         result="composite1"
         id="feComposite1073" />
      <feGaussianBlur
         in="composite1"
         stdDeviation="3.03951"
         result="blur"
         id="feGaussianBlur1075" />
      <feOffset
         dx="0"
         dy="-2.77556e-17"
         result="offset"
         id="feOffset1077" />
      <feComposite
         in="SourceGraphic"
         in2="offset"
         operator="over"
         result="composite2"
         id="feComposite1079" />
    </filter>
  </defs>
  <sodipodi:namedview
     pagecolor="#ffffff"
     bordercolor="#666666"
     borderopacity="1"
     objecttolerance="10"
     gridtolerance="10"
     guidetolerance="10"
     inkscape:pageopacity="0"
     inkscape:pageshadow="2"
     inkscape:window-width="1920"
     inkscape:window-height="1013"
     id="namedview6"
     showgrid="false"
     inkscape:zoom="1.4142136"
     inkscape:cx="80.4349"
     inkscape:cy="215.8276"
     inkscape:window-x="-9"
     inkscape:window-y="-9"
     inkscape:window-maximized="1"
     inkscape:current-layer="svg4"
     inkscape:document-rotation="0"
     fit-margin-top="0"
     fit-margin-left="0"
     fit-margin-right="0"
     fit-margin-bottom="0" />
  <path
     id="path12"
     d="m 12.671926,6.9940869 c 1.1e-5,-2.85804 -2.310489,-5.174942 -5.1606321,-5.174929 -2.850144,-1.3e-5 -5.160644,2.316889 -5.160631,5.174929 V 191.4594 c -1.3e-5,2.85803 2.310487,5.17494 5.160631,5.17493 2.8501431,1e-5 5.1606431,-2.3169 5.1606321,-5.17493 z"
     sodipodi:nodetypes="ccccscc" />
  <g
     id="g-syrup">
    <path
       d="M 2.3596674,6.308047 V 191.19668 c -1.3e-5,2.85803 2.310487,5.17494 5.160631,5.17493 2.8501436,1e-5 5.1606436,-2.3169 5.1606326,-5.17493 V 6.308047 Z"
       sodipodi:nodetypes="ccsccc"
       style="fill:#e27f2a;fill-opacity:1;stroke:none;stroke-width:1.05698;stroke-linejoin:round;stroke-miterlimit:4;stroke-dasharray:none;stroke-opacity:1" />
    <path
       style="fill:#d1701c;fill-opacity:1;stroke-width:0.133638;stroke-linejoin:round"
       d="M 12.152627,6.3380804 A 4.6320047,1.1164904 0 0 1 7.5206223,7.4545708 4.6320047,1.1164904 0 0 1 2.8886175,6.3380804 4.6320047,1.1164904 0 0 1 7.5206223,5.22159 4.6320047,1.1164904 0 0 1 12.152627,6.3380804 Z" />
  </g>
  <g
     id="g-sign-back"
     transform="translate(2.1168832)">
    <g>
      <path
         style="color:#000000;font-style:normal;font-variant:normal;font-weight:normal;font-stretch:normal;font-size:medium;line-height:normal;font-family:sans-serif;font-variant-ligatures:normal;font-variant-position:normal;font-variant-caps:normal;font-variant-numeric:normal;font-variant-alternates:normal;font-variant-east-asian:normal;font-feature-settings:normal;font-variation-settings:normal;text-indent:0;text-align:start;text-decoration:none;text-decoration-line:none;text-decoration-style:solid;text-decoration-color:#000000;letter-spacing:normal;word-spacing:normal;text-transform:none;writing-mode:lr-tb;direction:ltr;text-orientation:mixed;dominant-baseline:auto;baseline-shift:baseline;text-anchor:start;white-space:normal;shape-padding:0;shape-margin:0;inline-size:0;clip-rule:nonzero;display:inline;overflow:visible;visibility:visible;isolation:auto;mix-blend-mode:normal;color-interpolation:sRGB;color-interpolation-filters:linearRGB;solid-color:#000000;solid-opacity:1;vector-effect:none;fill:#333333;fill-opacity:1;fill-rule:nonzero;stroke:none;stroke-width:1.17508;stroke-linecap:butt;stroke-linejoin:round;stroke-miterlimit:4;stroke-dasharray:none;stroke-dashoffset:0;stroke-opacity:1;color-rendering:auto;image-rendering:auto;shape-rendering:auto;text-rendering:auto;enable-background:accumulate;stop-color:#000000"
         d="M 15.884941,5.3033125 H 74.104397 V 27.27115 H 15.884941 Z" />
      <path
         style="color:#000000;font-style:normal;font-variant:normal;font-weight:normal;font-stretch:normal;font-size:medium;line-height:normal;font-family:sans-serif;font-variant-ligatures:normal;font-variant-position:normal;font-variant-caps:normal;font-variant-numeric:normal;font-variant-alternates:normal;font-variant-east-asian:normal;font-feature-settings:normal;font-variation-settings:normal;text-indent:0;text-align:start;text-decoration:none;text-decoration-line:none;text-decoration-style:solid;text-decoration-color:#000000;letter-spacing:normal;word-spacing:normal;text-transform:none;writing-mode:lr-tb;direction:ltr;text-orientation:mixed;dominant-baseline:auto;baseline-shift:baseline;text-anchor:start;white-space:normal;shape-padding:0;shape-margin:0;inline-size:0;clip-rule:nonzero;display:inline;overflow:visible;visibility:visible;isolation:auto;mix-blend-mode:normal;color-interpolation:sRGB;color-interpolation-filters:linearRGB;solid-color:#000000;solid-opacity:1;vector-effect:none;fill:#474747;fill-opacity:1;fill-rule:nonzero;stroke:none;stroke-width:4.44079;stroke-linecap:butt;stroke-linejoin:round;stroke-miterlimit:4;stroke-dasharray:none;stroke-dashoffset:0;stroke-opacity:1;color-rendering:auto;image-rendering:auto;shape-rendering:auto;text-rendering:auto;enable-background:accumulate;stop-color:#000000"
         d="M 100.16797,0 V 17.824219 H 60.167969 a 2.2206185,2.2206185 0 0 0 -2.220703,2.214843 V 103.0625 a 2.2206185,2.2206185 0 0 0 2.220703,2.2207 H 280.18555 a 2.2206185,2.2206185 0 0 0 2.2207,-2.2207 V 20.039062 a 2.2206185,2.2206185 0 0 0 -2.2207,-2.214843 h -39.9961 V 0 h -6 V 17.824219 H 106.16797 V 0 Z M 62.390625,22.259766 H 277.9707 V 100.83984 H 62.390625 Z"
         transform="matrix(0.26461039,0,0,0.26461039,-0.03638566,0)" />
      <path
         style="fill:#000000;fill-opacity:1;stroke:none;stroke-width:1.41445;stroke-linejoin:round;stroke-miterlimit:4;stroke-dasharray:none;stroke-opacity:1"
         d="m 19.265702,7.5243413 a 1.4144506,1.4144506 0 0 0 -1.404709,1.4145285 1.4144506,1.4144506 0 0 0 1.414528,1.4145282 1.4144506,1.4144506 0 0 0 1.414012,-1.4145282 1.4144506,1.4144506 0 0 0 -1.414012,-1.4145285 1.4144506,1.4144506 0 0 0 -0.0098,0 z m 3.674053,0 a 1.4144506,1.4144506 0 0 0 -1.404709,1.4145285 1.4144506,1.4144506 0 0 0 1.414529,1.4145282 1.4144506,1.4144506 0 0 0 1.414528,-1.4145282 1.4144506,1.4144506 0 0 0 -1.414528,-1.4145285 1.4144506,1.4144506 0 0 0 -0.0098,0 z m 3.674052,0 a 1.4144506,1.4144506 0 0 0 -1.404708,1.4145285 1.4144506,1.4144506 0 0 0 1.414528,1.4145282 1.4144506,1.4144506 0 0 0 1.414531,-1.4145282 1.4144506,1.4144506 0 0 0 -1.414531,-1.4145285 1.4144506,1.4144506 0 0 0 -0.0098,0 z m 3.674571,0 a 1.4144506,1.4144506 0 0 0 -1.404708,1.4145285 1.4144506,1.4144506 0 0 0 1.414012,1.4145282 1.4144506,1.4144506 0 0 0 1.414527,-1.4145282 1.4144506,1.4144506 0 0 0 -1.414527,-1.4145285 1.4144506,1.4144506 0 0 0 -0.0093,0 z m 3.674054,0 a 1.4144506,1.4144506 0 0 0 -1.40471,1.4145285 1.4144506,1.4144506 0 0 0 1.41453,1.4145282 1.4144506,1.4144506 0 0 0 1.414012,-1.4145282 1.4144506,1.4144506 0 0 0 -1.414012,-1.4145285 1.4144506,1.4144506 0 0 0 -0.0098,0 z m 3.674052,0 a 1.4144506,1.4144506 0 0 0 -1.404708,1.4145285 1.4144506,1.4144506 0 0 0 1.414528,1.4145282 1.4144506,1.4144506 0 0 0 1.41453,-1.4145282 1.4144506,1.4144506 0 0 0 -1.41453,-1.4145285 1.4144506,1.4144506 0 0 0 -0.0098,0 z m 3.674054,0 a 1.4144506,1.4144506 0 0 0 -1.404708,1.4145285 1.4144506,1.4144506 0 0 0 1.414528,1.4145282 1.4144506,1.4144506 0 0 0 1.414528,-1.4145282 1.4144506,1.4144506 0 0 0 -1.414528,-1.4145285 1.4144506,1.4144506 0 0 0 -0.0098,0 z m 3.674571,0 a 1.4144506,1.4144506 0 0 0 -1.404711,1.4145285 1.4144506,1.4144506 0 0 0 1.414012,1.4145282 1.4144506,1.4144506 0 0 0 1.41453,-1.4145282 1.4144506,1.4144506 0 0 0 -1.41453,-1.4145285 1.4144506,1.4144506 0 0 0 -0.0093,0 z m 3.674052,0 a 1.4144506,1.4144506 0 0 0 -1.404709,1.4145285 1.4144506,1.4144506 0 0 0 1.414528,1.4145282 1.4144506,1.4144506 0 0 0 1.414531,-1.4145282 1.4144506,1.4144506 0 0 0 -1.414531,-1.4145285 1.4144506,1.4144506 0 0 0 -0.0098,0 z m 3.674054,0 a 1.4144506,1.4144506 0 0 0 -1.404708,1.4145285 1.4144506,1.4144506 0 0 0 1.414528,1.4145282 1.4144506,1.4144506 0 0 0 1.414527,-1.4145282 1.4144506,1.4144506 0 0 0 -1.414527,-1.4145285 1.4144506,1.4144506 0 0 0 -0.0098,0 z m 3.67457,0 a 1.4144506,1.4144506 0 0 0 -1.40471,1.4145285 1.4144506,1.4144506 0 0 0 1.414011,1.4145282 1.4144506,1.4144506 0 0 0 1.414531,-1.4145282 1.4144506,1.4144506 0 0 0 -1.414531,-1.4145285 1.4144506,1.4144506 0 0 0 -0.0093,0 z m 3.674052,0 a 1.4144506,1.4144506 0 0 0 -1.404708,1.4145285 1.4144506,1.4144506 0 0 0 1.414528,1.4145282 1.4144506,1.4144506 0 0 0 1.414012,-1.4145282 1.4144506,1.4144506 0 0 0 -1.414012,-1.4145285 1.4144506,1.4144506 0 0 0 -0.0098,0 z m 3.674055,0 a 1.4144506,1.4144506 0 0 0 -1.404709,1.4145285 1.4144506,1.4144506 0 0 0 1.414528,1.4145282 1.4144506,1.4144506 0 0 0 1.414528,-1.4145282 1.4144506,1.4144506 0 0 0 -1.414528,-1.4145285 1.4144506,1.4144506 0 0 0 -0.0098,0 z m 3.674051,0 a 1.4144506,1.4144506 0 0 0 -1.404708,1.4145285 1.4144506,1.4144506 0 0 0 1.414528,1.4145282 1.4144506,1.4144506 0 0 0 1.41453,-1.4145282 1.4144506,1.4144506 0 0 0 -1.41453,-1.4145285 1.4144506,1.4144506 0 0 0 -0.0098,0 z m 3.674571,0 a 1.4144506,1.4144506 0 0 0 -1.404708,1.4145285 1.4144506,1.4144506 0 0 0 1.414011,1.4145282 1.4144506,1.4144506 0 0 0 1.414528,-1.4145282 1.4144506,1.4144506 0 0 0 -1.414528,-1.4145285 1.4144506,1.4144506 0 0 0 -0.0093,0 z M 19.265702,11.198912 a 1.4144506,1.4144506 0 0 0 -1.404709,1.414529 1.4144506,1.4144506 0 0 0 1.414528,1.414012 1.4144506,1.4144506 0 0 0 1.414012,-1.414012 1.4144506,1.4144506 0 0 0 -1.414012,-1.414529 1.4144506,1.4144506 0 0 0 -0.0098,0 z m 3.674053,0 a 1.4144506,1.4144506 0 0 0 -1.404709,1.414529 1.4144506,1.4144506 0 0 0 1.414529,1.414012 1.4144506,1.4144506 0 0 0 1.414528,-1.414012 1.4144506,1.4144506 0 0 0 -1.414528,-1.414529 1.4144506,1.4144506 0 0 0 -0.0098,0 z m 3.674052,0 a 1.4144506,1.4144506 0 0 0 -1.404708,1.414529 1.4144506,1.4144506 0 0 0 1.414528,1.414012 1.4144506,1.4144506 0 0 0 1.414531,-1.414012 1.4144506,1.4144506 0 0 0 -1.414531,-1.414529 1.4144506,1.4144506 0 0 0 -0.0098,0 z m 3.674571,0 a 1.4144506,1.4144506 0 0 0 -1.404708,1.414529 1.4144506,1.4144506 0 0 0 1.414012,1.414012 1.4144506,1.4144506 0 0 0 1.414527,-1.414012 1.4144506,1.4144506 0 0 0 -1.414527,-1.414529 1.4144506,1.4144506 0 0 0 -0.0093,0 z m 3.674054,0 a 1.4144506,1.4144506 0 0 0 -1.40471,1.414529 1.4144506,1.4144506 0 0 0 1.41453,1.414012 1.4144506,1.4144506 0 0 0 1.414012,-1.414012 1.4144506,1.4144506 0 0 0 -1.414012,-1.414529 1.4144506,1.4144506 0 0 0 -0.0098,0 z m 3.674052,0 a 1.4144506,1.4144506 0 0 0 -1.404708,1.414529 1.4144506,1.4144506 0 0 0 1.414528,1.414012 1.4144506,1.4144506 0 0 0 1.41453,-1.414012 1.4144506,1.4144506 0 0 0 -1.41453,-1.414529 1.4144506,1.4144506 0 0 0 -0.0098,0 z m 3.674054,0 a 1.4144506,1.4144506 0 0 0 -1.404708,1.414529 1.4144506,1.4144506 0 0 0 1.414528,1.414012 1.4144506,1.4144506 0 0 0 1.414528,-1.414012 1.4144506,1.4144506 0 0 0 -1.414528,-1.414529 1.4144506,1.4144506 0 0 0 -0.0098,0 z m 3.674571,0 a 1.4144506,1.4144506 0 0 0 -1.404711,1.414529 1.4144506,1.4144506 0 0 0 1.414012,1.414012 1.4144506,1.4144506 0 0 0 1.41453,-1.414012 1.4144506,1.4144506 0 0 0 -1.41453,-1.414529 1.4144506,1.4144506 0 0 0 -0.0093,0 z m 3.674052,0 a 1.4144506,1.4144506 0 0 0 -1.404709,1.414529 1.4144506,1.4144506 0 0 0 1.414528,1.414012 1.4144506,1.4144506 0 0 0 1.414531,-1.414012 1.4144506,1.4144506 0 0 0 -1.414531,-1.414529 1.4144506,1.4144506 0 0 0 -0.0098,0 z m 3.674054,0 a 1.4144506,1.4144506 0 0 0 -1.404708,1.414529 1.4144506,1.4144506 0 0 0 1.414528,1.414012 1.4144506,1.4144506 0 0 0 1.414527,-1.414012 1.4144506,1.4144506 0 0 0 -1.414527,-1.414529 1.4144506,1.4144506 0 0 0 -0.0098,0 z m 3.67457,0 a 1.4144506,1.4144506 0 0 0 -1.40471,1.414529 1.4144506,1.4144506 0 0 0 1.414011,1.414012 1.4144506,1.4144506 0 0 0 1.414531,-1.414012 1.4144506,1.4144506 0 0 0 -1.414531,-1.414529 1.4144506,1.4144506 0 0 0 -0.0093,0 z m 3.674052,0 a 1.4144506,1.4144506 0 0 0 -1.404708,1.414529 1.4144506,1.4144506 0 0 0 1.414528,1.414012 1.4144506,1.4144506 0 0 0 1.414012,-1.414012 1.4144506,1.4144506 0 0 0 -1.414012,-1.414529 1.4144506,1.4144506 0 0 0 -0.0098,0 z m 3.674055,0 a 1.4144506,1.4144506 0 0 0 -1.404709,1.414529 1.4144506,1.4144506 0 0 0 1.414528,1.414012 1.4144506,1.4144506 0 0 0 1.414528,-1.414012 1.4144506,1.4144506 0 0 0 -1.414528,-1.414529 1.4144506,1.4144506 0 0 0 -0.0098,0 z m 3.674051,0 a 1.4144506,1.4144506 0 0 0 -1.404708,1.414529 1.4144506,1.4144506 0 0 0 1.414528,1.414012 1.4144506,1.4144506 0 0 0 1.41453,-1.414012 1.4144506,1.4144506 0 0 0 -1.41453,-1.414529 1.4144506,1.4144506 0 0 0 -0.0098,0 z m 3.674571,0 a 1.4144506,1.4144506 0 0 0 -1.404708,1.414529 1.4144506,1.4144506 0 0 0 1.414011,1.414012 1.4144506,1.4144506 0 0 0 1.414528,-1.414012 1.4144506,1.4144506 0 0 0 -1.414528,-1.414529 1.4144506,1.4144506 0 0 0 -0.0093,0 z m -51.438812,3.674053 a 1.4144506,1.4144506 0 0 0 -1.404709,1.414529 1.4144506,1.4144506 0 0 0 1.414528,1.414529 1.4144506,1.4144506 0 0 0 1.414012,-1.414529 1.4144506,1.4144506 0 0 0 -1.414012,-1.414529 1.4144506,1.4144506 0 0 0 -0.0098,0 z m 3.674053,0 a 1.4144506,1.4144506 0 0 0 -1.404709,1.414529 1.4144506,1.4144506 0 0 0 1.414529,1.414529 1.4144506,1.4144506 0 0 0 1.414528,-1.414529 1.4144506,1.4144506 0 0 0 -1.414528,-1.414529 1.4144506,1.4144506 0 0 0 -0.0098,0 z m 3.674052,0 a 1.4144506,1.4144506 0 0 0 -1.404708,1.414529 1.4144506,1.4144506 0 0 0 1.414528,1.414529 1.4144506,1.4144506 0 0 0 1.414531,-1.414529 1.4144506,1.4144506 0 0 0 -1.414531,-1.414529 1.4144506,1.4144506 0 0 0 -0.0098,0 z m 3.674571,0 a 1.4144506,1.4144506 0 0 0 -1.404708,1.414529 1.4144506,1.4144506 0 0 0 1.414012,1.414529 1.4144506,1.4144506 0 0 0 1.414527,-1.414529 1.4144506,1.4144506 0 0 0 -1.414527,-1.414529 1.4144506,1.4144506 0 0 0 -0.0093,0 z m 3.674054,0 a 1.4144506,1.4144506 0 0 0 -1.40471,1.414529 1.4144506,1.4144506 0 0 0 1.41453,1.414529 1.4144506,1.4144506 0 0 0 1.414012,-1.414529 1.4144506,1.4144506 0 0 0 -1.414012,-1.414529 1.4144506,1.4144506 0 0 0 -0.0098,0 z m 3.674052,0 a 1.4144506,1.4144506 0 0 0 -1.404708,1.414529 1.4144506,1.4144506 0 0 0 1.414528,1.414529 1.4144506,1.4144506 0 0 0 1.41453,-1.414529 1.4144506,1.4144506 0 0 0 -1.41453,-1.414529 1.4144506,1.4144506 0 0 0 -0.0098,0 z m 3.674054,0 a 1.4144506,1.4144506 0 0 0 -1.404708,1.414529 1.4144506,1.4144506 0 0 0 1.414528,1.414529 1.4144506,1.4144506 0 0 0 1.414528,-1.414529 1.4144506,1.4144506 0 0 0 -1.414528,-1.414529 1.4144506,1.4144506 0 0 0 -0.0098,0 z m 3.674571,0 a 1.4144506,1.4144506 0 0 0 -1.404711,1.414529 1.4144506,1.4144506 0 0 0 1.414012,1.414529 1.4144506,1.4144506 0 0 0 1.41453,-1.414529 1.4144506,1.4144506 0 0 0 -1.41453,-1.414529 1.4144506,1.4144506 0 0 0 -0.0093,0 z m 3.674052,0 a 1.4144506,1.4144506 0 0 0 -1.404709,1.414529 1.4144506,1.4144506 0 0 0 1.414528,1.414529 1.4144506,1.4144506 0 0 0 1.414531,-1.414529 1.4144506,1.4144506 0 0 0 -1.414531,-1.414529 1.4144506,1.4144506 0 0 0 -0.0098,0 z m 3.674054,0 a 1.4144506,1.4144506 0 0 0 -1.404708,1.414529 1.4144506,1.4144506 0 0 0 1.414528,1.414529 1.4144506,1.4144506 0 0 0 1.414527,-1.414529 1.4144506,1.4144506 0 0 0 -1.414527,-1.414529 1.4144506,1.4144506 0 0 0 -0.0098,0 z m 3.67457,0 a 1.4144506,1.4144506 0 0 0 -1.40471,1.414529 1.4144506,1.4144506 0 0 0 1.414011,1.414529 1.4144506,1.4144506 0 0 0 1.414531,-1.414529 1.4144506,1.4144506 0 0 0 -1.414531,-1.414529 1.4144506,1.4144506 0 0 0 -0.0093,0 z m 3.674052,0 a 1.4144506,1.4144506 0 0 0 -1.404708,1.414529 1.4144506,1.4144506 0 0 0 1.414528,1.414529 1.4144506,1.4144506 0 0 0 1.414012,-1.414529 1.4144506,1.4144506 0 0 0 -1.414012,-1.414529 1.4144506,1.4144506 0 0 0 -0.0098,0 z m 3.674055,0 a 1.4144506,1.4144506 0 0 0 -1.404709,1.414529 1.4144506,1.4144506 0 0 0 1.414528,1.414529 1.4144506,1.4144506 0 0 0 1.414528,-1.414529 1.4144506,1.4144506 0 0 0 -1.414528,-1.414529 1.4144506,1.4144506 0 0 0 -0.0098,0 z m 3.674051,0 a 1.4144506,1.4144506 0 0 0 -1.404708,1.414529 1.4144506,1.4144506 0 0 0 1.414528,1.414529 1.4144506,1.4144506 0 0 0 1.41453,-1.414529 1.4144506,1.4144506 0 0 0 -1.41453,-1.414529 1.4144506,1.4144506 0 0 0 -0.0098,0 z m 3.674571,0 a 1.4144506,1.4144506 0 0 0 -1.404708,1.414529 1.4144506,1.4144506 0 0 0 1.414011,1.414529 1.4144506,1.4144506 0 0 0 1.414528,-1.414529 1.4144506,1.4144506 0 0 0 -1.414528,-1.414529 1.4144506,1.4144506 0 0 0 -0.0093,0 z m -51.438812,3.674054 a 1.4144506,1.4144506 0 0 0 -1.404709,1.414528 1.4144506,1.4144506 0 0 0 1.414528,1.414529 1.4144506,1.4144506 0 0 0 1.414012,-1.414529 1.4144506,1.4144506 0 0 0 -1.414012,-1.414528 1.4144506,1.4144506 0 0 0 -0.0098,0 z m 3.674053,0 a 1.4144506,1.4144506 0 0 0 -1.404709,1.414528 1.4144506,1.4144506 0 0 0 1.414529,1.414529 1.4144506,1.4144506 0 0 0 1.414528,-1.414529 1.4144506,1.4144506 0 0 0 -1.414528,-1.414528 1.4144506,1.4144506 0 0 0 -0.0098,0 z m 3.674052,0 a 1.4144506,1.4144506 0 0 0 -1.404708,1.414528 1.4144506,1.4144506 0 0 0 1.414528,1.414529 1.4144506,1.4144506 0 0 0 1.414531,-1.414529 1.4144506,1.4144506 0 0 0 -1.414531,-1.414528 1.4144506,1.4144506 0 0 0 -0.0098,0 z m 3.674571,0 a 1.4144506,1.4144506 0 0 0 -1.404708,1.414528 1.4144506,1.4144506 0 0 0 1.414012,1.414529 1.4144506,1.4144506 0 0 0 1.414527,-1.414529 1.4144506,1.4144506 0 0 0 -1.414527,-1.414528 1.4144506,1.4144506 0 0 0 -0.0093,0 z m 3.674054,0 a 1.4144506,1.4144506 0 0 0 -1.40471,1.414528 1.4144506,1.4144506 0 0 0 1.41453,1.414529 1.4144506,1.4144506 0 0 0 1.414012,-1.414529 1.4144506,1.4144506 0 0 0 -1.414012,-1.414528 1.4144506,1.4144506 0 0 0 -0.0098,0 z m 3.674052,0 a 1.4144506,1.4144506 0 0 0 -1.404708,1.414528 1.4144506,1.4144506 0 0 0 1.414528,1.414529 1.4144506,1.4144506 0 0 0 1.41453,-1.414529 1.4144506,1.4144506 0 0 0 -1.41453,-1.414528 1.4144506,1.4144506 0 0 0 -0.0098,0 z m 3.674054,0 a 1.4144506,1.4144506 0 0 0 -1.404708,1.414528 1.4144506,1.4144506 0 0 0 1.414528,1.414529 1.4144506,1.4144506 0 0 0 1.414528,-1.414529 1.4144506,1.4144506 0 0 0 -1.414528,-1.414528 1.4144506,1.4144506 0 0 0 -0.0098,0 z m 3.674571,0 a 1.4144506,1.4144506 0 0 0 -1.404711,1.414528 1.4144506,1.4144506 0 0 0 1.414012,1.414529 1.4144506,1.4144506 0 0 0 1.41453,-1.414529 1.4144506,1.4144506 0 0 0 -1.41453,-1.414528 1.4144506,1.4144506 0 0 0 -0.0093,0 z m 3.674052,0 a 1.4144506,1.4144506 0 0 0 -1.404709,1.414528 1.4144506,1.4144506 0 0 0 1.414528,1.414529 1.4144506,1.4144506 0 0 0 1.414531,-1.414529 1.4144506,1.4144506 0 0 0 -1.414531,-1.414528 1.4144506,1.4144506 0 0 0 -0.0098,0 z m 3.674054,0 a 1.4144506,1.4144506 0 0 0 -1.404708,1.414528 1.4144506,1.4144506 0 0 0 1.414528,1.414529 1.4144506,1.4144506 0 0 0 1.414527,-1.414529 1.4144506,1.4144506 0 0 0 -1.414527,-1.414528 1.4144506,1.4144506 0 0 0 -0.0098,0 z m 3.67457,0 a 1.4144506,1.4144506 0 0 0 -1.40471,1.414528 1.4144506,1.4144506 0 0 0 1.414011,1.414529 1.4144506,1.4144506 0 0 0 1.414531,-1.414529 1.4144506,1.4144506 0 0 0 -1.414531,-1.414528 1.4144506,1.4144506 0 0 0 -0.0093,0 z m 3.674052,0 a 1.4144506,1.4144506 0 0 0 -1.404708,1.414528 1.4144506,1.4144506 0 0 0 1.414528,1.414529 1.4144506,1.4144506 0 0 0 1.414012,-1.414529 1.4144506,1.4144506 0 0 0 -1.414012,-1.414528 1.4144506,1.4144506 0 0 0 -0.0098,0 z m 3.674055,0 a 1.4144506,1.4144506 0 0 0 -1.404709,1.414528 1.4144506,1.4144506 0 0 0 1.414528,1.414529 1.4144506,1.4144506 0 0 0 1.414528,-1.414529 1.4144506,1.4144506 0 0 0 -1.414528,-1.414528 1.4144506,1.4144506 0 0 0 -0.0098,0 z m 3.674051,0 a 1.4144506,1.4144506 0 0 0 -1.404708,1.414528 1.4144506,1.4144506 0 0 0 1.414528,1.414529 1.4144506,1.4144506 0 0 0 1.41453,-1.414529 1.4144506,1.4144506 0 0 0 -1.41453,-1.414528 1.4144506,1.4144506 0 0 0 -0.0098,0 z m 3.674571,0 a 1.4144506,1.4144506 0 0 0 -1.404708,1.414528 1.4144506,1.4144506 0 0 0 1.414011,1.414529 1.4144506,1.4144506 0 0 0 1.414528,-1.414529 1.4144506,1.4144506 0 0 0 -1.414528,-1.414528 1.4144506,1.4144506 0 0 0 -0.0093,0 z m -51.438812,3.67457 a 1.4144506,1.4144506 0 0 0 -1.404709,1.414012 1.4144506,1.4144506 0 0 0 1.414528,1.414528 1.4144506,1.4144506 0 0 0 1.414012,-1.414528 1.4144506,1.4144506 0 0 0 -1.414012,-1.414012 1.4144506,1.4144506 0 0 0 -0.0098,0 z m 3.674053,0 a 1.4144506,1.4144506 0 0 0 -1.404709,1.414012 1.4144506,1.4144506 0 0 0 1.414529,1.414528 1.4144506,1.4144506 0 0 0 1.414528,-1.414528 1.4144506,1.4144506 0 0 0 -1.414528,-1.414012 1.4144506,1.4144506 0 0 0 -0.0098,0 z m 3.674052,0 a 1.4144506,1.4144506 0 0 0 -1.404708,1.414012 1.4144506,1.4144506 0 0 0 1.414528,1.414528 1.4144506,1.4144506 0 0 0 1.414531,-1.414528 1.4144506,1.4144506 0 0 0 -1.414531,-1.414012 1.4144506,1.4144506 0 0 0 -0.0098,0 z m 3.674571,0 a 1.4144506,1.4144506 0 0 0 -1.404708,1.414012 1.4144506,1.4144506 0 0 0 1.414012,1.414528 1.4144506,1.4144506 0 0 0 1.414527,-1.414528 1.4144506,1.4144506 0 0 0 -1.414527,-1.414012 1.4144506,1.4144506 0 0 0 -0.0093,0 z m 3.674054,0 a 1.4144506,1.4144506 0 0 0 -1.40471,1.414012 1.4144506,1.4144506 0 0 0 1.41453,1.414528 1.4144506,1.4144506 0 0 0 1.414012,-1.414528 1.4144506,1.4144506 0 0 0 -1.414012,-1.414012 1.4144506,1.4144506 0 0 0 -0.0098,0 z m 3.674052,0 a 1.4144506,1.4144506 0 0 0 -1.404708,1.414012 1.4144506,1.4144506 0 0 0 1.414528,1.414528 1.4144506,1.4144506 0 0 0 1.41453,-1.414528 1.4144506,1.4144506 0 0 0 -1.41453,-1.414012 1.4144506,1.4144506 0 0 0 -0.0098,0 z m 3.674054,0 a 1.4144506,1.4144506 0 0 0 -1.404708,1.414012 1.4144506,1.4144506 0 0 0 1.414528,1.414528 1.4144506,1.4144506 0 0 0 1.414528,-1.414528 1.4144506,1.4144506 0 0 0 -1.414528,-1.414012 1.4144506,1.4144506 0 0 0 -0.0098,0 z m 3.674571,0 a 1.4144506,1.4144506 0 0 0 -1.404711,1.414012 1.4144506,1.4144506 0 0 0 1.414012,1.414528 1.4144506,1.4144506 0 0 0 1.41453,-1.414528 1.4144506,1.4144506 0 0 0 -1.41453,-1.414012 1.4144506,1.4144506 0 0 0 -0.0093,0 z m 3.674052,0 a 1.4144506,1.4144506 0 0 0 -1.404709,1.414012 1.4144506,1.4144506 0 0 0 1.414528,1.414528 1.4144506,1.4144506 0 0 0 1.414531,-1.414528 1.4144506,1.4144506 0 0 0 -1.414531,-1.414012 1.4144506,1.4144506 0 0 0 -0.0098,0 z m 3.674054,0 a 1.4144506,1.4144506 0 0 0 -1.404708,1.414012 1.4144506,1.4144506 0 0 0 1.414528,1.414528 1.4144506,1.4144506 0 0 0 1.414527,-1.414528 1.4144506,1.4144506 0 0 0 -1.414527,-1.414012 1.4144506,1.4144506 0 0 0 -0.0098,0 z m 3.67457,0 a 1.4144506,1.4144506 0 0 0 -1.40471,1.414012 1.4144506,1.4144506 0 0 0 1.414011,1.414528 1.4144506,1.4144506 0 0 0 1.414531,-1.414528 1.4144506,1.4144506 0 0 0 -1.414531,-1.414012 1.4144506,1.4144506 0 0 0 -0.0093,0 z m 3.674052,0 a 1.4144506,1.4144506 0 0 0 -1.404708,1.414012 1.4144506,1.4144506 0 0 0 1.414528,1.414528 1.4144506,1.4144506 0 0 0 1.414012,-1.414528 1.4144506,1.4144506 0 0 0 -1.414012,-1.414012 1.4144506,1.4144506 0 0 0 -0.0098,0 z m 3.674055,0 a 1.4144506,1.4144506 0 0 0 -1.404709,1.414012 1.4144506,1.4144506 0 0 0 1.414528,1.414528 1.4144506,1.4144506 0 0 0 1.414528,-1.414528 1.4144506,1.4144506 0 0 0 -1.414528,-1.414012 1.4144506,1.4144506 0 0 0 -0.0098,0 z m 3.674051,0 a 1.4144506,1.4144506 0 0 0 -1.404708,1.414012 1.4144506,1.4144506 0 0 0 1.414528,1.414528 1.4144506,1.4144506 0 0 0 1.41453,-1.414528 1.4144506,1.4144506 0 0 0 -1.41453,-1.414012 1.4144506,1.4144506 0 0 0 -0.0098,0 z m 3.674571,0 a 1.4144506,1.4144506 0 0 0 -1.404708,1.414012 1.4144506,1.4144506 0 0 0 1.414011,1.414528 1.4144506,1.4144506 0 0 0 1.414528,-1.414528 1.4144506,1.4144506 0 0 0 -1.414528,-1.414012 1.4144506,1.4144506 0 0 0 -0.0093,0 z" />
    </g>
    <g
       transform="translate(1.1226461)">
      <path
         style="color:#000000;font-style:normal;font-variant:normal;font-weight:normal;font-stretch:normal;font-size:medium;line-height:normal;font-family:sans-serif;font-variant-ligatures:normal;font-variant-position:normal;font-variant-caps:normal;font-variant-numeric:normal;font-variant-alternates:normal;font-variant-east-asian:normal;font-feature-settings:normal;font-variation-settings:normal;text-indent:0;text-align:start;text-decoration:none;text-decoration-line:none;text-decoration-style:solid;text-decoration-color:#000000;letter-spacing:normal;word-spacing:normal;text-transform:none;writing-mode:lr-tb;direction:ltr;text-orientation:mixed;dominant-baseline:auto;baseline-shift:baseline;text-anchor:start;white-space:normal;shape-padding:0;shape-margin:0;inline-size:0;clip-rule:nonzero;display:inline;overflow:visible;visibility:visible;isolation:auto;mix-blend-mode:normal;color-interpolation:sRGB;color-interpolation-filters:linearRGB;solid-color:#000000;solid-opacity:1;vector-effect:none;fill:#333333;fill-opacity:1;fill-rule:nonzero;stroke:none;stroke-width:0.801196;stroke-linecap:butt;stroke-linejoin:round;stroke-miterlimit:4;stroke-dasharray:none;stroke-dashoffset:0;stroke-opacity:1;color-rendering:auto;image-rendering:auto;shape-rendering:auto;text-rendering:auto;enable-background:accumulate;stop-color:#000000"
         d="M 24.024189,30.88684 H 63.719528 V 45.865007 H 24.024189 Z" />
      <path
         style="color:#000000;font-style:normal;font-variant:normal;font-weight:normal;font-stretch:normal;font-size:medium;line-height:normal;font-family:sans-serif;font-variant-ligatures:normal;font-variant-position:normal;font-variant-caps:normal;font-variant-numeric:normal;font-variant-alternates:normal;font-variant-east-asian:normal;font-feature-settings:normal;font-variation-settings:normal;text-indent:0;text-align:start;text-decoration:none;text-decoration-line:none;text-decoration-style:solid;text-decoration-color:#000000;letter-spacing:normal;word-spacing:normal;text-transform:none;writing-mode:lr-tb;direction:ltr;text-orientation:mixed;dominant-baseline:auto;baseline-shift:baseline;text-anchor:start;white-space:normal;shape-padding:0;shape-margin:0;inline-size:0;clip-rule:nonzero;display:inline;overflow:visible;visibility:visible;isolation:auto;mix-blend-mode:normal;color-interpolation:sRGB;color-interpolation-filters:linearRGB;solid-color:#000000;solid-opacity:1;vector-effect:none;fill:#474747;fill-opacity:1;fill-rule:nonzero;stroke:none;stroke-width:0.801196;stroke-linecap:butt;stroke-linejoin:round;stroke-miterlimit:4;stroke-dasharray:none;stroke-dashoffset:0;stroke-opacity:1;color-rendering:auto;image-rendering:auto;shape-rendering:auto;text-rendering:auto;enable-background:accumulate;stop-color:#000000"
         d="m 31.240708,27.270922 v 3.215798 h -7.216694 a 0.40063807,0.40063807 0 0 0 -0.400653,0.399597 v 14.978867 a 0.40063807,0.40063807 0 0 0 0.400653,0.400653 h 39.694985 a 0.40063807,0.40063807 0 0 0 0.400653,-0.400653 V 30.886317 A 0.40063807,0.40063807 0 0 0 63.718999,30.48672 h -7.21599 V 27.270922 H 55.420505 V 30.48672 H 32.323212 V 27.270922 Z M 24.42502,31.28697 H 63.319401 V 45.464178 H 24.42502 Z" />
    </g>
  </g>
  <g
     id="g-meter"
     transform="matrix(1.0017538,0,0,1,3.6958164e-5,0)">
    <path
       style="color:#000000;font-style:normal;font-variant:normal;font-weight:normal;font-stretch:normal;font-size:medium;line-height:normal;font-family:sans-serif;font-variant-ligatures:normal;font-variant-position:normal;font-variant-caps:normal;font-variant-numeric:normal;font-variant-alternates:normal;font-variant-east-asian:normal;font-feature-settings:normal;font-variation-settings:normal;text-indent:0;text-align:start;text-decoration:none;text-decoration-line:none;text-decoration-style:solid;text-decoration-color:#000000;letter-spacing:normal;word-spacing:normal;text-transform:none;writing-mode:lr-tb;direction:ltr;text-orientation:mixed;dominant-baseline:auto;baseline-shift:baseline;text-anchor:start;white-space:normal;shape-padding:0;shape-margin:0;inline-size:0;clip-rule:nonzero;display:inline;overflow:visible;visibility:visible;opacity:1;isolation:auto;mix-blend-mode:normal;color-interpolation:sRGB;color-interpolation-filters:linearRGB;solid-color:#000000;solid-opacity:1;vector-effect:none;fill:#7a3208;fill-opacity:1;fill-rule:nonzero;stroke:none;stroke-width:3.99448;stroke-linecap:butt;stroke-linejoin:round;stroke-miterlimit:4;stroke-dasharray:none;stroke-dashoffset:0;stroke-opacity:1;color-rendering:auto;image-rendering:auto;shape-rendering:auto;text-rendering:auto;enable-background:accumulate;stop-color:#000000;stop-opacity:1"
       d="M 28.498047,3.8828125 C 17.166753,3.8827612 7.8645521,12.733277 7.0664062,23.888672 H 7 c -3e-7,0.147035 0.017945,0.287886 0.033203,0.429687 -0.019202,0.372494 -0.029298,0.747842 -0.029297,1.125 V 168.38867 H 7 c 0,0.0174 0.00369,0.0335 0.00391,0.0508 v 144.4492 H 7 c 0,0.0174 0.00369,0.0335 0.00391,0.0508 v 144.4492 H 7 c 0,0.0174 0.00369,0.0335 0.00391,0.0508 v 144.4492 H 7 c 0,0.0174 0.00369,0.0335 0.00391,0.0508 v 120.6211 c -5.25e-5,11.87731 9.640657,21.55472 21.494141,21.55468 11.853479,4e-5 21.500045,-9.67737 21.5,-21.55468 V 601.91406 c 5.5e-5,-0.009 0.002,-0.0167 0.002,-0.0254 h -0.002 v -144.4746 c 5.5e-5,-0.009 0.002,-0.0167 0.002,-0.0254 h -0.002 v -144.4746 c 5.5e-5,-0.009 0.002,-0.0167 0.002,-0.0254 h -0.002 v -144.4746 c 5.5e-5,-0.009 0.002,-0.0167 0.002,-0.0254 h -0.002 V 25.443359 c 1e-6,-0.381119 -0.0097,-0.760366 -0.0293,-1.136718 C 49.983273,24.168592 50,24.03167 50,23.888672 H 49.93555 C 49.1368,12.733279 39.829335,3.8827619 28.498047,3.8828125 Z m 0,4 c 9.259845,-4.12e-5 16.792938,7.1620665 17.443359,16.2851565 -0.102716,0.144176 -0.279838,0.337814 -0.615234,0.591797 -0.715021,0.541437 -1.976813,1.161354 -3.607422,1.683593 -3.261214,1.044555 -7.99553,1.740235 -13.222656,1.740235 -5.227138,0 -9.959486,-0.69568 -13.220703,-1.740235 -1.630605,-0.522239 -2.886546,-1.142156 -3.601563,-1.683593 -0.332669,-0.25191 -0.510201,-0.44394 -0.615234,-0.587891 0.647945,-9.12495 8.178284,-16.2891044 17.439453,-16.2890625 z M 46.005859,28.917969 V 168.54883 c -0.06151,0.13672 -0.197565,0.34584 -0.679687,0.71094 -0.715021,0.54144 -1.976813,1.16133 -3.607422,1.68359 -3.261214,1.04453 -7.995522,1.74023 -13.222656,1.74023 -5.227134,0 -9.95949,-0.6957 -13.220703,-1.74023 -1.630605,-0.52226 -2.886546,-1.14215 -3.601563,-1.68359 -0.457654,-0.34657 -0.605821,-0.5543 -0.677734,-0.69532 V 28.921875 c 0.91856,0.477016 1.939611,0.896517 3.085937,1.263672 3.811362,1.220738 8.848801,1.925781 14.414063,1.925781 5.565254,0 10.6027,-0.705043 14.414062,-1.925781 1.149563,-0.368192 2.174649,-0.788838 3.095703,-1.267578 z m 0,144.500001 v 139.63086 c -0.06151,0.13672 -0.197565,0.34584 -0.679687,0.71094 -0.715021,0.54144 -1.976813,1.16131 -3.607422,1.68359 -3.261214,1.04452 -7.995522,1.74023 -13.222656,1.74023 -5.227134,0 -9.95949,-0.69571 -13.220703,-1.74023 -1.630605,-0.52228 -2.886546,-1.14215 -3.601563,-1.68359 -0.457654,-0.34658 -0.605821,-0.5543 -0.677734,-0.69532 V 173.42188 c 0.918561,0.47701 1.939613,0.89651 3.085937,1.26367 3.811366,1.22074 8.848801,1.92578 14.414063,1.92578 5.565257,0 10.6027,-0.70504 14.414062,-1.92578 1.149563,-0.3682 2.174649,-0.78884 3.095703,-1.26758 z m 0,144.5 v 139.63086 c -0.06151,0.13672 -0.197565,0.34584 -0.679687,0.71094 -0.715021,0.54143 -1.976813,1.16135 -3.607422,1.68359 -3.261214,1.04455 -7.995526,1.74219 -13.222656,1.74219 -5.227134,0 -9.959486,-0.69764 -13.220703,-1.74219 -1.630605,-0.52224 -2.886546,-1.14216 -3.601563,-1.68359 -0.456994,-0.34606 -0.605607,-0.55224 -0.677734,-0.69336 V 317.92188 c 0.918561,0.47701 1.939613,0.89651 3.085937,1.26367 3.811366,1.22074 8.848801,1.92578 14.414063,1.92578 5.565257,0 10.6027,-0.70504 14.414062,-1.92578 1.149563,-0.3682 2.174649,-0.78884 3.095703,-1.26758 z m 0,144.5 v 139.63086 c -0.06151,0.13672 -0.197565,0.34584 -0.679687,0.71094 -0.715025,0.54143 -1.976813,1.16135 -3.607422,1.68359 -3.261214,1.04455 -7.995526,1.74219 -13.222656,1.74219 -5.227134,0 -9.95949,-0.69764 -13.220703,-1.74219 -1.630605,-0.52224 -2.886546,-1.14216 -3.601563,-1.68359 -0.456994,-0.34606 -0.605607,-0.55224 -0.677734,-0.69336 V 462.42188 c 0.918561,0.47701 1.939613,0.89651 3.085937,1.26367 3.811366,1.22074 8.848805,1.92578 14.414063,1.92578 5.565257,0 10.6027,-0.70504 14.414062,-1.92578 1.149563,-0.3682 2.174649,-0.78884 3.095703,-1.26758 z m 0,144.5 v 115.64258 c 3.8e-5,9.72448 -7.819108,17.56058 -17.507812,17.56054 -9.68871,4e-5 -17.501997,-7.83606 -17.501953,-17.56054 V 606.92188 c 0.918561,0.47701 1.939613,0.89651 3.085937,1.26367 3.811366,1.22074 8.848805,1.92578 14.414063,1.92578 5.565257,0 10.6027,-0.70504 14.414062,-1.92578 1.149563,-0.3682 2.174649,-0.78884 3.095703,-1.26758 z"
       transform="matrix(0.26461039,0,0,0.26461039,-0.02110373,0)" />
    <path
       style="fill:#ff0000;fill-opacity:0.595142;stroke-width:0.132305;stroke-linejoin:round"
       d="m 12.152525,160.59684 c -0.243721,0.12668 -0.514968,0.23801 -0.819155,0.33541 -0.852823,0.27315 -1.939237,0.44741 -3.144316,0.49511 l 3.963471,3.96348 z m -9.263948,0.001 v 7.66389 l 9.263948,9.26394 v -7.93831 l -8.772972,-8.77297 c -0.173723,-0.0671 -0.339713,-0.138 -0.490976,-0.21655 z m 0,11.85992 v 7.93832 l 9.263948,9.26394 v -7.93831 z m 0,12.13435 v 6.60493 c -3e-6,0.57495 0.107745,1.12254 0.296653,1.63004 l 2.723627,2.72362 c 0.502051,0.18632 1.043114,0.29304 1.610919,0.29304 1.793772,1e-5 3.342653,-1.01652 4.112831,-2.5076 z"
       sodipodi:nodetypes="ccccccccccccccccccccscc" />
    <path
       style="fill:#ffff00;fill-opacity:0.595142;stroke-width:0.132305;stroke-linejoin:round"
       d="m 12.152525,122.3603 c -0.243721,0.12667 -0.514968,0.23801 -0.819155,0.33541 -1.008526,0.32302 -2.3414864,0.50958 -3.8141114,0.50958 -0.410087,0 -0.807862,-0.0156 -1.192297,-0.0434 l 5.8255634,5.82556 z m -9.2639484,1.55923 v 7.93831 l 9.2639484,9.26395 v -7.93831 z m 0,12.13435 v 7.93831 l 9.2639484,9.26395 v -7.93831 z m 0,12.13487 v 7.93779 l 4.27046,4.27046 c 0.119402,0.003 0.238621,0.006 0.360222,0.006 1.383153,0 2.6359014,-0.1846 3.4988524,-0.461 0.431476,-0.13819 0.765358,-0.30223 0.954562,-0.4455 0.127571,-0.0966 0.163572,-0.15192 0.179852,-0.18812 v -1.85537 z"
       sodipodi:nodetypes="ccsccccccccccccccccsssccc" />
    <path
       style="fill:#00ff00;fill-opacity:0.595142;stroke-width:0.132305;stroke-linejoin:round"
       d="m 12.152525,7.6519951 c -0.243721,0.12667 -0.514969,0.2380144 -0.819156,0.3354143 -1.008526,0.32302 -2.3414853,0.5095817 -3.8141102,0.5095817 -0.4100871,0 -0.8078624,-0.015613 -1.1922973,-0.043413 L 12.152525,14.279141 Z M 2.888577,9.2112325 v 7.9383115 l 6.2307475,6.230748 c 0.7333934,-0.0798 1.3861385,-0.209981 1.8987865,-0.374176 0.431476,-0.138196 0.765359,-0.302226 0.954561,-0.445496 0.127572,-0.09661 0.163573,-0.151942 0.179853,-0.188122 V 18.47518 Z m 0,12.1343505 v 1.03105 c 0.019029,0.03732 0.058236,0.09228 0.1793355,0.183987 0.1892009,0.14327 0.5215357,0.3073 0.9530107,0.445496 0.216003,0.06918 0.4560946,0.132461 0.7168256,0.188638 z"
       sodipodi:nodetypes="ccsccccccscccccccscc" />
  </g>
  <path
     id="full"
     d="m 77.421875,227.80664 a 5.3454084,5.3454084 0 0 0 -5.308594,5.3457 5.3454084,5.3454084 0 0 0 5.345703,5.34571 5.3454084,5.3454084 0 0 0 5.34375,-5.34571 5.3454084,5.3454084 0 0 0 -5.34375,-5.3457 5.3454084,5.3454084 0 0 0 -0.03711,0 z m 13.884766,0 a 5.3454084,5.3454084 0 0 0 -5.308594,5.3457 5.3454084,5.3454084 0 0 0 5.345703,5.34571 5.3454084,5.3454084 0 0 0 5.345703,-5.34571 5.3454084,5.3454084 0 0 0 -5.345703,-5.3457 5.3454084,5.3454084 0 0 0 -0.03711,0 z m 13.884769,0 a 5.3454084,5.3454084 0 0 0 -5.308598,5.3457 5.3454084,5.3454084 0 0 0 5.345708,5.34571 5.3454084,5.3454084 0 0 0 5.3457,-5.34571 5.3454084,5.3454084 0 0 0 -5.3457,-5.3457 5.3454084,5.3454084 0 0 0 -0.0371,0 z m 27.77148,0 a 5.3454084,5.3454084 0 0 0 -5.30859,5.3457 5.3454084,5.3454084 0 0 0 5.3457,5.34571 5.3454084,5.3454084 0 0 0 5.3457,-5.34571 5.3454084,5.3454084 0 0 0 -5.3457,-5.3457 5.3454084,5.3454084 0 0 0 -0.0371,0 z m 27.77149,0 a 5.3454084,5.3454084 0 0 0 -5.31055,5.3457 5.3454084,5.3454084 0 0 0 5.3457,5.34571 5.3454084,5.3454084 0 0 0 5.3457,-5.34571 5.3454084,5.3454084 0 0 0 -5.3457,-5.3457 5.3454084,5.3454084 0 0 0 -0.0352,0 z m 27.76953,0 a 5.3454084,5.3454084 0 0 0 -5.3086,5.3457 5.3454084,5.3454084 0 0 0 5.34571,5.34571 5.3454084,5.3454084 0 0 0 5.3457,-5.34571 5.3454084,5.3454084 0 0 0 -5.3457,-5.3457 5.3454084,5.3454084 0 0 0 -0.0371,0 z m 55.54101,0 a 5.3454084,5.3454084 0 0 0 -5.30859,5.3457 5.3454084,5.3454084 0 0 0 5.3457,5.34571 5.3454084,5.3454084 0 0 0 5.3457,-5.34571 5.3454084,5.3454084 0 0 0 -5.3457,-5.3457 5.3454084,5.3454084 0 0 0 -0.0371,0 z M 77.421875,241.69141 a 5.3454084,5.3454084 0 0 0 -5.308594,5.3457 5.3454084,5.3454084 0 0 0 5.345703,5.3457 5.3454084,5.3454084 0 0 0 5.34375,-5.3457 5.3454084,5.3454084 0 0 0 -5.34375,-5.3457 5.3454084,5.3454084 0 0 0 -0.03711,0 z m 55.541015,0 a 5.3454084,5.3454084 0 0 0 -5.30859,5.3457 5.3454084,5.3454084 0 0 0 5.3457,5.3457 5.3454084,5.3454084 0 0 0 5.3457,-5.3457 5.3454084,5.3454084 0 0 0 -5.3457,-5.3457 5.3454084,5.3454084 0 0 0 -0.0371,0 z m 27.77149,0 a 5.3454084,5.3454084 0 0 0 -5.31055,5.3457 5.3454084,5.3454084 0 0 0 5.3457,5.3457 5.3454084,5.3454084 0 0 0 5.3457,-5.3457 5.3454084,5.3454084 0 0 0 -5.3457,-5.3457 5.3454084,5.3454084 0 0 0 -0.0352,0 z m 27.76953,0 a 5.3454084,5.3454084 0 0 0 -5.3086,5.3457 5.3454084,5.3454084 0 0 0 5.34571,5.3457 5.3454084,5.3454084 0 0 0 5.3457,-5.3457 5.3454084,5.3454084 0 0 0 -5.3457,-5.3457 5.3454084,5.3454084 0 0 0 -0.0371,0 z m 55.54101,0 a 5.3454084,5.3454084 0 0 0 -5.30859,5.3457 5.3454084,5.3454084 0 0 0 5.3457,5.3457 5.3454084,5.3454084 0 0 0 5.3457,-5.3457 5.3454084,5.3454084 0 0 0 -5.3457,-5.3457 5.3454084,5.3454084 0 0 0 -0.0371,0 z M 77.421875,255.57617 a 5.3454084,5.3454084 0 0 0 -5.308594,5.34571 5.3454084,5.3454084 0 0 0 5.345703,5.3457 5.3454084,5.3454084 0 0 0 5.34375,-5.3457 5.3454084,5.3454084 0 0 0 -5.34375,-5.34571 5.3454084,5.3454084 0 0 0 -0.03711,0 z m 13.884766,0 a 5.3454084,5.3454084 0 0 0 -5.308594,5.34571 5.3454084,5.3454084 0 0 0 5.345703,5.3457 5.3454084,5.3454084 0 0 0 5.345703,-5.3457 5.3454084,5.3454084 0 0 0 -5.345703,-5.34571 5.3454084,5.3454084 0 0 0 -0.03711,0 z m 13.884769,0 a 5.3454084,5.3454084 0 0 0 -5.308598,5.34571 5.3454084,5.3454084 0 0 0 5.345708,5.3457 5.3454084,5.3454084 0 0 0 5.3457,-5.3457 5.3454084,5.3454084 0 0 0 -5.3457,-5.34571 5.3454084,5.3454084 0 0 0 -0.0371,0 z m 27.77148,0 a 5.3454084,5.3454084 0 0 0 -5.30859,5.34571 5.3454084,5.3454084 0 0 0 5.3457,5.3457 5.3454084,5.3454084 0 0 0 5.3457,-5.3457 5.3454084,5.3454084 0 0 0 -5.3457,-5.34571 5.3454084,5.3454084 0 0 0 -0.0371,0 z m 27.77149,0 a 5.3454084,5.3454084 0 0 0 -5.31055,5.34571 5.3454084,5.3454084 0 0 0 5.3457,5.3457 5.3454084,5.3454084 0 0 0 5.3457,-5.3457 5.3454084,5.3454084 0 0 0 -5.3457,-5.34571 5.3454084,5.3454084 0 0 0 -0.0352,0 z m 27.76953,0 a 5.3454084,5.3454084 0 0 0 -5.3086,5.34571 5.3454084,5.3454084 0 0 0 5.34571,5.3457 5.3454084,5.3454084 0 0 0 5.3457,-5.3457 5.3454084,5.3454084 0 0 0 -5.3457,-5.34571 5.3454084,5.3454084 0 0 0 -0.0371,0 z m 55.54101,0 a 5.3454084,5.3454084 0 0 0 -5.30859,5.34571 5.3454084,5.3454084 0 0 0 5.3457,5.3457 5.3454084,5.3454084 0 0 0 5.3457,-5.3457 5.3454084,5.3454084 0 0 0 -5.3457,-5.34571 5.3454084,5.3454084 0 0 0 -0.0371,0 z M 77.421875,269.46289 a 5.3454084,5.3454084 0 0 0 -5.308594,5.3457 5.3454084,5.3454084 0 0 0 5.345703,5.34375 5.3454084,5.3454084 0 0 0 5.34375,-5.34375 5.3454084,5.3454084 0 0 0 -5.34375,-5.3457 5.3454084,5.3454084 0 0 0 -0.03711,0 z m 55.541015,0 a 5.3454084,5.3454084 0 0 0 -5.30859,5.3457 5.3454084,5.3454084 0 0 0 5.3457,5.34375 5.3454084,5.3454084 0 0 0 5.3457,-5.34375 5.3454084,5.3454084 0 0 0 -5.3457,-5.3457 5.3454084,5.3454084 0 0 0 -0.0371,0 z m 27.77149,0 a 5.3454084,5.3454084 0 0 0 -5.31055,5.3457 5.3454084,5.3454084 0 0 0 5.3457,5.34375 5.3454084,5.3454084 0 0 0 5.3457,-5.34375 5.3454084,5.3454084 0 0 0 -5.3457,-5.3457 5.3454084,5.3454084 0 0 0 -0.0352,0 z m 27.76953,0 a 5.3454084,5.3454084 0 0 0 -5.3086,5.3457 5.3454084,5.3454084 0 0 0 5.34571,5.34375 5.3454084,5.3454084 0 0 0 5.3457,-5.34375 5.3454084,5.3454084 0 0 0 -5.3457,-5.3457 5.3454084,5.3454084 0 0 0 -0.0371,0 z m 55.54101,0 a 5.3454084,5.3454084 0 0 0 -5.30859,5.3457 5.3454084,5.3454084 0 0 0 5.3457,5.34375 5.3454084,5.3454084 0 0 0 5.3457,-5.34375 5.3454084,5.3454084 0 0 0 -5.3457,-5.3457 5.3454084,5.3454084 0 0 0 -0.0371,0 z M 77.421875,283.34766 a 5.3454084,5.3454084 0 0 0 -5.308594,5.3457 5.3454084,5.3454084 0 0 0 5.345703,5.3457 5.3454084,5.3454084 0 0 0 5.34375,-5.3457 5.3454084,5.3454084 0 0 0 -5.34375,-5.3457 5.3454084,5.3454084 0 0 0 -0.03711,0 z m 55.541015,0 a 5.3454084,5.3454084 0 0 0 -5.30859,5.3457 5.3454084,5.3454084 0 0 0 5.3457,5.3457 5.3454084,5.3454084 0 0 0 5.3457,-5.3457 5.3454084,5.3454084 0 0 0 -5.3457,-5.3457 5.3454084,5.3454084 0 0 0 -0.0371,0 z m 13.88477,0 a 5.3454084,5.3454084 0 0 0 -5.3086,5.3457 5.3454084,5.3454084 0 0 0 5.34571,5.3457 5.3454084,5.3454084 0 0 0 5.3457,-5.3457 5.3454084,5.3454084 0 0 0 -5.3457,-5.3457 5.3454084,5.3454084 0 0 0 -0.0371,0 z m 13.88672,0 a 5.3454084,5.3454084 0 0 0 -5.31055,5.3457 5.3454084,5.3454084 0 0 0 5.3457,5.3457 5.3454084,5.3454084 0 0 0 5.3457,-5.3457 5.3454084,5.3454084 0 0 0 -5.3457,-5.3457 5.3454084,5.3454084 0 0 0 -0.0352,0 z m 27.76953,0 a 5.3454084,5.3454084 0 0 0 -5.3086,5.3457 5.3454084,5.3454084 0 0 0 5.34571,5.3457 5.3454084,5.3454084 0 0 0 5.3457,-5.3457 5.3454084,5.3454084 0 0 0 -5.3457,-5.3457 5.3454084,5.3454084 0 0 0 -0.0371,0 z m 13.88476,0 a 5.3454084,5.3454084 0 0 0 -5.30859,5.3457 5.3454084,5.3454084 0 0 0 5.3457,5.3457 5.3454084,5.3454084 0 0 0 5.3457,-5.3457 5.3454084,5.3454084 0 0 0 -5.3457,-5.3457 5.3454084,5.3454084 0 0 0 -0.0371,0 z m 13.88672,0 a 5.3454084,5.3454084 0 0 0 -5.30859,5.3457 5.3454084,5.3454084 0 0 0 5.34375,5.3457 5.3454084,5.3454084 0 0 0 5.3457,-5.3457 5.3454084,5.3454084 0 0 0 -5.3457,-5.3457 5.3454084,5.3454084 0 0 0 -0.0352,0 z m 27.76953,0 a 5.3454084,5.3454084 0 0 0 -5.30859,5.3457 5.3454084,5.3454084 0 0 0 5.3457,5.3457 5.3454084,5.3454084 0 0 0 5.3457,-5.3457 5.3454084,5.3454084 0 0 0 -5.3457,-5.3457 5.3454084,5.3454084 0 0 0 -0.0371,0 z m 13.88477,0 a 5.3454084,5.3454084 0 0 0 -5.3086,5.3457 5.3454084,5.3454084 0 0 0 5.34571,5.3457 5.3454084,5.3454084 0 0 0 5.3457,-5.3457 5.3454084,5.3454084 0 0 0 -5.3457,-5.3457 5.3454084,5.3454084 0 0 0 -0.0371,0 z m 13.88672,0 a 5.3454084,5.3454084 0 0 0 -5.3086,5.3457 5.3454084,5.3454084 0 0 0 5.34571,5.3457 5.3454084,5.3454084 0 0 0 5.34375,-5.3457 5.3454084,5.3454084 0 0 0 -5.34375,-5.3457 5.3454084,5.3454084 0 0 0 -0.0371,0 z"
     transform="matrix(0.26461039,0,0,0.26461039,0.89595102,-52.755146)"
     style="fill:#ff0000;fill-opacity:1;stroke:none;stroke-width:5.34541;stroke-linejoin:round;stroke-miterlimit:4;stroke-dasharray:none;stroke-opacity:1;filter:url(#filter1081)" />
  <path
     id="low"
     style="fill:#ff0000;fill-opacity:1;stroke:none;stroke-width:5.34541;stroke-linejoin:round;stroke-miterlimit:4;stroke-dasharray:none;stroke-opacity:1;filter:url(#filter1069)"
     d="m 79.542969,332.45898 a 5.3454084,5.3454084 0 0 0 -5.308594,5.34375 5.3454084,5.3454084 0 0 0 5.345703,5.34571 5.3454084,5.3454084 0 0 0 0.03516,0 5.3454084,5.3454084 0 0 0 0.388672,-0.0156 5.3454084,5.3454084 0 0 0 4.921875,-5.33008 5.3454084,5.3454084 0 0 0 -0.002,-0.0351 5.3454084,5.3454084 0 0 0 -5.34375,-5.3086 5.3454084,5.3454084 0 0 0 -0.03711,0 z m 55.541011,0 a 5.3454084,5.3454084 0 0 0 -5.30859,5.34375 5.3454084,5.3454084 0 0 0 5.3457,5.34571 5.3454084,5.3454084 0 0 0 5.34571,-5.34571 5.3454084,5.3454084 0 0 0 -5.34571,-5.34375 5.3454084,5.3454084 0 0 0 -0.0371,0 z m 13.88477,0 a 5.3454084,5.3454084 0 0 0 -5.30859,5.34375 5.3454084,5.3454084 0 0 0 5.3457,5.34571 5.3454084,5.3454084 0 0 0 5.3457,-5.34571 5.3454084,5.3454084 0 0 0 -5.3457,-5.34375 5.3454084,5.3454084 0 0 0 -0.0371,0 z m 13.88672,0 a 5.3454084,5.3454084 0 0 0 -5.30859,5.34375 5.3454084,5.3454084 0 0 0 5.34374,5.34571 5.3454084,5.3454084 0 0 0 5.34571,-5.34571 5.3454084,5.3454084 0 0 0 -5.34571,-5.34375 5.3454084,5.3454084 0 0 0 -0.0352,0 z m 27.76953,0 a 5.3454084,5.3454084 0 0 0 -5.30859,5.34375 5.3454084,5.3454084 0 0 0 5.3457,5.34571 5.3454084,5.3454084 0 0 0 5.3457,-5.34571 5.3454084,5.3454084 0 0 0 -5.3457,-5.34375 5.3454084,5.3454084 0 0 0 -0.0371,0 z m 55.54102,0 a 5.3454084,5.3454084 0 0 0 -5.3086,5.34375 5.3454084,5.3454084 0 0 0 5.3457,5.34571 5.3454084,5.3454084 0 0 0 5.34571,-5.34571 5.3454084,5.3454084 0 0 0 -5.34571,-5.34375 5.3454084,5.3454084 0 0 0 -0.0371,0 z M 79.542969,346.34375 a 5.3454084,5.3454084 0 0 0 -5.308594,5.3457 5.3454084,5.3454084 0 0 0 5.345703,5.34571 5.3454084,5.3454084 0 0 0 5.345703,-5.34571 5.3454084,5.3454084 0 0 0 -5.345703,-5.3457 5.3454084,5.3454084 0 0 0 -0.03711,0 z m 55.541011,0 a 5.3454084,5.3454084 0 0 0 -5.30859,5.3457 5.3454084,5.3454084 0 0 0 5.3457,5.34571 5.3454084,5.3454084 0 0 0 5.34571,-5.34571 5.3454084,5.3454084 0 0 0 -5.34571,-5.3457 5.3454084,5.3454084 0 0 0 -0.0371,0 z m 27.77149,0 a 5.3454084,5.3454084 0 0 0 -5.30859,5.3457 5.3454084,5.3454084 0 0 0 5.34374,5.34571 5.3454084,5.3454084 0 0 0 5.34571,-5.34571 5.3454084,5.3454084 0 0 0 -5.34571,-5.3457 5.3454084,5.3454084 0 0 0 -0.0352,0 z m 27.76953,0 a 5.3454084,5.3454084 0 0 0 -5.30859,5.3457 5.3454084,5.3454084 0 0 0 5.3457,5.34571 5.3454084,5.3454084 0 0 0 5.3457,-5.34571 5.3454084,5.3454084 0 0 0 -5.3457,-5.3457 5.3454084,5.3454084 0 0 0 -0.0371,0 z m 55.54102,0 a 5.3454084,5.3454084 0 0 0 -5.3086,5.3457 5.3454084,5.3454084 0 0 0 5.3457,5.34571 5.3454084,5.3454084 0 0 0 5.34571,-5.34571 5.3454084,5.3454084 0 0 0 -5.34571,-5.3457 5.3454084,5.3454084 0 0 0 -0.0371,0 z M 79.542969,360.22852 a 5.3454084,5.3454084 0 0 0 -5.308594,5.3457 5.3454084,5.3454084 0 0 0 5.345703,5.3457 5.3454084,5.3454084 0 0 0 5.345703,-5.3457 5.3454084,5.3454084 0 0 0 -5.345703,-5.3457 5.3454084,5.3454084 0 0 0 -0.03711,0 z m 55.541011,0 a 5.3454084,5.3454084 0 0 0 -5.30859,5.3457 5.3454084,5.3454084 0 0 0 5.3457,5.3457 5.3454084,5.3454084 0 0 0 5.34571,-5.3457 5.3454084,5.3454084 0 0 0 -5.34571,-5.3457 5.3454084,5.3454084 0 0 0 -0.0371,0 z m 27.77149,0 a 5.3454084,5.3454084 0 0 0 -5.30859,5.3457 5.3454084,5.3454084 0 0 0 5.34374,5.3457 5.3454084,5.3454084 0 0 0 5.34571,-5.3457 5.3454084,5.3454084 0 0 0 -5.34571,-5.3457 5.3454084,5.3454084 0 0 0 -0.0352,0 z m 27.76953,0 a 5.3454084,5.3454084 0 0 0 -5.30859,5.3457 5.3454084,5.3454084 0 0 0 5.3457,5.3457 5.3454084,5.3454084 0 0 0 5.3457,-5.3457 5.3454084,5.3454084 0 0 0 -5.3457,-5.3457 5.3454084,5.3454084 0 0 0 -0.0371,0 z m 27.77148,0 a 5.3454084,5.3454084 0 0 0 -5.30859,5.3457 5.3454084,5.3454084 0 0 0 5.3457,5.3457 5.3454084,5.3454084 0 0 0 5.34375,-5.3457 5.3454084,5.3454084 0 0 0 -5.34375,-5.3457 5.3454084,5.3454084 0 0 0 -0.0371,0 z m 27.76954,0 a 5.3454084,5.3454084 0 0 0 -5.3086,5.3457 5.3454084,5.3454084 0 0 0 5.3457,5.3457 5.3454084,5.3454084 0 0 0 5.34571,-5.3457 5.3454084,5.3454084 0 0 0 -5.34571,-5.3457 5.3454084,5.3454084 0 0 0 -0.0371,0 z M 79.542969,374.11328 a 5.3454084,5.3454084 0 0 0 -5.308594,5.3457 5.3454084,5.3454084 0 0 0 5.345703,5.34571 5.3454084,5.3454084 0 0 0 5.345703,-5.34571 5.3454084,5.3454084 0 0 0 -5.345703,-5.3457 5.3454084,5.3454084 0 0 0 -0.03711,0 z m 55.541011,0 a 5.3454084,5.3454084 0 0 0 -5.30859,5.3457 5.3454084,5.3454084 0 0 0 5.3457,5.34571 5.3454084,5.3454084 0 0 0 5.34571,-5.34571 5.3454084,5.3454084 0 0 0 -5.34571,-5.3457 5.3454084,5.3454084 0 0 0 -0.0371,0 z m 27.77149,0 a 5.3454084,5.3454084 0 0 0 -5.30859,5.3457 5.3454084,5.3454084 0 0 0 5.34374,5.34571 5.3454084,5.3454084 0 0 0 5.34571,-5.34571 5.3454084,5.3454084 0 0 0 -5.34571,-5.3457 5.3454084,5.3454084 0 0 0 -0.0352,0 z m 27.76953,0 a 5.3454084,5.3454084 0 0 0 -5.30859,5.3457 5.3454084,5.3454084 0 0 0 5.3457,5.34571 5.3454084,5.3454084 0 0 0 5.3457,-5.34571 5.3454084,5.3454084 0 0 0 -5.3457,-5.3457 5.3454084,5.3454084 0 0 0 -0.0371,0 z m 13.88477,0 a 5.3454084,5.3454084 0 0 0 -5.3086,5.3457 5.3454084,5.3454084 0 0 0 5.34571,5.34571 5.3454084,5.3454084 0 0 0 5.3457,-5.34571 5.3454084,5.3454084 0 0 0 -5.3457,-5.3457 5.3454084,5.3454084 0 0 0 -0.0371,0 z m 27.77148,0 a 5.3454084,5.3454084 0 0 0 -5.30859,5.3457 5.3454084,5.3454084 0 0 0 5.3457,5.34571 5.3454084,5.3454084 0 0 0 5.3457,-5.34571 5.3454084,5.3454084 0 0 0 -5.3457,-5.3457 5.3454084,5.3454084 0 0 0 -0.0371,0 z m 13.88477,0 a 5.3454084,5.3454084 0 0 0 -5.3086,5.3457 5.3454084,5.3454084 0 0 0 5.3457,5.34571 5.3454084,5.3454084 0 0 0 5.34571,-5.34571 5.3454084,5.3454084 0 0 0 -5.34571,-5.3457 5.3454084,5.3454084 0 0 0 -0.0371,0 z M 79.542969,388 a 5.3454084,5.3454084 0 0 0 -5.308594,5.3457 5.3454084,5.3454084 0 0 0 5.345703,5.34375 5.3454084,5.3454084 0 0 0 5.345703,-5.34375 5.3454084,5.3454084 0 0 0 -5.345703,-5.3457 5.3454084,5.3454084 0 0 0 -0.03711,0 z m 13.884765,0 a 5.3454084,5.3454084 0 0 0 -5.308593,5.3457 5.3454084,5.3454084 0 0 0 5.345703,5.34375 5.3454084,5.3454084 0 0 0 5.345703,-5.34375 5.3454084,5.3454084 0 0 0 -5.345703,-5.3457 5.3454084,5.3454084 0 0 0 -0.03711,0 z m 13.884766,0 a 5.3454084,5.3454084 0 0 0 -5.30859,5.3457 5.3454084,5.3454084 0 0 0 5.3457,5.34375 5.3454084,5.3454084 0 0 0 5.3457,-5.34375 5.3454084,5.3454084 0 0 0 -5.3457,-5.3457 5.3454084,5.3454084 0 0 0 -0.0371,0 z m 27.77148,0 a 5.3454084,5.3454084 0 0 0 -5.30859,5.3457 5.3454084,5.3454084 0 0 0 5.3457,5.34375 5.3454084,5.3454084 0 0 0 5.34571,-5.34375 5.3454084,5.3454084 0 0 0 -5.34571,-5.3457 5.3454084,5.3454084 0 0 0 -0.0371,0 z m 13.88477,0 a 5.3454084,5.3454084 0 0 0 -5.30859,5.3457 5.3454084,5.3454084 0 0 0 5.3457,5.34375 5.3454084,5.3454084 0 0 0 5.3457,-5.34375 5.3454084,5.3454084 0 0 0 -5.3457,-5.3457 5.3454084,5.3454084 0 0 0 -0.0371,0 z m 13.88672,0 a 5.3454084,5.3454084 0 0 0 -5.30859,5.3457 5.3454084,5.3454084 0 0 0 5.34374,5.34375 5.3454084,5.3454084 0 0 0 5.34571,-5.34375 5.3454084,5.3454084 0 0 0 -5.34571,-5.3457 5.3454084,5.3454084 0 0 0 -0.0352,0 z m 27.76953,0 a 5.3454084,5.3454084 0 0 0 -5.30859,5.3457 5.3454084,5.3454084 0 0 0 5.3457,5.34375 5.3454084,5.3454084 0 0 0 5.3457,-5.34375 5.3454084,5.3454084 0 0 0 -5.3457,-5.3457 5.3454084,5.3454084 0 0 0 -0.0371,0 z m 55.54102,0 a 5.3454084,5.3454084 0 0 0 -5.3086,5.3457 5.3454084,5.3454084 0 0 0 5.3457,5.34375 5.3454084,5.3454084 0 0 0 5.34571,-5.34375 5.3454084,5.3454084 0 0 0 -5.34571,-5.3457 5.3454084,5.3454084 0 0 0 -0.0371,0 z"
     transform="matrix(0.26461039,0,0,0.26461039,4.0087396,-80.447759)" />
  <path
     id="mask"
     style="fill:#000000;fill-opacity:1;stroke-width:0.120002;stroke-linejoin:round"
     d="M -0.03638566,0 V 197.66397 H 15.103256 V 0 Z M 7.5329183,1.027433 c 3.0036347,-1.4e-5 5.4706767,2.341925 5.6824047,5.293758 h 0.01705 c 0,0.03784 -0.0045,0.07407 -0.0083,0.110599 0.0052,0.09959 0.0078,0.199939 0.0078,0.300787 v 37.824815 h 5.17e-4 c 0,0.0023 -5.02e-4,0.0043 -5.17e-4,0.0067 v 38.229483 h 5.17e-4 c 0,0.0023 -5.02e-4,0.0043 -5.17e-4,0.0067 v 38.229485 h 5.17e-4 c 0,0.003 -5.02e-4,0.005 -5.17e-4,0.007 v 38.22896 h 5.17e-4 c 0,0.003 -5.02e-4,0.005 -5.17e-4,0.007 v 31.92431 c 1.2e-5,3.14286 -2.556888,5.70361 -5.6989427,5.7036 -3.142055,1e-5 -5.697406,-2.56073 -5.697392,-5.7036 v -31.91759 c -2.2e-5,-0.004 -0.001,-0.008 -0.001,-0.0134 h 0.001 v -38.22251 c -2.2e-5,-0.004 -0.001,-0.008 -0.001,-0.0134 h 0.001 v -38.2231 c -2.2e-5,-0.0045 -0.001,-0.0088 -0.001,-0.01344 h 0.001 V 44.570829 c -2.2e-5,-0.0045 -0.001,-0.0088 -0.001,-0.01344 h 0.001 V 6.732574 c 0,-0.0998 0.0027,-0.199116 0.0078,-0.297686 -0.004,-0.03752 -0.0088,-0.07479 -0.0088,-0.1137 h 0.01757 C 2.0636763,3.369354 4.5293263,1.027416 7.5329623,1.02743 Z"
     sodipodi:nodetypes="cccccccccscccccccccccccscccccccccccccsccccc" />
  <g
     id="button">
    <path
       style="fill:#ff0000;fill-opacity:1;stroke-width:0.52922079;stroke-linejoin:round;stroke:#ffffff;stroke-opacity:1;stroke-miterlimit:4;stroke-dasharray:none"
       d="m 32.137037,33.09013 h 29.9487 c 1.551693,0 2.80089,1.320379 2.80089,2.960492 v 4.650606 c 0,1.640113 -1.249197,2.960492 -2.80089,2.960492 h -29.9487 c -1.551693,0 -2.80089,-1.320379 -2.80089,-2.960492 v -4.650606 c 0,-1.640113 1.249197,-2.960492 2.80089,-2.960492 z" />
    <g
       transform="translate(-1.7141431)">
      <g
         aria-label="ReFill"
         transform="translate(2.6036157,1.0326611)"
         id="text863"
         style="font-style:normal;font-variant:normal;font-weight:normal;font-stretch:normal;font-size:7.40909px;line-height:1.25;font-family:'Cooper Black';-inkscape-font-specification:'Cooper Black, ';letter-spacing:0px;word-spacing:0px;white-space:pre;shape-inside:url(#rect865);fill:#ffffff">
        <path
           d="m 34.647416,37.695992 q -0.137473,0 -0.177268,0.08321 -0.03618,0.08321 -0.03618,0.387096 0,0.459451 0.05788,0.716309 0.01809,0.07235 0.05427,0.112149 0.03618,0.03979 0.137473,0.09768 0.217064,0.119385 0.217064,0.314742 0,0.238769 -0.303889,0.340066 -0.300271,0.09768 -1.020197,0.09768 -1.338556,0 -1.338556,-0.506481 0,-0.08683 0.0398,-0.137473 0.03979,-0.05427 0.180886,-0.148327 0.159179,-0.104913 0.213445,-0.246005 0.05788,-0.144708 0.07959,-0.495627 0.01809,-0.256858 0.01809,-1.841419 0,-0.502864 -0.05065,-0.683749 -0.05065,-0.180886 -0.217064,-0.264094 -0.159179,-0.07597 -0.213445,-0.137473 -0.05427,-0.06512 -0.05427,-0.166415 0,-0.133856 0.101296,-0.231535 0.104914,-0.101296 0.289418,-0.148326 0.155562,-0.03979 0.426891,-0.03979 0.119385,0 0.596924,0.03618 0.09044,0.0072 0.285799,0.0072 0.325595,0 0.868253,-0.04341 0.343684,-0.02532 0.481157,-0.02532 0.774192,0 1.280673,0.372625 0.455832,0.336448 0.455832,0.933372 0,0.33283 -0.159179,0.607777 -0.15918,0.271329 -0.437744,0.408802 -0.115767,0.05788 -0.115767,0.137473 0,0.104914 0.177268,0.170033 0.37986,0.137474 0.557129,0.416038 0.177268,0.278564 0.25324,0.853782 0.03256,0.238769 0.09406,0.311124 0.0615,0.06874 0.2858,0.133855 0.06874,0.02171 0.115767,0.09406 0.04703,0.06874 0.04703,0.155562 0,0.112149 -0.08682,0.227916 -0.08683,0.11215 -0.224299,0.177269 -0.303888,0.141091 -0.832075,0.141091 -0.705456,0 -1.009344,-0.372625 -0.137474,-0.166416 -0.235152,-0.419656 -0.09406,-0.25324 -0.224299,-0.788663 -0.08321,-0.343683 -0.213445,-0.484774 -0.12662,-0.141091 -0.36539,-0.151944 z m -0.209827,-1.845038 -0.0398,0.842929 q 0,0.01085 0,0.03256 0,0.130238 0.03618,0.17365 0.03979,0.04341 0.155562,0.04341 0.318359,0 0.463068,-0.162798 0.144709,-0.166415 0.144709,-0.528187 0,-0.69822 -0.495628,-0.69822 -0.141091,0 -0.198975,0.06512 -0.05788,0.06512 -0.06512,0.231534 z"
           style="font-style:normal;font-variant:normal;font-weight:normal;font-stretch:normal;font-size:7.40909px;font-family:'Cooper Black';-inkscape-font-specification:'Cooper Black, ';fill:#ffffff"
           id="path898" />
        <path
           d="m 41.260608,38.151824 h -1.700329 q -0.112149,0 -0.112149,0.09768 0,0.235151 0.25324,0.444979 0.256858,0.20621 0.549894,0.20621 0.17365,0 0.383478,-0.06512 0.213446,-0.06874 0.350919,-0.166415 0.123002,-0.08683 0.195357,-0.08683 0.09406,0 0.184503,0.115767 0.09044,0.115767 0.09044,0.238769 0,0.260476 -0.325594,0.502863 -0.575218,0.430509 -1.327703,0.430509 -0.759722,0 -1.273438,-0.441362 -0.249622,-0.217063 -0.41242,-0.524569 -0.213445,-0.408802 -0.213445,-0.861017 0,-0.607777 0.369007,-1.092552 0.318359,-0.419655 0.810369,-0.625865 0.369008,-0.155562 0.799516,-0.155562 0.687367,0 1.168524,0.390714 0.242387,0.195356 0.390714,0.463068 0.170032,0.303888 0.170032,0.593306 0,0.235151 -0.09768,0.387096 -0.09768,0.148326 -0.25324,0.148326 z M 39.65434,37.475311 h 0.36539 q 0.231534,0 0.231534,-0.213446 0,-0.195357 -0.11215,-0.318359 -0.112149,-0.123003 -0.293035,-0.123003 -0.202592,0 -0.318359,0.15918 -0.108532,0.148327 -0.108532,0.300271 0,0.108531 0.05065,0.151944 0.05427,0.04341 0.184504,0.04341 z"
           style="font-style:normal;font-variant:normal;font-weight:normal;font-stretch:normal;font-size:7.40909px;font-family:'Cooper Black';-inkscape-font-specification:'Cooper Black, ';fill:#ffffff"
           id="path900" />
        <path
           d="m 44.505702,35.579625 q -0.249623,0 -0.307506,0.126621 -0.04341,0.09406 -0.08321,0.369007 -0.03618,0.274947 -0.03618,0.499245 0,0.133856 0.08682,0.184504 0.08683,0.05065 0.325595,0.05065 0.15918,0 0.235152,-0.05788 0.07597,-0.05788 0.104914,-0.195357 0.08321,-0.394332 0.340065,-0.394332 0.441362,0 0.441362,1.056375 0,0.669278 -0.191739,0.984019 -0.115767,0.191739 -0.318359,0.191739 -0.213446,0 -0.246005,-0.285799 -0.01809,-0.184504 -0.04703,-0.260476 -0.02532,-0.07597 -0.101296,-0.144709 -0.119384,-0.112149 -0.347301,-0.112149 -0.162797,0 -0.220681,0.05788 -0.05788,0.05788 -0.05065,0.220681 0,0.02894 -0.0036,0.336448 0,0.625866 0.130237,0.763339 0.04341,0.05427 0.08683,0.07235 0.04703,0.01447 0.238769,0.04341 0.09406,0.01447 0.15918,0.09768 0.06512,0.08321 0.06512,0.191739 0,0.278565 -0.325595,0.358155 -0.470303,0.112149 -1.320468,0.112149 -0.74525,0 -1.027432,-0.08683 -0.12662,-0.03979 -0.20621,-0.144709 -0.07959,-0.104914 -0.07959,-0.231534 0,-0.15918 0.115767,-0.256858 0.02894,-0.02171 0.198975,-0.09044 0.202592,-0.07959 0.242387,-0.369008 0.06512,-0.444979 0.06512,-2.02954 0,-0.683749 -0.04703,-0.886342 -0.04703,-0.202592 -0.227917,-0.282182 -0.180886,-0.07959 -0.238769,-0.137473 -0.05427,-0.0615 -0.05427,-0.173651 0,-0.159179 0.155562,-0.264093 0.155562,-0.108532 0.383478,-0.108532 0.144709,0 0.423273,0.02171 0.589689,0.04703 1.410911,0.04703 1.313232,0 1.769065,-0.07235 0.0615,-0.0072 0.09406,-0.0072 0.12662,0 0.242387,0.144709 0.318359,0.405184 0.318359,0.897194 0,0.224299 -0.104914,0.358155 -0.104913,0.133855 -0.274946,0.133855 -0.12662,0 -0.191739,-0.05065 -0.06512,-0.05065 -0.332831,-0.354536 -0.162797,-0.188122 -0.394331,-0.246005 -0.227916,-0.05788 -0.853782,-0.07597 z"
           style="font-style:normal;font-variant:normal;font-weight:normal;font-stretch:normal;font-size:7.40909px;font-family:'Cooper Black';-inkscape-font-specification:'Cooper Black, ';fill:#ffffff"
           id="path902" />
        <path
           d="m 48.836113,36.418936 v 2.101896 q 0,0.249622 0.04341,0.365389 0.04703,0.115767 0.184504,0.213446 0.112149,0.07959 0.148327,0.137473 0.03979,0.05427 0.03979,0.141091 0,0.466686 -1.182994,0.466686 -0.636719,0 -1.009344,-0.101296 -0.12662,-0.03618 -0.20621,-0.12662 -0.07597,-0.09044 -0.07597,-0.20621 0,-0.09768 0.03979,-0.151945 0.03979,-0.05427 0.202592,-0.17365 0.11215,-0.08321 0.15918,-0.271329 0.04703,-0.188121 0.04703,-0.560747 0,-0.119384 -0.01809,-0.444979 -0.01447,-0.329213 -0.02171,-0.383478 -0.02171,-0.148327 -0.202593,-0.227917 -0.224298,-0.09768 -0.224298,-0.289417 0,-0.227917 0.293035,-0.340066 0.405185,-0.155562 0.868253,-0.264094 0.463068,-0.108531 0.716308,-0.108531 0.198975,0 0.198975,0.224298 z m -0.716309,-1.584561 q 0.314742,0 0.499246,0.119385 0.184503,0.115767 0.184503,0.314742 0,0.278564 -0.278564,0.441361 -0.441362,0.256858 -1.067227,0.256858 -0.264094,0 -0.419656,-0.101296 -0.209828,-0.130238 -0.209828,-0.361772 0,-0.311124 0.44498,-0.488392 0.452215,-0.180886 0.846546,-0.180886 z"
           style="font-style:normal;font-variant:normal;font-weight:normal;font-stretch:normal;font-size:7.40909px;font-family:'Cooper Black';-inkscape-font-specification:'Cooper Black, ';fill:#ffffff"
           id="path904" />
        <path
           d="m 51.531314,36.903711 v 1.161288 q 0,0.770574 0.02171,0.897194 0.02532,0.126621 0.180886,0.195357 0.133855,0.05788 0.177268,0.108532 0.04703,0.05065 0.04703,0.144709 0,0.119384 -0.08682,0.217063 -0.08321,0.09768 -0.224299,0.137473 -0.260475,0.07959 -0.879105,0.07959 -0.69822,0 -0.980402,-0.104914 -0.130238,-0.04703 -0.213446,-0.144709 -0.08321,-0.101296 -0.08321,-0.209827 0,-0.08683 0.04341,-0.133856 0.04703,-0.04703 0.198975,-0.112149 0.141091,-0.0615 0.17365,-0.336448 0.05788,-0.470304 0.05788,-1.338557 0,-0.882723 -0.05065,-1.135964 -0.05065,-0.25324 -0.253241,-0.376242 -0.151944,-0.08683 -0.209827,-0.162798 -0.05427,-0.07959 -0.05427,-0.191739 0,-0.177268 0.170033,-0.307506 0.170032,-0.133856 0.542658,-0.246005 0.249622,-0.07597 0.647571,-0.144709 0.39795,-0.06874 0.578836,-0.06874 0.285799,0 0.285799,0.354537 0,0.115767 -0.03618,0.531805 -0.04703,0.647572 -0.05427,1.186612 z"
           style="font-style:normal;font-variant:normal;font-weight:normal;font-stretch:normal;font-size:7.40909px;font-family:'Cooper Black';-inkscape-font-specification:'Cooper Black, ';fill:#ffffff"
           id="path906" />
        <path
           d="m 54.237369,36.903711 v 1.161288 q 0,0.770574 0.02171,0.897194 0.02532,0.126621 0.180886,0.195357 0.133856,0.05788 0.177269,0.108532 0.04703,0.05065 0.04703,0.144709 0,0.119384 -0.08682,0.217063 -0.08321,0.09768 -0.224299,0.137473 -0.260476,0.07959 -0.879106,0.07959 -0.69822,0 -0.980402,-0.104914 -0.130238,-0.04703 -0.213445,-0.144709 -0.08321,-0.101296 -0.08321,-0.209827 0,-0.08683 0.04341,-0.133856 0.04703,-0.04703 0.198974,-0.112149 0.141091,-0.0615 0.173651,-0.336448 0.05788,-0.470304 0.05788,-1.338557 0,-0.882723 -0.05065,-1.135964 -0.05065,-0.25324 -0.25324,-0.376242 -0.151944,-0.08683 -0.209828,-0.162798 -0.05427,-0.07959 -0.05427,-0.191739 0,-0.177268 0.170033,-0.307506 0.170033,-0.133856 0.542658,-0.246005 0.249623,-0.07597 0.647572,-0.144709 0.397949,-0.06874 0.578835,-0.06874 0.2858,0 0.2858,0.354537 0,0.115767 -0.03618,0.531805 -0.04703,0.647572 -0.05427,1.186612 z"
           style="font-style:normal;font-variant:normal;font-weight:normal;font-stretch:normal;font-size:7.40909px;font-family:'Cooper Black';-inkscape-font-specification:'Cooper Black, ';fill:#ffffff"
           id="path908" />
      </g>
      <g
         id="g10"
         transform="matrix(0.00681977,0,0,0.00681977,57.615805,34.674882)"
         style="fill:#ffffff">
        <g
           transform="matrix(0.1,0,0,-0.1,0,511)"
           id="g8"
           style="fill:#ffffff">
          <path
             d="M 4132.9,4515.9 V 4021.8 H 5000 5867.1 V 4515.9 5010 H 5000 4132.9 Z"
             id="path4"
             style="fill:#ffffff" />
          <path
             d="m 3675.1,3765.8 c -60.5,-22.2 -12.1,-98.8 217.8,-350.9 310.5,-342.8 314.6,-350.9 163.3,-296.4 -375.1,133.1 -845,20.2 -1141.4,-276.3 -215.8,-215.8 -322.7,-473.9 -322.7,-786.5 0,-306.5 117,-586.8 332.7,-796.5 l 86.7,-82.7 -223.8,-217.8 C 2529.6,706.6 2432.8,545.3 2398.5,301.3 c -26.2,-193.6 -26.2,-4025.1 0,-4311.4 28.2,-290.4 78.7,-419.4 211.7,-552.5 125,-121 266.2,-175.4 552.5,-207.7 235.9,-26.2 3448.3,-26.2 3672.2,0 292.4,36.3 431.6,86.7 552.5,207.7 139.1,135.1 187.5,262.2 213.8,564.6 26.2,306.5 26.2,4136 0,4309.4 -42.3,264.2 -119,379.1 -550.5,810.7 -816.7,818.7 -1272.5,1415.6 -1300.7,1706 -12.1,143.2 52.4,250.1 352.9,580.8 240,264.2 282.3,332.7 217.8,358.9 -32.3,12.1 -300.5,-16.1 -475.9,-48.4 -538.4,-102.9 -1058.7,-102.9 -1691.9,-2 -276.1,46.4 -443.5,62.5 -477.8,48.4 z m 308.6,-1127.3 c 159.3,-74.6 165.4,-88.7 88.7,-213.8 -90.7,-147.2 -262.1,-369 -488,-631.2 -260.1,-302.5 -235.9,-288.4 -336.8,-187.5 -135.1,137.1 -173.4,235.9 -173.4,449.7 0,151.3 8.1,197.6 48.4,280.3 159.3,322.7 542.4,457.8 861.1,302.5 z M 5191.6,127.9 c 123,-231.9 197.6,-352.9 227.9,-367 40.3,-18.2 72.6,-8.1 217.8,62.5 92.8,46.4 169.4,74.6 169.4,62.5 0,-12.1 -44.4,-262.1 -100.8,-556.6 -106.9,-564.6 -106.9,-611 -12.1,-611 34.3,0 108.9,70.6 286.3,272.2 131.1,149.2 244,272.2 252.1,272.2 6.1,0 28.2,-56.5 46.4,-125 40.3,-147.2 62.5,-177.5 121,-177.5 22.2,0 165.3,26.2 314.6,58.5 149.2,32.3 274.2,56.5 276.3,54.4 2,0 -38.3,-153.3 -88.7,-338.8 -50.4,-183.5 -86.7,-348.9 -80.7,-367 6.1,-16.1 68.6,-58.5 135.1,-92.8 l 123,-62.5 -459.8,-373.1 c -518.3,-421.5 -590.8,-486 -590.8,-518.3 0,-14.1 20.2,-90.7 42.3,-171.4 24.2,-80.7 38.3,-151.2 32.3,-157.3 -6,-6.1 -233.9,14.1 -506.2,44.3 -272.2,30.2 -500.1,50.4 -508.2,42.4 -14.1,-12.1 22.2,-822.8 44.4,-1006.3 l 12.1,-96.8 H 5000 4854.8 l 10.1,106.9 c 24.2,213.8 60.5,984.1 46.4,996.2 -6.1,8.1 -235.9,-12.1 -508.2,-42.4 -272.2,-30.2 -500.1,-50.4 -506.2,-44.3 -6,6 8.1,80.7 32.3,163.3 42.3,141.2 44.4,157.3 14.1,201.7 -16.1,26.2 -254.1,229.9 -526.3,451.7 l -496.1,403.3 123,62.5 c 66.5,34.3 129.1,76.6 135.1,92.8 6,18.2 -30.3,183.5 -80.7,367 -50.4,185.5 -90.7,336.8 -88.7,338.8 2,2 127.1,-22.2 276.3,-54.4 149.2,-32.3 292.4,-58.5 314.6,-58.5 58.5,0 80.7,30.2 121,177.5 18.1,68.6 40.3,125 46.4,125 6.1,0 121,-123 252.1,-272.2 177.5,-199.6 254.1,-272.2 288.4,-272.2 92.8,0 92.8,46.4 -14.1,611 -56.5,294.4 -100.8,544.5 -100.8,556.6 0,12.1 76.6,-16.2 169.4,-62.5 145.2,-70.6 177.5,-80.7 217.8,-62.5 30.2,14.1 104.9,135.1 227.9,367 100.8,189.6 185.5,344.8 191.6,344.8 5.8,0.1 92.5,-155.1 191.4,-344.7 z"
             id="path6"
             style="fill:#ffffff" />
        </g>
      </g>
    </g>
  </g>
</svg>
