<?xml version="1.0" encoding="utf-8"?>
<!-- Svg Vector Icons : http://www.onlinewebfonts.com/icon -->
<!DOCTYPE svg PUBLIC "-//W3C//DTD SVG 1.1//EN" "http://www.w3.org/Graphics/SVG/1.1/DTD/svg11.dtd">
<svg version="1.1" xmlns="http://www.w3.org/2000/svg" xmlns:xlink="http://www.w3.org/1999/xlink" x="0px" y="0px" viewBox="0 0 1000 1000" enable-background="new 0 0 1000 1000" xml:space="preserve">
<metadata> Svg Vector Icons : http://www.onlinewebfonts.com/icon </metadata>
<g><g transform="translate(0.000000,511.000000) scale(0.100000,-0.100000)"><path d="M4132.9,4515.9v-494.1H5000h867.1v494.1V5010H5000h-867.1V4515.9z"/><path d="M3675.1,3765.8c-60.5-22.2-12.1-98.8,217.8-350.9c310.5-342.8,314.6-350.9,163.3-296.4c-375.1,133.1-845,20.2-1141.4-276.3c-215.8-215.8-322.7-473.9-322.7-786.5c0-306.5,117-586.8,332.7-796.5l86.7-82.7l-223.8-217.8c-258.1-252.1-354.9-413.4-389.2-657.4c-26.2-193.6-26.2-4025.1,0-4311.4c28.2-290.4,78.7-419.4,211.7-552.5c125-121,266.2-175.4,552.5-207.7c235.9-26.2,3448.3-26.2,3672.2,0c292.4,36.3,431.6,86.7,552.5,207.7c139.1,135.1,187.5,262.2,213.8,564.6c26.2,306.5,26.2,4136,0,4309.4c-42.3,264.2-119,379.1-550.5,810.7c-816.7,818.7-1272.5,1415.6-1300.7,1706c-12.1,143.2,52.4,250.1,352.9,580.8c240,264.2,282.3,332.7,217.8,358.9c-32.3,12.1-300.5-16.1-475.9-48.4c-538.4-102.9-1058.7-102.9-1691.9-2C3876.8,3763.8,3709.4,3779.9,3675.1,3765.8z M3983.7,2638.5c159.3-74.6,165.4-88.7,88.7-213.8c-90.7-147.2-262.1-369-488-631.2c-260.1-302.5-235.9-288.4-336.8-187.5c-135.1,137.1-173.4,235.9-173.4,449.7c0,151.3,8.1,197.6,48.4,280.3C3281.9,2658.7,3665,2793.8,3983.7,2638.5z M5191.6,127.9c123-231.9,197.6-352.9,227.9-367c40.3-18.2,72.6-8.1,217.8,62.5c92.8,46.4,169.4,74.6,169.4,62.5c0-12.1-44.4-262.1-100.8-556.6c-106.9-564.6-106.9-611-12.1-611c34.3,0,108.9,70.6,286.3,272.2c131.1,149.2,244,272.2,252.1,272.2c6.1,0,28.2-56.5,46.4-125c40.3-147.2,62.5-177.5,121-177.5c22.2,0,165.3,26.2,314.6,58.5c149.2,32.3,274.2,56.5,276.3,54.4c2,0-38.3-153.3-88.7-338.8c-50.4-183.5-86.7-348.9-80.7-367c6.1-16.1,68.6-58.5,135.1-92.8l123-62.5l-459.8-373.1c-518.3-421.5-590.8-486-590.8-518.3c0-14.1,20.2-90.7,42.3-171.4c24.2-80.7,38.3-151.2,32.3-157.3c-6-6.1-233.9,14.1-506.2,44.3c-272.2,30.2-500.1,50.4-508.2,42.4c-14.1-12.1,22.2-822.8,44.4-1006.3l12.1-96.8H5000h-145.2l10.1,106.9c24.2,213.8,60.5,984.1,46.4,996.2c-6.1,8.1-235.9-12.1-508.2-42.4c-272.2-30.2-500.1-50.4-506.2-44.3c-6,6,8.1,80.7,32.3,163.3c42.3,141.2,44.4,157.3,14.1,201.7c-16.1,26.2-254.1,229.9-526.3,451.7l-496.1,403.3l123,62.5c66.5,34.3,129.1,76.6,135.1,92.8c6,18.2-30.3,183.5-80.7,367c-50.4,185.5-90.7,336.8-88.7,338.8c2,2,127.1-22.2,276.3-54.4c149.2-32.3,292.4-58.5,314.6-58.5c58.5,0,80.7,30.2,121,177.5c18.1,68.6,40.3,125,46.4,125c6.1,0,121-123,252.1-272.2c177.5-199.6,254.1-272.2,288.4-272.2c92.8,0,92.8,46.4-14.1,611c-56.5,294.4-100.8,544.5-100.8,556.6c0,12.1,76.6-16.2,169.4-62.5c145.2-70.6,177.5-80.7,217.8-62.5c30.2,14.1,104.9,135.1,227.9,367c100.8,189.6,185.5,344.8,191.6,344.8C5006,472.7,5092.7,317.5,5191.6,127.9z"/></g></g>
</svg>