<svg xmlns="http://www.w3.org/2000/svg" width="16" height="16"><path d="M5.41 3.2c-.17 0-.27.06-.34.17-.12.22.03.35.2.45.19.1.3-.13.74-.06.44.06 1.03.33 1.58 1.27l.43-.26c-.62-1.03-1.35-1.42-1.93-1.5-.3-.05-.51-.08-.68-.07zM8 5.22c-1.35 0-2.58.1-3.48.28-.45.1-.82.2-1.1.32-.14.07-.25.14-.35.23-.1.09-.18.22-.18.37s.08.28.18.37c.1.1.21.17.35.23.08.04.19.07.29.1-.09.03-.19.06-.26.1-.15.06-.27.13-.37.22-.1.1-.18.23-.19.38 0 .15.08.28.18.37.1.1.21.17.35.23.08.04.19.07.28.1-.08.03-.18.06-.25.1-.15.06-.27.13-.37.22-.1.1-.18.23-.19.38v.01c-.55.21-1 .46-1.3.73-.32.28-.51.61-.51.97 0 .41.24.77.62 1.06.37.3.88.54 1.5.75 1.25.41 2.94.66 4.8.66 1.86 0 3.55-.25 4.8-.66.62-.2 1.13-.46 1.5-.75.38-.3.62-.65.62-1.06 0-.36-.2-.69-.5-.97a4.23 4.23 0 00-1.3-.73h-.02a.53.53 0 00-.18-.39c-.1-.1-.22-.16-.37-.23l-.25-.09c.1-.03.2-.06.28-.1.14-.06.25-.14.35-.23.1-.09.17-.22.18-.37a.52.52 0 00-.19-.38c-.1-.09-.22-.16-.37-.23l-.25-.09c.1-.03.2-.06.28-.1.14-.06.25-.14.35-.23.1-.09.18-.22.18-.37a.53.53 0 00-.18-.37c-.1-.1-.21-.16-.35-.23a4.96 4.96 0 00-1.1-.32A18.9 18.9 0 008 5.22zm0 .5c1.33 0 2.53.1 3.38.27.43.09.78.19.99.29.1.05.18.1.21.13.04.03.03.03.03.01 0-.02 0-.02-.03.01a.86.86 0 01-.21.14c-.21.1-.56.2-.99.28-.28.06-.66.1-1.01.13-.2.03-.35.06-.55.07a22.62 22.62 0 01-3.63 0c-.18-.01-.32-.04-.5-.06-.38-.04-.77-.08-1.07-.14a4.65 4.65 0 01-.99-.28.86.86 0 01-.21-.14c-.04-.03-.03-.03-.03 0l.03-.02c.03-.03.1-.08.21-.13.21-.1.56-.2.99-.29.85-.17 2.05-.27 3.38-.27zm3.27 1.65c.48.09.85.2 1.08.3.11.05.2.1.23.14.04.03.03.03.03.01 0-.02 0-.02-.03.01a.87.87 0 01-.21.13c-.22.1-.56.2-.99.29-.26.05-.62.09-.94.13l-.62.07a22.82 22.82 0 01-3.66 0L5.8 8.4c-.42-.04-.84-.09-1.17-.15a4.63 4.63 0 01-.99-.29.87.87 0 01-.21-.13c-.03-.03-.03-.02-.02 0l.02-.02a.93.93 0 01.23-.14c.23-.1.6-.21 1.08-.3l.32.04A15.3 15.3 0 008 7.62a22.66 22.66 0 003.1-.23l.17-.02zm0 1.4c.48.09.85.2 1.08.3.11.05.2.1.23.14.04.03.03.03.03 0a.25.25 0 000 .01c0-.02 0-.02-.03.01a.87.87 0 01-.21.14c-.22.1-.56.2-.99.28-.26.05-.62.09-.94.13l-.62.07a22.82 22.82 0 01-3.66 0L5.8 9.8c-.42-.04-.84-.08-1.17-.15a4.63 4.63 0 01-.99-.28.87.87 0 01-.21-.14c-.03-.03-.03-.02-.02 0l.02-.02a.93.93 0 01.23-.14c.23-.1.6-.2 1.08-.3.14.03.33.04.5.06.31.05.61.1.98.12a22.55 22.55 0 003.58 0c.42-.03.76-.08 1.11-.13l.37-.05zm0 1.4c.48.09.85.2 1.08.3.11.05.2.1.23.14.04.03.03.03.03 0l-.03.02a.87.87 0 01-.21.14c-.22.1-.56.2-.99.28-.85.17-2.05.27-3.38.27s-2.53-.1-3.38-.27a4.63 4.63 0 01-.99-.28.87.87 0 01-.21-.14c-.03-.02-.02-.02-.02 0l.02-.02a.93.93 0 01.23-.14c.23-.1.6-.2 1.08-.3.14.03.33.04.5.06.31.05.61.1.98.12a22.55 22.55 0 003.58 0c.42-.03.76-.08 1.11-.13l.37-.05z"/><path d="M3.54 5.72c-1.74.48-.13 1.52.81 1.66.7.11.44 3.32 1.27 3.36.84.04.49-3.1 1.67-3.06 1.2.04.87 1.01 1.84.93.97-.08.67-.73 1.32-.9.65-.16 2.38-.62 2.6-.78.2-.17.97-1.82-5.27-1.8-2 0-2.5.12-4.24.6z" fill="#c87137"/><path d="M8.75 5.33c0 .41-.35.86-.77.86-.41 0-.73-.45-.73-.86 0-.42.4-.66.81-.66.42 0 .69.24.69.66z" fill="red"/></svg>