<svg xmlns="http://www.w3.org/2000/svg" viewBox="0 0 65.06 46.27" version="1.1">
  <defs>
    <filter id="filter-glow" color-interpolation-filters="sRGB">
      <feFlood flood-opacity="1" flood-color="red" result="flood" id="feFlood1102" />
      <feComposite in="flood" in2="SourceGraphic" operator="in" result="composite1" id="feComposite1104" />
      <feGaussianBlur in="composite1" stdDeviation="1.2" result="blur" id="feGaussianBlur1106" />
      <feOffset dx="0" dy="0" result="offset" id="feOffset1108" />
      <feComposite in="SourceGraphic" in2="offset" operator="over" result="composite2" id="feComposite1110" />
    </filter>
  </defs>
  <path d="M3.41 5.3v21.97h58.22V5.3zm9.27 25.59v14.97h39.7V30.9z" fill="#333" />
  <path
    d="M14 0v4.72H3.4a.59.59 0 00-.58.58v21.97a.59.59 0 00.58.59H19.9v2.63h-7.21a.4.4 0 00-.4.4v14.97a.4.4 0 00.4.4h39.7a.4.4 0 00.4-.4V30.9a.4.4 0 00-.4-.4h-7.23v-2.63h16.48a.59.59 0 00.59-.59V5.3a.59.59 0 00-.59-.58H51.05V0h-1.59v4.72H15.6V0zM4 5.89h57.05v20.8H4zm16.98 21.97h23.1v2.63h-23.1zm-7.9 3.43h38.9v14.17h-38.9z"
    fill="#474747" />
  <path
    d="M6.8 7.52a1.41 1.41 0 00-1.41 1.42 1.41 1.41 0 001.41 1.41 1.41 1.41 0 001.42-1.41A1.41 1.41 0 006.8 7.52zm3.67 0a1.41 1.41 0 00-1.4 1.42 1.41 1.41 0 001.4 1.41 1.41 1.41 0 001.42-1.41 1.41 1.41 0 00-1.41-1.42 1.41 1.41 0 00-.01 0zm3.67 0a1.41 1.41 0 00-1.4 1.42 1.41 1.41 0 001.41 1.41 1.41 1.41 0 001.42-1.41 1.41 1.41 0 00-1.42-1.42zm3.68 0a1.41 1.41 0 00-1.4 1.42 1.41 1.41 0 001.4 1.41 1.41 1.41 0 001.42-1.41 1.41 1.41 0 00-1.41-1.42 1.41 1.41 0 00-.01 0zm3.67 0a1.41 1.41 0 00-1.4 1.42 1.41 1.41 0 001.41 1.41 1.41 1.41 0 001.42-1.41 1.41 1.41 0 00-1.42-1.42zm3.68 0a1.41 1.41 0 00-1.4 1.42 1.41 1.41 0 001.4 1.41 1.41 1.41 0 001.42-1.41 1.41 1.41 0 00-1.41-1.42 1.41 1.41 0 00-.01 0zm3.67 0a1.41 1.41 0 00-1.4 1.42 1.41 1.41 0 001.41 1.41 1.41 1.41 0 001.41-1.41 1.41 1.41 0 00-1.41-1.42 1.41 1.41 0 00-.01 0zm3.67 0a1.41 1.41 0 00-1.4 1.42 1.41 1.41 0 001.41 1.41 1.41 1.41 0 001.42-1.41 1.41 1.41 0 00-1.42-1.42zm3.68 0a1.41 1.41 0 00-1.4 1.42 1.41 1.41 0 001.4 1.41 1.41 1.41 0 001.42-1.41 1.41 1.41 0 00-1.41-1.42 1.41 1.41 0 00-.01 0zm3.67 0a1.41 1.41 0 00-1.4 1.42 1.41 1.41 0 001.41 1.41 1.41 1.41 0 001.42-1.41 1.41 1.41 0 00-1.42-1.42zm3.68 0a1.41 1.41 0 00-1.4 1.42 1.41 1.41 0 001.4 1.41 1.41 1.41 0 001.42-1.41 1.41 1.41 0 00-1.41-1.42 1.41 1.41 0 00-.01 0zm3.67 0a1.41 1.41 0 00-1.4 1.42 1.41 1.41 0 001.41 1.41 1.41 1.41 0 001.41-1.41 1.41 1.41 0 00-1.4-1.42 1.41 1.41 0 00-.02 0zm3.68 0a1.41 1.41 0 00-1.41 1.42 1.41 1.41 0 001.41 1.41 1.41 1.41 0 001.42-1.41 1.41 1.41 0 00-1.42-1.42zm3.67 0a1.41 1.41 0 00-1.4 1.42 1.41 1.41 0 001.4 1.41 1.41 1.41 0 001.42-1.41 1.41 1.41 0 00-1.41-1.42 1.41 1.41 0 00-.01 0zm3.67 0a1.41 1.41 0 00-1.4 1.42 1.41 1.41 0 001.41 1.41 1.41 1.41 0 001.42-1.41 1.41 1.41 0 00-1.42-1.42zM6.8 11.2a1.41 1.41 0 00-1.4 1.41 1.41 1.41 0 001.41 1.42 1.41 1.41 0 001.42-1.42A1.41 1.41 0 006.8 11.2zm3.68 0a1.41 1.41 0 00-1.4 1.41 1.41 1.41 0 001.4 1.42 1.41 1.41 0 001.42-1.42 1.41 1.41 0 00-1.41-1.41 1.41 1.41 0 00-.01 0zm3.67 0a1.41 1.41 0 00-1.4 1.41 1.41 1.41 0 001.41 1.42 1.41 1.41 0 001.42-1.42 1.41 1.41 0 00-1.42-1.41zm3.68 0a1.41 1.41 0 00-1.4 1.41 1.41 1.41 0 001.4 1.42 1.41 1.41 0 001.42-1.42 1.41 1.41 0 00-1.41-1.41 1.41 1.41 0 00-.01 0zm3.67 0a1.41 1.41 0 00-1.4 1.41 1.41 1.41 0 001.41 1.42 1.41 1.41 0 001.42-1.42 1.41 1.41 0 00-1.42-1.41zm3.68 0a1.41 1.41 0 00-1.4 1.41 1.41 1.41 0 001.4 1.42 1.41 1.41 0 001.42-1.42 1.41 1.41 0 00-1.41-1.41 1.41 1.41 0 00-.01 0zm3.67 0a1.41 1.41 0 00-1.4 1.41 1.41 1.41 0 001.41 1.42 1.41 1.41 0 001.41-1.42 1.41 1.41 0 00-1.41-1.41 1.41 1.41 0 00-.01 0zm3.67 0a1.41 1.41 0 00-1.4 1.41 1.41 1.41 0 001.41 1.42 1.41 1.41 0 001.42-1.42 1.41 1.41 0 00-1.42-1.41zm3.68 0a1.41 1.41 0 00-1.4 1.41 1.41 1.41 0 001.4 1.42 1.41 1.41 0 001.42-1.42 1.41 1.41 0 00-1.41-1.41 1.41 1.41 0 00-.01 0zm3.67 0a1.41 1.41 0 00-1.4 1.41 1.41 1.41 0 001.41 1.42 1.41 1.41 0 001.42-1.42 1.41 1.41 0 00-1.42-1.41zm3.68 0a1.41 1.41 0 00-1.4 1.41 1.41 1.41 0 001.4 1.42 1.41 1.41 0 001.42-1.42 1.41 1.41 0 00-1.41-1.41 1.41 1.41 0 00-.01 0zm3.67 0a1.41 1.41 0 00-1.4 1.41 1.41 1.41 0 001.41 1.42 1.41 1.41 0 001.41-1.42 1.41 1.41 0 00-1.4-1.41 1.41 1.41 0 00-.02 0zm3.68 0a1.41 1.41 0 00-1.41 1.41 1.41 1.41 0 001.41 1.42 1.41 1.41 0 001.42-1.42 1.41 1.41 0 00-1.42-1.41zm3.67 0a1.41 1.41 0 00-1.4 1.41 1.41 1.41 0 001.4 1.42 1.41 1.41 0 001.42-1.42 1.41 1.41 0 00-1.41-1.41 1.41 1.41 0 00-.01 0zm3.67 0a1.41 1.41 0 00-1.4 1.41 1.41 1.41 0 001.41 1.42 1.41 1.41 0 001.42-1.42 1.41 1.41 0 00-1.42-1.41zM6.8 14.87a1.41 1.41 0 00-1.4 1.42A1.41 1.41 0 006.8 17.7a1.41 1.41 0 001.42-1.41 1.41 1.41 0 00-1.42-1.42zm3.68 0a1.41 1.41 0 00-1.4 1.42 1.41 1.41 0 001.4 1.41 1.41 1.41 0 001.42-1.41 1.41 1.41 0 00-1.41-1.42 1.41 1.41 0 00-.01 0zm3.67 0a1.41 1.41 0 00-1.4 1.42 1.41 1.41 0 001.41 1.41 1.41 1.41 0 001.42-1.41 1.41 1.41 0 00-1.42-1.42zm3.68 0a1.41 1.41 0 00-1.4 1.42 1.41 1.41 0 001.4 1.41 1.41 1.41 0 001.42-1.41 1.41 1.41 0 00-1.41-1.42 1.41 1.41 0 00-.01 0zm3.67 0a1.41 1.41 0 00-1.4 1.42 1.41 1.41 0 001.41 1.41 1.41 1.41 0 001.42-1.41 1.41 1.41 0 00-1.42-1.42zm3.68 0a1.41 1.41 0 00-1.4 1.42 1.41 1.41 0 001.4 1.41 1.41 1.41 0 001.42-1.41 1.41 1.41 0 00-1.41-1.42 1.41 1.41 0 00-.01 0zm3.67 0a1.41 1.41 0 00-1.4 1.42 1.41 1.41 0 001.41 1.41 1.41 1.41 0 001.41-1.41 1.41 1.41 0 00-1.41-1.42 1.41 1.41 0 00-.01 0zm3.67 0a1.41 1.41 0 00-1.4 1.42 1.41 1.41 0 001.41 1.41 1.41 1.41 0 001.42-1.41 1.41 1.41 0 00-1.42-1.42zm3.68 0a1.41 1.41 0 00-1.4 1.42 1.41 1.41 0 001.4 1.41 1.41 1.41 0 001.42-1.41 1.41 1.41 0 00-1.41-1.42 1.41 1.41 0 00-.01 0zm3.67 0a1.41 1.41 0 00-1.4 1.42 1.41 1.41 0 001.41 1.41 1.41 1.41 0 001.42-1.41 1.41 1.41 0 00-1.42-1.42zm3.68 0a1.41 1.41 0 00-1.4 1.42 1.41 1.41 0 001.4 1.41 1.41 1.41 0 001.42-1.41 1.41 1.41 0 00-1.41-1.42 1.41 1.41 0 00-.01 0zm3.67 0a1.41 1.41 0 00-1.4 1.42 1.41 1.41 0 001.41 1.41 1.41 1.41 0 001.41-1.41 1.41 1.41 0 00-1.4-1.42 1.41 1.41 0 00-.02 0zm3.68 0a1.41 1.41 0 00-1.41 1.42 1.41 1.41 0 001.41 1.41 1.41 1.41 0 001.42-1.41 1.41 1.41 0 00-1.42-1.42zm3.67 0a1.41 1.41 0 00-1.4 1.42 1.41 1.41 0 001.4 1.41 1.41 1.41 0 001.42-1.41 1.41 1.41 0 00-1.41-1.42 1.41 1.41 0 00-.01 0zm3.67 0a1.41 1.41 0 00-1.4 1.42 1.41 1.41 0 001.41 1.41 1.41 1.41 0 001.42-1.41 1.41 1.41 0 00-1.42-1.42zM6.8 18.55a1.41 1.41 0 00-1.4 1.41 1.41 1.41 0 001.41 1.42 1.41 1.41 0 001.42-1.42 1.41 1.41 0 00-1.42-1.41zm3.68 0a1.41 1.41 0 00-1.4 1.41 1.41 1.41 0 001.4 1.42 1.41 1.41 0 001.42-1.42 1.41 1.41 0 00-1.41-1.41 1.41 1.41 0 00-.01 0zm3.67 0a1.41 1.41 0 00-1.4 1.41 1.41 1.41 0 001.41 1.42 1.41 1.41 0 001.42-1.42 1.41 1.41 0 00-1.42-1.41zm3.68 0a1.41 1.41 0 00-1.4 1.41 1.41 1.41 0 001.4 1.42 1.41 1.41 0 001.42-1.42 1.41 1.41 0 00-1.41-1.41 1.41 1.41 0 00-.01 0zm3.67 0a1.41 1.41 0 00-1.4 1.41 1.41 1.41 0 001.41 1.42 1.41 1.41 0 001.42-1.42 1.41 1.41 0 00-1.42-1.41zm3.68 0a1.41 1.41 0 00-1.4 1.41 1.41 1.41 0 001.4 1.42 1.41 1.41 0 001.42-1.42 1.41 1.41 0 00-1.41-1.41 1.41 1.41 0 00-.01 0zm3.67 0a1.41 1.41 0 00-1.4 1.41 1.41 1.41 0 001.41 1.42 1.41 1.41 0 001.41-1.42 1.41 1.41 0 00-1.41-1.41 1.41 1.41 0 00-.01 0zm3.67 0a1.41 1.41 0 00-1.4 1.41 1.41 1.41 0 001.41 1.42 1.41 1.41 0 001.42-1.42 1.41 1.41 0 00-1.42-1.41zm3.68 0a1.41 1.41 0 00-1.4 1.41 1.41 1.41 0 001.4 1.42 1.41 1.41 0 001.42-1.42 1.41 1.41 0 00-1.41-1.41 1.41 1.41 0 00-.01 0zm3.67 0a1.41 1.41 0 00-1.4 1.41 1.41 1.41 0 001.41 1.42 1.41 1.41 0 001.42-1.42 1.41 1.41 0 00-1.42-1.41zm3.68 0a1.41 1.41 0 00-1.4 1.41 1.41 1.41 0 001.4 1.42 1.41 1.41 0 001.42-1.42 1.41 1.41 0 00-1.41-1.41 1.41 1.41 0 00-.01 0zm3.67 0a1.41 1.41 0 00-1.4 1.41 1.41 1.41 0 001.41 1.42 1.41 1.41 0 001.41-1.42 1.41 1.41 0 00-1.4-1.41 1.41 1.41 0 00-.02 0zm3.68 0a1.41 1.41 0 00-1.41 1.41 1.41 1.41 0 001.41 1.42 1.41 1.41 0 001.42-1.42 1.41 1.41 0 00-1.42-1.41zm3.67 0a1.41 1.41 0 00-1.4 1.41 1.41 1.41 0 001.4 1.42 1.41 1.41 0 001.42-1.42 1.41 1.41 0 00-1.41-1.41 1.41 1.41 0 00-.01 0zm3.67 0a1.41 1.41 0 00-1.4 1.41 1.41 1.41 0 001.41 1.42 1.41 1.41 0 001.42-1.42 1.41 1.41 0 00-1.42-1.41zM6.8 22.22a1.41 1.41 0 00-1.4 1.42 1.41 1.41 0 001.41 1.41 1.41 1.41 0 001.42-1.41 1.41 1.41 0 00-1.42-1.42zm3.68 0a1.41 1.41 0 00-1.4 1.42 1.41 1.41 0 001.4 1.41 1.41 1.41 0 001.42-1.41 1.41 1.41 0 00-1.41-1.42 1.41 1.41 0 00-.01 0zm3.67 0a1.41 1.41 0 00-1.4 1.42 1.41 1.41 0 001.41 1.41 1.41 1.41 0 001.42-1.41 1.41 1.41 0 00-1.42-1.42zm3.68 0a1.41 1.41 0 00-1.4 1.42 1.41 1.41 0 001.4 1.41 1.41 1.41 0 001.42-1.41 1.41 1.41 0 00-1.41-1.42 1.41 1.41 0 00-.01 0zm3.67 0a1.41 1.41 0 00-1.4 1.42 1.41 1.41 0 001.41 1.41 1.41 1.41 0 001.42-1.41 1.41 1.41 0 00-1.42-1.42zm3.68 0a1.41 1.41 0 00-1.4 1.42 1.41 1.41 0 001.4 1.41 1.41 1.41 0 001.42-1.41 1.41 1.41 0 00-1.41-1.42 1.41 1.41 0 00-.01 0zm3.67 0a1.41 1.41 0 00-1.4 1.42 1.41 1.41 0 001.41 1.41 1.41 1.41 0 001.41-1.41 1.41 1.41 0 00-1.41-1.42 1.41 1.41 0 00-.01 0zm3.67 0a1.41 1.41 0 00-1.4 1.42 1.41 1.41 0 001.41 1.41 1.41 1.41 0 001.42-1.41 1.41 1.41 0 00-1.42-1.42zm3.68 0a1.41 1.41 0 00-1.4 1.42 1.41 1.41 0 001.4 1.41 1.41 1.41 0 001.42-1.41 1.41 1.41 0 00-1.41-1.42 1.41 1.41 0 00-.01 0zm3.67 0a1.41 1.41 0 00-1.4 1.42 1.41 1.41 0 001.41 1.41 1.41 1.41 0 001.42-1.41 1.41 1.41 0 00-1.42-1.42zm3.68 0a1.41 1.41 0 00-1.4 1.42 1.41 1.41 0 001.4 1.41 1.41 1.41 0 001.42-1.41 1.41 1.41 0 00-1.41-1.42 1.41 1.41 0 00-.01 0zm3.67 0a1.41 1.41 0 00-1.4 1.42 1.41 1.41 0 001.41 1.41 1.41 1.41 0 001.41-1.41 1.41 1.41 0 00-1.4-1.42 1.41 1.41 0 00-.02 0zm3.68 0a1.41 1.41 0 00-1.41 1.42 1.41 1.41 0 001.41 1.41 1.41 1.41 0 001.42-1.41 1.41 1.41 0 00-1.42-1.42zm3.67 0a1.41 1.41 0 00-1.4 1.42 1.41 1.41 0 001.4 1.41 1.41 1.41 0 001.42-1.41 1.41 1.41 0 00-1.41-1.42 1.41 1.41 0 00-.01 0zm3.67 0a1.41 1.41 0 00-1.4 1.42 1.41 1.41 0 001.41 1.41 1.41 1.41 0 001.42-1.41 1.41 1.41 0 00-1.42-1.42z" />
  <path id="full"
    d="M6.8 7.52a1.41 1.41 0 00-1.41 1.42 1.41 1.41 0 001.41 1.41 1.41 1.41 0 001.42-1.41A1.41 1.41 0 006.8 7.52zm3.67 0a1.41 1.41 0 00-1.4 1.42 1.41 1.41 0 001.4 1.41 1.41 1.41 0 001.42-1.41 1.41 1.41 0 00-1.41-1.42 1.41 1.41 0 00-.01 0zm3.67 0a1.41 1.41 0 00-1.4 1.42 1.41 1.41 0 001.41 1.41 1.41 1.41 0 001.42-1.41 1.41 1.41 0 00-1.42-1.42zm7.35 0a1.41 1.41 0 00-1.4 1.42 1.41 1.41 0 001.41 1.41 1.41 1.41 0 001.42-1.41 1.41 1.41 0 00-1.42-1.42zm7.35 0a1.41 1.41 0 00-1.4 1.42 1.41 1.41 0 001.41 1.41 1.41 1.41 0 001.41-1.41 1.41 1.41 0 00-1.41-1.42 1.41 1.41 0 00-.01 0zm7.35 0a1.41 1.41 0 00-1.4 1.42 1.41 1.41 0 001.4 1.41 1.41 1.41 0 001.42-1.41 1.41 1.41 0 00-1.41-1.42 1.41 1.41 0 00-.01 0zm14.7 0a1.41 1.41 0 00-1.41 1.42 1.41 1.41 0 001.41 1.41 1.41 1.41 0 001.42-1.41 1.41 1.41 0 00-1.42-1.42zM6.79 11.2a1.41 1.41 0 00-1.4 1.41 1.41 1.41 0 001.41 1.42 1.41 1.41 0 001.42-1.42A1.41 1.41 0 006.8 11.2zm14.7 0a1.41 1.41 0 00-1.4 1.41 1.41 1.41 0 001.41 1.42 1.41 1.41 0 001.42-1.42 1.41 1.41 0 00-1.42-1.41zm7.35 0a1.41 1.41 0 00-1.4 1.41 1.41 1.41 0 001.41 1.42 1.41 1.41 0 001.41-1.42 1.41 1.41 0 00-1.41-1.41 1.41 1.41 0 00-.01 0zm7.35 0a1.41 1.41 0 00-1.4 1.41 1.41 1.41 0 001.4 1.42 1.41 1.41 0 001.42-1.42 1.41 1.41 0 00-1.41-1.41 1.41 1.41 0 00-.01 0zm14.7 0a1.41 1.41 0 00-1.41 1.41 1.41 1.41 0 001.41 1.42 1.41 1.41 0 001.42-1.42 1.41 1.41 0 00-1.42-1.41zm-44.1 3.67a1.41 1.41 0 00-1.4 1.42A1.41 1.41 0 006.8 17.7a1.41 1.41 0 001.42-1.41 1.41 1.41 0 00-1.42-1.42zm3.68 0a1.41 1.41 0 00-1.4 1.42 1.41 1.41 0 001.4 1.41 1.41 1.41 0 001.42-1.41 1.41 1.41 0 00-1.41-1.42 1.41 1.41 0 00-.01 0zm3.67 0a1.41 1.41 0 00-1.4 1.42 1.41 1.41 0 001.41 1.41 1.41 1.41 0 001.42-1.41 1.41 1.41 0 00-1.42-1.42zm7.35 0a1.41 1.41 0 00-1.4 1.42 1.41 1.41 0 001.41 1.41 1.41 1.41 0 001.42-1.41 1.41 1.41 0 00-1.42-1.42zm7.35 0a1.41 1.41 0 00-1.4 1.42 1.41 1.41 0 001.41 1.41 1.41 1.41 0 001.41-1.41 1.41 1.41 0 00-1.41-1.42 1.41 1.41 0 00-.01 0zm7.35 0a1.41 1.41 0 00-1.4 1.42 1.41 1.41 0 001.4 1.41 1.41 1.41 0 001.42-1.41 1.41 1.41 0 00-1.41-1.42 1.41 1.41 0 00-.01 0zm14.7 0a1.41 1.41 0 00-1.41 1.42 1.41 1.41 0 001.41 1.41 1.41 1.41 0 001.42-1.41 1.41 1.41 0 00-1.42-1.42zm-44.1 3.68a1.41 1.41 0 00-1.4 1.41 1.41 1.41 0 001.41 1.42 1.41 1.41 0 001.42-1.42 1.41 1.41 0 00-1.42-1.41zm14.7 0a1.41 1.41 0 00-1.4 1.41 1.41 1.41 0 001.41 1.42 1.41 1.41 0 001.42-1.42 1.41 1.41 0 00-1.42-1.41zm7.35 0a1.41 1.41 0 00-1.4 1.41 1.41 1.41 0 001.41 1.42 1.41 1.41 0 001.41-1.42 1.41 1.41 0 00-1.41-1.41 1.41 1.41 0 00-.01 0zm7.35 0a1.41 1.41 0 00-1.4 1.41 1.41 1.41 0 001.4 1.42 1.41 1.41 0 001.42-1.42 1.41 1.41 0 00-1.41-1.41 1.41 1.41 0 00-.01 0zm14.7 0a1.41 1.41 0 00-1.41 1.41 1.41 1.41 0 001.41 1.42 1.41 1.41 0 001.42-1.42 1.41 1.41 0 00-1.42-1.41zm-44.1 3.67a1.41 1.41 0 00-1.4 1.42 1.41 1.41 0 001.41 1.41 1.41 1.41 0 001.42-1.41 1.41 1.41 0 00-1.42-1.42zm14.7 0a1.41 1.41 0 00-1.4 1.42 1.41 1.41 0 001.41 1.41 1.41 1.41 0 001.42-1.41 1.41 1.41 0 00-1.42-1.42zm3.68 0a1.41 1.41 0 00-1.4 1.42 1.41 1.41 0 001.4 1.41 1.41 1.41 0 001.42-1.41 1.41 1.41 0 00-1.41-1.42 1.41 1.41 0 00-.01 0zm3.67 0a1.41 1.41 0 00-1.4 1.42 1.41 1.41 0 001.41 1.41 1.41 1.41 0 001.41-1.41 1.41 1.41 0 00-1.41-1.42 1.41 1.41 0 00-.01 0zm7.35 0a1.41 1.41 0 00-1.4 1.42 1.41 1.41 0 001.4 1.41 1.41 1.41 0 001.42-1.41 1.41 1.41 0 00-1.41-1.42 1.41 1.41 0 00-.01 0zm3.67 0a1.41 1.41 0 00-1.4 1.42 1.41 1.41 0 001.41 1.41 1.41 1.41 0 001.42-1.41 1.41 1.41 0 00-1.42-1.42zm3.68 0a1.41 1.41 0 00-1.4 1.42 1.41 1.41 0 001.4 1.41 1.41 1.41 0 001.42-1.41 1.41 1.41 0 00-1.41-1.42 1.41 1.41 0 00-.01 0zm7.35 0a1.41 1.41 0 00-1.41 1.42 1.41 1.41 0 001.41 1.41 1.41 1.41 0 001.42-1.41 1.41 1.41 0 00-1.42-1.42zm3.67 0a1.41 1.41 0 00-1.4 1.42 1.41 1.41 0 001.4 1.41 1.41 1.41 0 001.42-1.41 1.41 1.41 0 00-1.41-1.42 1.41 1.41 0 00-.01 0zm3.67 0a1.41 1.41 0 00-1.4 1.42 1.41 1.41 0 001.41 1.41 1.41 1.41 0 001.42-1.41 1.41 1.41 0 00-1.42-1.42z"
    fill="red" filter="url(#filter-glow)" />
  <path id="low"
    d="M10.47 7.52a1.41 1.41 0 00-1.4 1.42 1.41 1.41 0 001.4 1.41 1.41 1.41 0 00.02 0 1.41 1.41 0 00.1 0 1.41 1.41 0 001.3-1.41 1.41 1.41 0 000-.01 1.41 1.41 0 00-1.41-1.4 1.41 1.41 0 00-.01 0zm14.7 0a1.41 1.41 0 00-1.4 1.42 1.41 1.41 0 001.4 1.41 1.41 1.41 0 001.42-1.41 1.41 1.41 0 00-1.41-1.42 1.41 1.41 0 00-.01 0zm3.67 0a1.41 1.41 0 00-1.4 1.42 1.41 1.41 0 001.41 1.41 1.41 1.41 0 001.41-1.41 1.41 1.41 0 00-1.41-1.42 1.41 1.41 0 00-.01 0zm3.67 0a1.41 1.41 0 00-1.4 1.42 1.41 1.41 0 001.41 1.41 1.41 1.41 0 001.42-1.41 1.41 1.41 0 00-1.42-1.42zm7.35 0a1.41 1.41 0 00-1.4 1.42 1.41 1.41 0 001.41 1.41 1.41 1.41 0 001.42-1.41 1.41 1.41 0 00-1.42-1.42zm14.7 0a1.41 1.41 0 00-1.4 1.42 1.41 1.41 0 001.4 1.41 1.41 1.41 0 001.42-1.41 1.41 1.41 0 00-1.41-1.42 1.41 1.41 0 00-.01 0zm-44.1 3.68a1.41 1.41 0 00-1.4 1.41 1.41 1.41 0 001.42 1.42 1.41 1.41 0 001.41-1.42 1.41 1.41 0 00-1.41-1.41 1.41 1.41 0 00-.01 0zm14.7 0a1.41 1.41 0 00-1.4 1.41 1.41 1.41 0 001.42 1.42 1.41 1.41 0 001.41-1.42 1.41 1.41 0 00-1.41-1.41 1.41 1.41 0 00-.01 0zm7.35 0a1.41 1.41 0 00-1.4 1.41 1.41 1.41 0 001.41 1.42 1.41 1.41 0 001.42-1.42 1.41 1.41 0 00-1.42-1.41zm7.35 0a1.41 1.41 0 00-1.4 1.41 1.41 1.41 0 001.41 1.42 1.41 1.41 0 001.42-1.42 1.41 1.41 0 00-1.42-1.41zm14.7 0a1.41 1.41 0 00-1.4 1.41 1.41 1.41 0 001.4 1.42 1.41 1.41 0 001.42-1.42 1.41 1.41 0 00-1.41-1.41 1.41 1.41 0 00-.01 0zm-44.1 3.67a1.41 1.41 0 00-1.4 1.42 1.41 1.41 0 001.42 1.41 1.41 1.41 0 001.41-1.41 1.41 1.41 0 00-1.41-1.42 1.41 1.41 0 00-.01 0zm14.7 0a1.41 1.41 0 00-1.4 1.42 1.41 1.41 0 001.42 1.41 1.41 1.41 0 001.41-1.41 1.41 1.41 0 00-1.41-1.42 1.41 1.41 0 00-.01 0zm7.35 0a1.41 1.41 0 00-1.4 1.42 1.41 1.41 0 001.41 1.41 1.41 1.41 0 001.42-1.41 1.41 1.41 0 00-1.42-1.42zm7.35 0a1.41 1.41 0 00-1.4 1.42 1.41 1.41 0 001.41 1.41 1.41 1.41 0 001.42-1.41 1.41 1.41 0 00-1.42-1.42zm7.35 0a1.41 1.41 0 00-1.4 1.42 1.41 1.41 0 001.41 1.41 1.41 1.41 0 001.41-1.41 1.41 1.41 0 00-1.4-1.42 1.41 1.41 0 00-.02 0zm7.35 0a1.41 1.41 0 00-1.4 1.42 1.41 1.41 0 001.4 1.41 1.41 1.41 0 001.42-1.41 1.41 1.41 0 00-1.41-1.42 1.41 1.41 0 00-.01 0zm-44.1 3.68a1.41 1.41 0 00-1.4 1.41 1.41 1.41 0 001.42 1.42 1.41 1.41 0 001.41-1.42 1.41 1.41 0 00-1.41-1.41 1.41 1.41 0 00-.01 0zm14.7 0a1.41 1.41 0 00-1.4 1.41 1.41 1.41 0 001.42 1.42 1.41 1.41 0 001.41-1.42 1.41 1.41 0 00-1.41-1.41 1.41 1.41 0 00-.01 0zm7.35 0a1.41 1.41 0 00-1.4 1.41 1.41 1.41 0 001.41 1.42 1.41 1.41 0 001.42-1.42 1.41 1.41 0 00-1.42-1.41zm7.35 0a1.41 1.41 0 00-1.4 1.41 1.41 1.41 0 001.41 1.42 1.41 1.41 0 001.42-1.42 1.41 1.41 0 00-1.42-1.41zm3.68 0a1.41 1.41 0 00-1.4 1.41 1.41 1.41 0 001.4 1.42 1.41 1.41 0 001.42-1.42 1.41 1.41 0 00-1.41-1.41 1.41 1.41 0 00-.01 0zm7.35 0a1.41 1.41 0 00-1.41 1.41 1.41 1.41 0 001.41 1.42 1.41 1.41 0 001.42-1.42 1.41 1.41 0 00-1.42-1.41zm3.67 0a1.41 1.41 0 00-1.4 1.41 1.41 1.41 0 001.4 1.42 1.41 1.41 0 001.42-1.42 1.41 1.41 0 00-1.41-1.41 1.41 1.41 0 00-.01 0zm-44.1 3.67a1.41 1.41 0 00-1.4 1.42 1.41 1.41 0 001.42 1.41 1.41 1.41 0 001.41-1.41 1.41 1.41 0 00-1.41-1.42 1.41 1.41 0 00-.01 0zm3.68 0a1.41 1.41 0 00-1.4 1.42 1.41 1.41 0 001.41 1.41 1.41 1.41 0 001.42-1.41 1.41 1.41 0 00-1.42-1.42zm3.68 0a1.41 1.41 0 00-1.4 1.42 1.41 1.41 0 001.4 1.41 1.41 1.41 0 001.42-1.41 1.41 1.41 0 00-1.41-1.42 1.41 1.41 0 00-.01 0zm7.35 0a1.41 1.41 0 00-1.4 1.42 1.41 1.41 0 001.4 1.41 1.41 1.41 0 001.42-1.41 1.41 1.41 0 00-1.41-1.42 1.41 1.41 0 00-.01 0zm3.67 0a1.41 1.41 0 00-1.4 1.42 1.41 1.41 0 001.41 1.41 1.41 1.41 0 001.41-1.41 1.41 1.41 0 00-1.41-1.42 1.41 1.41 0 00-.01 0zm3.67 0a1.41 1.41 0 00-1.4 1.42 1.41 1.41 0 001.41 1.41 1.41 1.41 0 001.42-1.41 1.41 1.41 0 00-1.42-1.42zm7.35 0a1.41 1.41 0 00-1.4 1.42 1.41 1.41 0 001.41 1.41 1.41 1.41 0 001.42-1.41 1.41 1.41 0 00-1.42-1.42zm14.7 0a1.41 1.41 0 00-1.4 1.42 1.41 1.41 0 001.4 1.41 1.41 1.41 0 001.42-1.41 1.41 1.41 0 00-1.41-1.42 1.41 1.41 0 00-.01 0z"
    fill="red" filter="url(#filter-glow)" />
  <g id="refill-button">
    <path
      d="M17.55 33.09H47.5c1.55 0 2.8 1.32 2.8 2.96v4.65a2.88 2.88 0 01-2.8 2.96H17.55a2.88 2.88 0 01-2.8-2.96v-4.65a2.88 2.88 0 012.8-2.96z"
      fill="red" />
    <path
      d="M17.55 33.09a3.15 3.15 0 00-3.06 3.22v4.66a3.15 3.15 0 003.06 3.22H47.5c1.7 0 3.07-1.45 3.07-3.22V36.3a3.15 3.15 0 00-3.07-3.22zm0 .53H47.5c1.4 0 2.54 1.19 2.54 2.7v4.65c0 1.5-1.14 2.7-2.54 2.7H17.55c-1.4 0-2.54-1.2-2.54-2.7V36.3c0-1.5 1.14-2.7 2.54-2.7zM44.13 35v.67h1.19v-.67h-.6zm1.5.84l-.33.04c-.37.07-.72.07-1.15 0-.2-.03-.3-.04-.33-.03-.04.01 0 .06.15.23.21.24.21.24.11.2a.77.77 0 00-.78.2.72.72 0 00-.22.53c0 .21.08.4.23.55l.06.05-.15.15c-.18.17-.25.28-.27.45-.02.13-.02 2.74 0 2.94.02.2.05.28.14.38.09.08.19.12.38.14h2.5c.2-.03.3-.06.38-.14.1-.1.13-.18.15-.39.02-.2.02-2.82 0-2.94-.03-.18-.08-.26-.38-.55-.55-.56-.86-.97-.88-1.17-.01-.1.03-.17.24-.4.16-.17.19-.22.15-.24zm-24.04.22c-.1 0-.26 0-.48.02a11.44 11.44 0 01-1.76 0c-.18 0-.32.02-.42.04a.63.63 0 00-.3.15.31.31 0 00-.1.23c0 .07.03.13.06.17.04.04.1.09.21.14a.4.4 0 01.22.26 3 3 0 01.05.69c0 1.05 0 1.67-.02 1.84-.01.23-.04.4-.08.5-.03.09-.1.17-.2.24a.78.78 0 00-.19.15.22.22 0 00-.04.14c0 .33.45.5 1.34.5.48 0 .82-.03 1.02-.1.2-.06.3-.18.3-.34 0-.13-.07-.23-.21-.31a.6.6 0 01-.14-.1.26.26 0 01-.06-.11 3.43 3.43 0 01-.02-1.1c.03-.06.09-.09.18-.09a.5.5 0 01.37.15c.08.1.15.26.2.49.1.36.17.62.23.79.07.17.15.3.24.42.2.25.54.37 1 .37.36 0 .64-.05.84-.14a.6.6 0 00.22-.18.38.38 0 00.1-.23.27.27 0 00-.06-.15.22.22 0 00-.11-.1c-.15-.04-.25-.08-.29-.13-.04-.05-.07-.15-.1-.31a2.16 2.16 0 00-.25-.85c-.11-.19-.3-.33-.55-.42-.12-.04-.18-.1-.18-.17 0-.05.04-.1.12-.14.18-.09.33-.23.43-.4.11-.19.16-.4.16-.61 0-.4-.15-.71-.45-.94a2.1 2.1 0 00-1.28-.37zm10.81 0h-.1c-.3.06-.89.08-1.76.08a18.1 18.1 0 01-1.84-.07.65.65 0 00-.38.1c-.1.08-.16.17-.16.27 0 .08.02.14.06.18.04.04.12.08.24.13.12.06.2.15.22.29a18.71 18.71 0 01-.02 2.92c-.02.19-.1.3-.24.36l-.2.1a.32.32 0 00-.11.25.4.4 0 00.29.38c.18.05.53.08 1.02.08a6 6 0 001.32-.11c.22-.05.33-.17.33-.36a.3.3 0 00-.07-.19.25.25 0 00-.16-.1 2.3 2.3 0 01-.23-.04.23.23 0 01-.1-.07c-.08-.1-.12-.35-.12-.77v-.33c0-.11.01-.19.05-.22.04-.04.12-.06.22-.06.16 0 .27.04.35.11.05.05.09.1.1.14.02.06.04.14.05.27.02.19.1.28.25.28.13 0 .24-.06.31-.2.13-.2.2-.53.2-.97 0-.7-.15-1.06-.45-1.06-.17 0-.28.13-.34.4-.02.08-.05.15-.1.19-.05.04-.13.06-.24.06a.72.72 0 01-.32-.05c-.06-.04-.09-.1-.09-.19a3.86 3.86 0 01.12-.87c.04-.08.14-.12.3-.12.43 0 .71.03.86.07.16.04.29.12.4.25.17.2.29.32.33.35.04.04.1.05.2.05s.2-.04.27-.13.1-.2.1-.36c0-.33-.1-.63-.32-.9-.07-.1-.16-.14-.24-.14zm5.24.06a5.53 5.53 0 00-1.23.21 1.7 1.7 0 00-.54.25c-.11.08-.17.19-.17.3 0 .08.02.14.05.2.04.05.11.1.21.16.14.08.22.2.26.38a11.71 11.71 0 010 2.47c-.03.18-.09.3-.18.34a.7.7 0 00-.2.1c-.03.04-.05.08-.05.14 0 .07.03.14.09.21a.5.5 0 00.21.15c.19.07.52.1.98.1.41 0 .7-.02.88-.08.1-.02.17-.07.22-.14a.32.32 0 00.1-.21c0-.07-.02-.11-.06-.15a.51.51 0 00-.17-.1c-.1-.05-.17-.12-.18-.2a9.42 9.42 0 01-.03-.9V38.2a20.21 20.21 0 01.1-1.72c0-.23-.1-.35-.3-.35zm2.7 0a5.53 5.53 0 00-1.23.21 1.7 1.7 0 00-.53.25c-.12.08-.17.19-.17.3 0 .08.01.14.05.2.04.05.1.1.21.16.13.08.22.2.25.38.04.16.05.54.05 1.13 0 .58-.02 1.03-.05 1.34-.03.18-.08.3-.18.34a.7.7 0 00-.2.1c-.03.04-.04.08-.04.14 0 .07.03.14.08.21a.5.5 0 00.22.15c.18.07.51.1.98.1.4 0 .7-.02.88-.08.09-.02.16-.07.22-.14a.32.32 0 00.09-.21c0-.07-.02-.11-.05-.15a.51.51 0 00-.18-.1c-.1-.05-.16-.12-.18-.2a9.42 9.42 0 01-.02-.9V38.2a20.22 20.22 0 01.09-1.72c0-.23-.1-.35-.29-.35zm-5.92 0c-.26 0-.54.06-.84.18-.3.12-.45.28-.45.49 0 .15.07.28.21.36.1.07.24.1.42.1.42 0 .77-.08 1.07-.25.18-.11.28-.26.28-.44a.36.36 0 00-.19-.32.91.91 0 00-.5-.12zm9.44.45c.06 0 .12.02.17.04.11.05.11.07.06.15-.06.1-.18.25-.33.43-.18.2-.16.2-.23.13-.1-.1-.12-.16-.12-.3 0-.11 0-.14.03-.2a.44.44 0 01.42-.25zM21 36.85c.33 0 .5.23.5.7 0 .24-.05.42-.14.53-.1.1-.26.16-.47.16-.08 0-.13-.01-.15-.04-.03-.03-.04-.09-.04-.18V38l.04-.84c0-.11.03-.19.07-.23.03-.05.1-.07.2-.07zm5.18.62a2.04 2.04 0 00-1.6.78 1.84 1.84 0 00.26 2.48c.33.29.76.44 1.27.44.5 0 .94-.15 1.32-.43.22-.17.33-.33.33-.5a.38.38 0 00-.1-.25c-.05-.07-.11-.11-.18-.11-.04 0-.11.03-.2.09-.08.06-.2.12-.34.16a1.3 1.3 0 01-.39.07.86.86 0 01-.55-.2c-.16-.15-.25-.3-.25-.45 0-.07.04-.1.11-.1h1.7c.1 0 .2-.05.26-.15a.7.7 0 00.1-.39 1.56 1.56 0 00-.56-1.06 1.8 1.8 0 00-1.18-.38zm8.76.02a6.66 6.66 0 00-1.58.37c-.2.08-.3.2-.3.34 0 .13.08.23.23.3.12.05.18.12.2.22a7.77 7.77 0 010 1.4.46.46 0 01-.17.26l-.2.18a.25.25 0 00-.04.15c0 .07.03.14.08.2s.12.1.2.13a4 4 0 001.01.1c.79 0 1.18-.15 1.18-.47 0-.05 0-.1-.04-.14a.56.56 0 00-.14-.13.5.5 0 01-.19-.22c-.03-.07-.04-.2-.04-.36v-2.1c0-.15-.07-.23-.2-.23zm9.78.61s.07.1.14.24a1 1 0 00.15.25c.03 0 .05 0 .15-.05l.11-.04-.06.38c-.08.39-.08.42-.01.42.02 0 .07-.05.2-.19l.16-.18.04.08c.02.1.04.12.08.12l.21-.04c.1-.02.19-.04.2-.03a6.14 6.14 0 01-.12.48s.04.04.09.06l.08.04-.31.26c-.35.29-.4.33-.4.35l.02.12.03.1c0 .01-.16 0-.35-.03a3.11 3.11 0 00-.34-.02c-.01 0 .01.56.03.68v.07h-.2l.01-.07c.02-.15.04-.68.03-.68l-.34.02-.35.04.02-.12c.03-.1.03-.1.01-.13a5.2 5.2 0 00-.36-.31l-.33-.28.08-.04a.3.3 0 00.1-.06l-.06-.25a5.49 5.49 0 01-.06-.23l.19.03.21.04c.04 0 .06-.02.08-.12a.28.28 0 01.03-.08l.18.18c.12.14.17.19.2.19.06 0 .06-.03-.02-.42l-.07-.38.12.04c.1.05.12.06.15.05a1 1 0 00.15-.25l.13-.24zm-18.57.02c.12 0 .22.04.3.12.07.08.1.19.1.32 0 .14-.07.21-.23.21h-.36c-.09 0-.15-.01-.19-.04-.03-.03-.05-.08-.05-.15 0-.1.04-.2.11-.3.08-.11.18-.16.32-.16z"
      fill="#fff" />
  </g>
</svg>